SplineFontDB: 3.2
FontName: Grotesk-02Mince
FullName: Grotesk 02 Mince
FamilyName: Grotesk 01 Extrafine
Weight: Light
Copyright: Copyright \\(c\\) 2010-2023 by Frank Adebiaye. Certains droits r_serv_s
Version: 003.001
ItalicAngle: 0
UnderlinePosition: -125
UnderlineWidth: 50
Ascent: 800
Descent: 200
InvalidEm: 0
sfntRevision: 0x00030000
LayerCount: 2
Layer: 0 0 "Arri+AOgA-re" 1
Layer: 1 0 "Avant" 0
XUID: [1021 92 -1557539766 16553540]
StyleMap: 0x0020
FSType: 8
OS2Version: 4
OS2_WeightWidthSlopeOnly: 0
OS2_UseTypoMetrics: 1
CreationTime: 1673544023
ModificationTime: 1746888458
PfmFamily: 81
TTFWeight: 300
TTFWidth: 5
LineGap: 90
VLineGap: 0
Panose: 0 0 0 0 0 0 0 0 0 0
OS2TypoAscent: 800
OS2TypoAOffset: 0
OS2TypoDescent: -200
OS2TypoDOffset: 0
OS2TypoLinegap: 90
OS2WinAscent: 1000
OS2WinAOffset: 0
OS2WinDescent: 200
OS2WinDOffset: 0
HheadAscent: 1000
HheadAOffset: 0
HheadDescent: -200
HheadDOffset: 0
OS2SubXSize: 650
OS2SubYSize: 600
OS2SubXOff: 0
OS2SubYOff: 75
OS2SupXSize: 650
OS2SupYSize: 600
OS2SupXOff: 0
OS2SupYOff: 350
OS2StrikeYSize: 50
OS2StrikeYPos: 260
OS2CapHeight: 650
OS2XHeight: 520
OS2Vendor: 'VTF '
OS2CodePages: 20000097.00000000
OS2UnicodeRanges: a000026f.00002042.00000000.00000004
Lookup: 1 0 0 "'aalt' Access All Alternates in Latin lookup 0" { "'aalt' Access All Alternates in Latin lookup 0 subtable"  } ['aalt' ('DFLT' <'dflt' > 'latn' <'AZE ' 'CAT ' 'CRT ' 'KAZ ' 'MOL ' 'NLD ' 'ROM ' 'TAT ' 'TRK ' 'dflt' > ) ]
Lookup: 3 0 0 "'aalt' Access All Alternates in Latin lookup 1" { "'aalt' Access All Alternates in Latin lookup 1 subtable"  } ['aalt' ('DFLT' <'dflt' > 'latn' <'AZE ' 'CAT ' 'CRT ' 'KAZ ' 'MOL ' 'NLD ' 'ROM ' 'TAT ' 'TRK ' 'dflt' > ) ]

StartChar: .notdef
Encoding: 65536 -1 0
Width: 980
GlyphClass: 1
Flags: W
LayerCount: 2
Fore
SplineSet
505 700 m 1
 950 700 l 1
 950 600 l 1
 505 600 l 1
 505 700 l 1
30 -150 m 1
 30 -135 l 1
 45 -135 l 1
 45 -150 l 1
 30 -150 l 1
35 90 m 1
 35 100 l 1
 60 100 l 1
 60 70 l 1
 75 70 l 1
 75 40 l 1
 95 40 l 1
 95 70 l 1
 110 70 l 1
 110 100 l 1
 135 100 l 1
 135 90 l 1
 120 90 l 1
 120 60 l 1
 105 60 l 1
 105 30 l 1
 90 30 l 1
 90 0 l 1
 80 0 l 1
 80 30 l 1
 65 30 l 1
 65 60 l 1
 50 60 l 1
 50 90 l 1
 35 90 l 1
40 150 m 1
 40 250 l 1
 105 250 l 1
 105 240 l 1
 50 240 l 1
 50 160 l 1
 105 160 l 1
 105 150 l 1
 40 150 l 1
40 300 m 1
 40 400 l 1
 110 400 l 1
 110 390 l 1
 50 390 l 1
 50 355 l 1
 90 355 l 1
 90 345 l 1
 50 345 l 1
 50 300 l 1
 40 300 l 1
40 450 m 1
 40 550 l 1
 50 550 l 1
 50 460 l 1
 80 460 l 1
 80 515 l 1
 90 515 l 1
 90 460 l 1
 120 460 l 1
 120 550 l 1
 130 550 l 1
 130 450 l 1
 40 450 l 1
40 600 m 1
 40 700 l 1
 50 700 l 1
 50 600 l 1
 40 600 l 1
70 -150 m 1
 70 -50 l 1
 140 -50 l 1
 140 -60 l 1
 80 -60 l 1
 80 -95 l 1
 120 -95 l 1
 120 -105 l 1
 80 -105 l 1
 80 -150 l 1
 70 -150 l 1
80 600 m 1
 80 700 l 1
 150 700 l 1
 150 690 l 1
 90 690 l 1
 90 655 l 1
 130 655 l 1
 130 645 l 1
 90 645 l 1
 90 600 l 1
 80 600 l 1
130 150 m 1
 130 250 l 1
 205 250 l 1
 205 150 l 1
 130 150 l 1
130 300 m 1
 130 400 l 1
 205 400 l 1
 205 300 l 1
 130 300 l 1
140 160 m 1
 195 160 l 1
 195 240 l 1
 140 240 l 1
 140 160 l 1
140 310 m 1
 195 310 l 1
 195 390 l 1
 140 390 l 1
 140 310 l 1
155 0 m 1
 155 100 l 1
 225 100 l 1
 225 90 l 1
 165 90 l 1
 165 55 l 1
 205 55 l 1
 205 45 l 1
 165 45 l 1
 165 10 l 1
 225 10 l 1
 225 0 l 1
 155 0 l 1
155 450 m 1
 155 490 l 1
 170 490 l 1
 170 520 l 1
 185 520 l 1
 185 550 l 1
 220 550 l 1
 220 520 l 1
 235 520 l 1
 235 490 l 1
 250 490 l 1
 250 450 l 1
 240 450 l 1
 240 480 l 1
 165 480 l 1
 165 450 l 1
 155 450 l 1
165 -150 m 1
 165 -50 l 1
 220 -50 l 1
 220 -100 l 1
 250 -100 l 1
 250 -150 l 1
 240 -150 l 1
 240 -110 l 1
 175 -110 l 1
 175 -150 l 1
 165 -150 l 1
175 -100 m 1
 210 -100 l 1
 210 -60 l 1
 175 -60 l 1
 175 -100 l 1
180 490 m 1
 225 490 l 1
 225 510 l 1
 210 510 l 1
 210 540 l 1
 195 540 l 1
 195 510 l 1
 180 510 l 1
 180 490 l 1
180 645 m 1
 180 700 l 1
 190 700 l 1
 190 655 l 1
 250 655 l 1
 250 700 l 1
 260 700 l 1
 260 645 l 1
 225 645 l 1
 225 600 l 1
 215 600 l 1
 215 645 l 1
 180 645 l 1
235 150 m 1
 235 250 l 1
 265 250 l 1
 265 220 l 1
 280 220 l 1
 280 190 l 1
 295 190 l 1
 295 160 l 1
 305 160 l 1
 305 250 l 1
 315 250 l 1
 315 150 l 1
 285 150 l 1
 285 180 l 1
 270 180 l 1
 270 210 l 1
 255 210 l 1
 255 240 l 1
 245 240 l 1
 245 150 l 1
 235 150 l 1
235 300 m 1
 235 400 l 1
 290 400 l 1
 290 350 l 1
 320 350 l 1
 320 300 l 1
 310 300 l 1
 310 340 l 1
 245 340 l 1
 245 300 l 1
 235 300 l 1
245 350 m 1
 280 350 l 1
 280 390 l 1
 245 390 l 1
 245 350 l 1
255 0 m 1
 255 100 l 1
 265 100 l 1
 265 10 l 1
 325 10 l 1
 325 0 l 1
 255 0 l 1
275 450 m 1
 275 550 l 1
 305 550 l 1
 305 520 l 1
 320 520 l 1
 320 490 l 1
 335 490 l 1
 335 460 l 1
 345 460 l 1
 345 550 l 1
 355 550 l 1
 355 450 l 1
 325 450 l 1
 325 480 l 1
 310 480 l 1
 310 510 l 1
 295 510 l 1
 295 540 l 1
 285 540 l 1
 285 450 l 1
 275 450 l 1
285 -150 m 1
 285 -50 l 1
 950 -50 l 1
 950 -150 l 1
 285 -150 l 1
290 600 m 1
 290 700 l 1
 365 700 l 1
 365 600 l 1
 290 600 l 1
300 610 m 1
 355 610 l 1
 355 690 l 1
 300 690 l 1
 300 610 l 1
310 90 m 1
 310 100 l 1
 335 100 l 1
 335 70 l 1
 350 70 l 1
 350 40 l 1
 370 40 l 1
 370 70 l 1
 385 70 l 1
 385 100 l 1
 410 100 l 1
 410 90 l 1
 395 90 l 1
 395 60 l 1
 380 60 l 1
 380 30 l 1
 365 30 l 1
 365 0 l 1
 355 0 l 1
 355 30 l 1
 340 30 l 1
 340 60 l 1
 325 60 l 1
 325 90 l 1
 310 90 l 1
330 240 m 1
 330 250 l 1
 410 250 l 1
 410 240 l 1
 375 240 l 1
 375 150 l 1
 365 150 l 1
 365 240 l 1
 330 240 l 1
345 300 m 1
 345 400 l 1
 355 400 l 1
 355 355 l 1
 370 355 l 1
 370 370 l 1
 395 370 l 1
 395 400 l 1
 420 400 l 1
 420 390 l 1
 405 390 l 1
 405 360 l 1
 380 360 l 1
 380 340 l 1
 405 340 l 1
 405 310 l 1
 420 310 l 1
 420 300 l 1
 395 300 l 1
 395 330 l 1
 370 330 l 1
 370 345 l 1
 355 345 l 1
 355 300 l 1
 345 300 l 1
375 540 m 1
 375 550 l 1
 455 550 l 1
 455 540 l 1
 420 540 l 1
 420 450 l 1
 410 450 l 1
 410 540 l 1
 375 540 l 1
395 600 m 1
 395 700 l 1
 405 700 l 1
 405 610 l 1
 465 610 l 1
 465 700 l 1
 475 700 l 1
 475 600 l 1
 395 600 l 1
410 150 m 1
 410 190 l 1
 425 190 l 1
 425 220 l 1
 440 220 l 1
 440 250 l 1
 475 250 l 1
 475 220 l 1
 490 220 l 1
 490 190 l 1
 505 190 l 1
 505 150 l 1
 495 150 l 1
 495 180 l 1
 420 180 l 1
 420 150 l 1
 410 150 l 1
430 0 m 1
 430 100 l 1
 500 100 l 1
 500 90 l 1
 440 90 l 1
 440 55 l 1
 480 55 l 1
 480 45 l 1
 440 45 l 1
 440 10 l 1
 500 10 l 1
 500 0 l 1
 430 0 l 1
435 190 m 1
 480 190 l 1
 480 210 l 1
 465 210 l 1
 465 240 l 1
 450 240 l 1
 450 210 l 1
 435 210 l 1
 435 190 l 1
485 300 m 1
 485 400 l 1
 515 400 l 1
 515 370 l 1
 530 370 l 1
 530 340 l 1
 550 340 l 1
 550 370 l 1
 565 370 l 1
 565 400 l 1
 595 400 l 1
 595 300 l 1
 585 300 l 1
 585 390 l 1
 575 390 l 1
 575 360 l 1
 560 360 l 1
 560 330 l 1
 545 330 l 1
 545 300 l 1
 535 300 l 1
 535 330 l 1
 520 330 l 1
 520 360 l 1
 505 360 l 1
 505 390 l 1
 495 390 l 1
 495 300 l 1
 485 300 l 1
495 450 m 1
 495 550 l 1
 525 550 l 1
 525 520 l 1
 540 520 l 1
 540 490 l 1
 560 490 l 1
 560 520 l 1
 575 520 l 1
 575 550 l 1
 605 550 l 1
 605 450 l 1
 595 450 l 1
 595 540 l 1
 585 540 l 1
 585 510 l 1
 570 510 l 1
 570 480 l 1
 555 480 l 1
 555 450 l 1
 545 450 l 1
 545 480 l 1
 530 480 l 1
 530 510 l 1
 515 510 l 1
 515 540 l 1
 505 540 l 1
 505 450 l 1
 495 450 l 1
520 90 m 1
 520 100 l 1
 600 100 l 1
 600 90 l 1
 565 90 l 1
 565 0 l 1
 555 0 l 1
 555 90 l 1
 520 90 l 1
525 150 m 1
 525 250 l 1
 590 250 l 1
 590 240 l 1
 535 240 l 1
 535 160 l 1
 590 160 l 1
 590 150 l 1
 525 150 l 1
610 240 m 1
 610 250 l 1
 690 250 l 1
 690 240 l 1
 655 240 l 1
 655 150 l 1
 645 150 l 1
 645 240 l 1
 610 240 l 1
620 45 m 1
 620 100 l 1
 630 100 l 1
 630 55 l 1
 690 55 l 1
 690 100 l 1
 700 100 l 1
 700 45 l 1
 665 45 l 1
 665 0 l 1
 655 0 l 1
 655 45 l 1
 620 45 l 1
630 300 m 1
 630 400 l 1
 700 400 l 1
 700 390 l 1
 640 390 l 1
 640 355 l 1
 680 355 l 1
 680 345 l 1
 640 345 l 1
 640 310 l 1
 700 310 l 1
 700 300 l 1
 630 300 l 1
635 450 m 1
 635 550 l 1
 710 550 l 1
 710 450 l 1
 635 450 l 1
645 460 m 1
 700 460 l 1
 700 540 l 1
 645 540 l 1
 645 460 l 1
710 150 m 1
 710 250 l 1
 950 250 l 1
 950 150 l 1
 710 150 l 1
720 0 m 1
 720 100 l 1
 750 100 l 1
 750 70 l 1
 765 70 l 1
 765 40 l 1
 780 40 l 1
 780 10 l 1
 790 10 l 1
 790 100 l 1
 800 100 l 1
 800 0 l 1
 770 0 l 1
 770 30 l 1
 755 30 l 1
 755 60 l 1
 740 60 l 1
 740 90 l 1
 730 90 l 1
 730 0 l 1
 720 0 l 1
735 450 m 1
 735 550 l 1
 790 550 l 1
 790 500 l 1
 820 500 l 1
 820 450 l 1
 810 450 l 1
 810 490 l 1
 745 490 l 1
 745 450 l 1
 735 450 l 1
745 500 m 1
 780 500 l 1
 780 540 l 1
 745 540 l 1
 745 500 l 1
760 300 m 1
 760 400 l 1
 835 400 l 1
 835 300 l 1
 760 300 l 1
770 310 m 1
 825 310 l 1
 825 390 l 1
 770 390 l 1
 770 310 l 1
825 0 m 1
 825 100 l 1
 895 100 l 1
 895 90 l 1
 835 90 l 1
 835 55 l 1
 875 55 l 1
 875 45 l 1
 835 45 l 1
 835 10 l 1
 895 10 l 1
 895 0 l 1
 825 0 l 1
840 450 m 1
 840 550 l 1
 910 550 l 1
 910 540 l 1
 850 540 l 1
 850 505 l 1
 890 505 l 1
 890 495 l 1
 850 495 l 1
 850 460 l 1
 910 460 l 1
 910 450 l 1
 840 450 l 1
865 300 m 1
 865 400 l 1
 920 400 l 1
 920 350 l 1
 950 350 l 1
 950 300 l 1
 940 300 l 1
 940 340 l 1
 875 340 l 1
 875 300 l 1
 865 300 l 1
875 350 m 1
 910 350 l 1
 910 390 l 1
 875 390 l 1
 875 350 l 1
930 450 m 1
 930 465 l 1
 945 465 l 1
 945 435 l 1
 935 435 l 1
 935 450 l 1
 930 450 l 1
EndSplineSet
EndChar

StartChar: A
Encoding: 65 65 2
Width: 640
GlyphClass: 2
Flags: MW
HStem: 189 53<186 458 186 475 168 458> 602 48<304 341 304 304>
VStem: 50 540<0 0>
AnchorPoint: "Anchor-7" 320 650 basechar 0
AnchorPoint: "Anchor-6" 569 0 basechar 0
AnchorPoint: "Anchor-5" 320 0 basechar 0
LayerCount: 2
Fore
SplineSet
590 0 m 1
 537 0 l 1
 475 189 l 1
 168 189 l 1
 106 0 l 1
 50 0 l 1
 266 650 l 1
 378 650 l 1
 590 0 l 1
186 242 m 1
 458 242 l 1
 341 602 l 1
 304 602 l 1
 186 242 l 1
EndSplineSet
EndChar

StartChar: Aacute
Encoding: 193 193 3
Width: 640
GlyphClass: 2
Flags: MW
HStem: 189 53<186 458 186 475 168 458> 602 48<304 341 304 304> 705 100<295 405 295 405>
VStem: 50 540<0 0>
AnchorPoint: "Anchor-7" 320 805 basechar 0
AnchorPoint: "Anchor-6" 569 0 basechar 0
AnchorPoint: "Anchor-5" 320 0 basechar 0
LayerCount: 2
Fore
SplineSet
590 0 m 1
 537 0 l 1
 475 189 l 1
 168 189 l 1
 106 0 l 1
 50 0 l 1
 266 650 l 1
 378 650 l 1
 590 0 l 1
186 242 m 1
 458 242 l 1
 341 602 l 1
 304 602 l 1
 186 242 l 1
295 705 m 1
 351 805 l 1
 405 805 l 1
 349 705 l 1
 295 705 l 1
EndSplineSet
EndChar

StartChar: Abreve
Encoding: 258 258 4
Width: 640
GlyphClass: 2
Flags: MW
HStem: 189 53<186 458 186 475 168 458> 602 48<304 341 304 304> 699 40<302 338 302 349.5>
VStem: 221 39<781.5 800 781.5 800> 381 38<781.5 800>
AnchorPoint: "Anchor-7" 320 800 basechar 0
AnchorPoint: "Anchor-6" 569 0 basechar 0
AnchorPoint: "Anchor-5" 320 0 basechar 0
LayerCount: 2
Fore
SplineSet
590 0 m 1
 537 0 l 1
 475 189 l 1
 168 189 l 1
 106 0 l 1
 50 0 l 1
 266 650 l 1
 378 650 l 1
 590 0 l 1
186 242 m 1
 458 242 l 1
 341 602 l 1
 304 602 l 1
 186 242 l 1
221 800 m 1
 260 800 l 1
 260 763 284 739 320 739 c 0
 356 739 381 763 381 800 c 1
 419 800 l 1
 419 739 379 699 320 699 c 0
 261 699 221 739 221 800 c 1
EndSplineSet
EndChar

StartChar: Acircumflex
Encoding: 194 194 5
Width: 640
GlyphClass: 2
Flags: MW
HStem: 189 53<186 458 186 475 168 458> 602 48<304 341 304 304> 706 95<195 329 311 389 311 445>
VStem: 50 540<0 0>
AnchorPoint: "Anchor-7" 320 801 basechar 0
AnchorPoint: "Anchor-6" 569 0 basechar 0
AnchorPoint: "Anchor-5" 320 0 basechar 0
LayerCount: 2
Fore
SplineSet
590 0 m 1
 537 0 l 1
 475 189 l 1
 168 189 l 1
 106 0 l 1
 50 0 l 1
 266 650 l 1
 378 650 l 1
 590 0 l 1
186 242 m 1
 458 242 l 1
 341 602 l 1
 304 602 l 1
 186 242 l 1
195 706 m 1
 311 801 l 1
 329 801 l 1
 445 706 l 1
 389 706 l 1
 320 765 l 1
 251 706 l 1
 195 706 l 1
EndSplineSet
EndChar

StartChar: Adieresis
Encoding: 196 196 6
Width: 640
GlyphClass: 2
Flags: MW
HStem: 189 53<186 458 186 475 168 458> 602 48<304 341 304 304> 730 72<229.5 250.5 389.5 410.5>
VStem: 204 72<755.5 776.5> 364 72<755.5 776.5>
AnchorPoint: "Anchor-7" 320 826 basechar 0
AnchorPoint: "Anchor-6" 569 0 basechar 0
AnchorPoint: "Anchor-5" 320 0 basechar 0
LayerCount: 2
Fore
SplineSet
590 0 m 1
 537 0 l 1
 475 189 l 1
 168 189 l 1
 106 0 l 1
 50 0 l 1
 266 650 l 1
 378 650 l 1
 590 0 l 1
186 242 m 1
 458 242 l 1
 341 602 l 1
 304 602 l 1
 186 242 l 1
204 766 m 0
 204 787 219 802 240 802 c 0
 261 802 276 787 276 766 c 0
 276 745 261 730 240 730 c 0
 219 730 204 745 204 766 c 0
364 766 m 0
 364 787 379 802 400 802 c 0
 421 802 436 787 436 766 c 0
 436 745 421 730 400 730 c 0
 379 730 364 745 364 766 c 0
EndSplineSet
EndChar

StartChar: Agrave
Encoding: 192 192 7
Width: 640
GlyphClass: 2
Flags: MW
HStem: 189 53<186 458 186 475 168 458> 602 48<304 341 304 304> 705 100<235 345 235 291>
VStem: 50 540<0 0>
AnchorPoint: "Anchor-7" 320 805 basechar 0
AnchorPoint: "Anchor-6" 569 0 basechar 0
AnchorPoint: "Anchor-5" 320 0 basechar 0
LayerCount: 2
Fore
SplineSet
590 0 m 1
 537 0 l 1
 475 189 l 1
 168 189 l 1
 106 0 l 1
 50 0 l 1
 266 650 l 1
 378 650 l 1
 590 0 l 1
186 242 m 1
 458 242 l 1
 341 602 l 1
 304 602 l 1
 186 242 l 1
235 805 m 1
 289 805 l 1
 345 705 l 1
 291 705 l 1
 235 805 l 1
EndSplineSet
EndChar

StartChar: Amacron
Encoding: 256 256 8
Width: 640
GlyphClass: 2
Flags: MW
HStem: 189 53<186 458 186 475 168 458> 602 48<304 341 304 304> 745 38<155 485 155 485>
VStem: 155 330<745 783 745 783>
AnchorPoint: "Anchor-7" 320 783 basechar 0
AnchorPoint: "Anchor-6" 569 0 basechar 0
AnchorPoint: "Anchor-5" 320 0 basechar 0
LayerCount: 2
Fore
SplineSet
590 0 m 1
 537 0 l 1
 475 189 l 1
 168 189 l 1
 106 0 l 1
 50 0 l 1
 266 650 l 1
 378 650 l 1
 590 0 l 1
155 745 m 1
 155 783 l 1
 485 783 l 1
 485 745 l 1
 155 745 l 1
186 242 m 1
 458 242 l 1
 341 602 l 1
 304 602 l 1
 186 242 l 1
EndSplineSet
EndChar

StartChar: Aogonek
Encoding: 260 260 9
Width: 640
GlyphClass: 2
Flags: MW
HStem: -200 39<514 673 514 673> 189 53<186 458 186 475 168 458> 602 48<304 341 304 304>
VStem: 50 623<-200 0>
AnchorPoint: "Anchor-7" 320 650 basechar 0
AnchorPoint: "Anchor-6" 569 0 basechar 0
AnchorPoint: "Anchor-5" 320 0 basechar 0
LayerCount: 2
Fore
SplineSet
590 0 m 1
 514 -161 l 1
 673 -161 l 1
 673 -200 l 1
 455 -200 l 1
 549 0 l 1
 537 0 l 1
 475 189 l 1
 168 189 l 1
 106 0 l 1
 50 0 l 1
 266 650 l 1
 378 650 l 1
 590 0 l 1
186 242 m 1
 458 242 l 1
 341 602 l 1
 304 602 l 1
 186 242 l 1
EndSplineSet
EndChar

StartChar: Aring
Encoding: 197 197 10
Width: 640
GlyphClass: 2
Flags: MW
HStem: 189 53<186 458 186 475 168 458> 602 48<304 341 304 304> 699 26<306 335 306 342> 830 27<306 335>
VStem: 241 27<763.5 792.5 763.5 800> 372 28<778 778>
AnchorPoint: "Anchor-7" 320 857 basechar 0
AnchorPoint: "Anchor-6" 569 0 basechar 0
AnchorPoint: "Anchor-5" 320 0 basechar 0
LayerCount: 2
Fore
SplineSet
590 0 m 1
 537 0 l 1
 475 189 l 1
 168 189 l 1
 106 0 l 1
 50 0 l 1
 266 650 l 1
 378 650 l 1
 590 0 l 1
186 242 m 1
 458 242 l 1
 341 602 l 1
 304 602 l 1
 186 242 l 1
241 778 m 0
 241 822 275 857 320 857 c 0
 364 857 400 822 400 778 c 0
 400 734 364 699 320 699 c 0
 275 699 241 734 241 778 c 0
268 778 m 0
 268 749 292 725 320 725 c 0
 350 725 373 749 372 778 c 0
 373 807 350 830 320 830 c 0
 292 830 268 807 268 778 c 0
EndSplineSet
EndChar

StartChar: Atilde
Encoding: 195 195 11
Width: 640
GlyphClass: 2
Flags: MW
HStem: 189 53<186 458 186 475 168 458> 602 48<304 341 304 304> 701 35<364.5 400 364.5 409.5> 774 35<243.5 278.5>
VStem: 178 35<705 725.5 705 736> 432 35<782 804>
AnchorPoint: "Anchor-7" 320 806 basechar 0
AnchorPoint: "Anchor-6" 569 0 basechar 0
AnchorPoint: "Anchor-5" 320 0 basechar 0
LayerCount: 2
Fore
SplineSet
590 0 m 1
 537 0 l 1
 475 189 l 1
 168 189 l 1
 106 0 l 1
 50 0 l 1
 266 650 l 1
 378 650 l 1
 590 0 l 1
178 705 m 1
 178 767 212 809 257 809 c 0
 313 809 341 736 388 736 c 0
 412 736 432 760 432 804 c 1
 467 804 l 1
 467 740 431 701 388 701 c 0
 333 701 300 774 257 774 c 0
 230 774 213 746 213 705 c 1
 178 705 l 1
186 242 m 1
 458 242 l 1
 341 602 l 1
 304 602 l 1
 186 242 l 1
EndSplineSet
EndChar

StartChar: AE
Encoding: 198 198 12
Width: 795
GlyphClass: 1
Flags: MW
HStem: 0 55<412 699 466 699 466 699> 0 242<50 412 50 412 210 412 210 699> 189 53<210 412 210 412 187 412> 297 54<466 649 466 649> 595 55<361 412 361 361 466 699 466 466>
VStem: 412 54<55 189 189 189 242 297 351 595> 412 237<0 351 189 351 297 351 297 595>
LayerCount: 2
Fore
SplineSet
50 0 m 1x5c
 324 650 l 1
 699 650 l 1
 699 595 l 1
 466 595 l 1
 466 351 l 1xbc
 649 351 l 1
 649 297 l 1xba
 466 297 l 1
 466 55 l 1
 699 55 l 1
 699 0 l 1
 412 0 l 1
 412 189 l 1
 187 189 l 1xbc
 106 0 l 1
 50 0 l 1x5c
210 242 m 1
 412 242 l 1
 412 595 l 1
 361 595 l 1
 210 242 l 1
EndSplineSet
EndChar

StartChar: B
Encoding: 66 66 13
Width: 582
GlyphClass: 2
Flags: MW
HStem: 0 53<167 315 315 317> 220 51<167 217 167 221> 599 51<167 217 217 221 167 167>
VStem: 112 55<53 53 53 220 271 599> 383 49<429.5 483.5> 479 53<172.5 246.5>
AnchorPoint: "Anchor-7" 314 649 basechar 0
AnchorPoint: "Anchor-6" 136 0 basechar 0
AnchorPoint: "Anchor-5" 314 0 basechar 0
LayerCount: 2
Fore
SplineSet
112 0 m 1
 112 650 l 1
 217 650 l 2
 346 650 432 564 432 435 c 0
 432 424 431 414 430 404 c 1
 499 365 532 293 532 218 c 0
 532 99 452 0 317 0 c 2
 112 0 l 1
167 53 m 1
 315 53 l 2
 415 53 479 127 479 218 c 0
 479 275 453 322 417 349 c 1
 388 269 315 220 217 220 c 2
 167 220 l 1
 167 53 l 1
167 271 m 1
 221 271 l 2
 318 271 383 338 383 435 c 0
 383 532 318 599 221 599 c 2
 167 599 l 1
 167 271 l 1
EndSplineSet
EndChar

StartChar: C
Encoding: 67 67 14
Width: 565
GlyphClass: 2
Flags: MW
HStem: 0 53<300.5 515 399 515 399 515> 597 53<395 399 399 515>
VStem: 80 55<244 406.5 244 422>
AnchorPoint: "Anchor-7" 410 650 basechar 0
AnchorPoint: "Anchor-5" 410 0 basechar 0
LayerCount: 2
Fore
SplineSet
395 0 m 2
 206 0 80 130 80 325 c 0
 80 519 206 650 395 650 c 2
 515 650 l 1
 515 597 l 1
 399 597 l 2
 241 597 135 488 135 325 c 0
 135 163 240 53 399 53 c 2
 515 53 l 1
 515 0 l 1
 395 0 l 2
EndSplineSet
EndChar

StartChar: Cacute
Encoding: 262 262 15
Width: 615
GlyphClass: 2
Flags: MW
HStem: 0 53<300.5 515 399 515 399 515> 597 53<395 399 399 515> 704 100<385 495 385 495>
VStem: 80 55<244 406.5 244 422>
AnchorPoint: "Anchor-7" 410 804 basechar 0
AnchorPoint: "Anchor-5" 410 0 basechar 0
LayerCount: 2
Fore
SplineSet
395 0 m 2
 206 0 80 130 80 325 c 0
 80 519 206 650 395 650 c 2
 515 650 l 1
 515 597 l 1
 399 597 l 2
 241 597 135 488 135 325 c 0
 135 163 240 53 399 53 c 2
 515 53 l 1
 515 0 l 1
 395 0 l 2
385 704 m 1
 441 804 l 1
 495 804 l 1
 439 704 l 1
 385 704 l 1
EndSplineSet
EndChar

StartChar: Ccaron
Encoding: 268 268 16
Width: 615
GlyphClass: 2
Flags: MW
HStem: 0 53<300.5 515 399 515 399 515> 597 53<395 399 399 515> 709 95<285 419 285 401>
VStem: 80 55<244 406.5 244 422>
AnchorPoint: "Anchor-7" 410 800 basechar 0
AnchorPoint: "Anchor-5" 410 0 basechar 0
LayerCount: 2
Fore
SplineSet
395 0 m 2
 206 0 80 130 80 325 c 0
 80 519 206 650 395 650 c 2
 515 650 l 1
 515 597 l 1
 399 597 l 2
 241 597 135 488 135 325 c 0
 135 163 240 53 399 53 c 2
 515 53 l 1
 515 0 l 1
 395 0 l 2
285 804 m 1
 341 804 l 1
 410 745 l 1
 479 804 l 1
 535 804 l 1
 419 709 l 1
 401 709 l 1
 285 804 l 1
EndSplineSet
EndChar

StartChar: Ccedilla
Encoding: 199 199 17
Width: 615
GlyphClass: 2
Flags: MW
HStem: -235 39<389 407.5 389 419.5> -75 38<389 407.5> 0 53<300.5 515 399 515 399 515> 597 53<395 399 399 515>
VStem: 80 55<244 406.5 244 422> 451 39<-154 -118>
AnchorPoint: "Anchor-7" 410 650 basechar 0
AnchorPoint: "Anchor-5" 389 -235 basechar 0
LayerCount: 2
Fore
SplineSet
395 0 m 2
 206 0 80 130 80 325 c 0
 80 519 206 650 395 650 c 2
 515 650 l 1
 515 597 l 1
 399 597 l 2
 241 597 135 488 135 325 c 0
 135 163 240 53 399 53 c 2
 515 53 l 1
 515 0 l 1
 395 0 l 2
389 -235 m 1
 389 -196 l 1
 426 -196 451 -172 451 -136 c 0
 451 -100 426 -75 389 -75 c 1
 389 -37 l 1
 450 -37 490 -77 490 -136 c 0
 490 -195 450 -235 389 -235 c 1
EndSplineSet
EndChar

StartChar: Cdotaccent
Encoding: 266 266 18
Width: 615
GlyphClass: 2
Flags: MW
HStem: 0 53<300.5 515 399 515 399 515> 597 53<395 399 399 515> 729 72<400 420.5>
VStem: 80 55<244 406.5 244 422> 374 73<754.5 775.5>
AnchorPoint: "Anchor-7" 410 650 basechar 0
AnchorPoint: "Anchor-5" 410 0 basechar 0
LayerCount: 2
Fore
SplineSet
395 0 m 2
 206 0 80 130 80 325 c 0
 80 519 206 650 395 650 c 2
 515 650 l 1
 515 597 l 1
 399 597 l 2
 241 597 135 488 135 325 c 0
 135 163 240 53 399 53 c 2
 515 53 l 1
 515 0 l 1
 395 0 l 2
374 765 m 0
 374 786 390 801 410 801 c 0
 431 801 447 786 447 765 c 0
 447 744 431 729 410 729 c 0
 390 729 374 744 374 765 c 0
EndSplineSet
EndChar

StartChar: D
Encoding: 68 68 19
Width: 635
GlyphClass: 2
Flags: MW
HStem: 0 53<167 236 167 236> 597 53<167 236 167 167>
VStem: 112 55<53 53 53 597> 500 55<244 406.5>
AnchorPoint: "Anchor-7" 220 649 basechar 0
AnchorPoint: "Anchor-5" 323 0 basechar 0
LayerCount: 2
Fore
SplineSet
112 0 m 1
 112 650 l 1
 236 650 l 2
 425 650 555 519 555 325 c 0
 555 130 425 0 236 0 c 2
 112 0 l 1
167 53 m 1
 236 53 l 2
 395 53 500 163 500 325 c 0
 500 488 394 597 236 597 c 2
 167 597 l 1
 167 53 l 1
EndSplineSet
EndChar

StartChar: Eth
Encoding: 208 208 20
Width: 655
GlyphClass: 1
Flags: MW
HStem: 0 53<179 256 256 260> 297 54<112 124 112 124 179 322> 597 53<179 256 179 179>
VStem: 124 55<53 53 53 297 351 597> 124 198<0 351 297 351 297 650> 520 55<244 406.5>
LayerCount: 2
Fore
SplineSet
112 297 m 1xf4
 112 351 l 1
 124 351 l 1
 124 650 l 1
 260 650 l 2
 449 650 575 519 575 325 c 0
 575 130 449 0 260 0 c 2
 124 0 l 1
 124 297 l 1
 112 297 l 1xf4
179 53 m 1
 256 53 l 2
 415 53 520 163 520 325 c 0
 520 488 414 597 256 597 c 2
 179 597 l 1
 179 351 l 1xf4
 322 351 l 1
 322 297 l 1xec
 179 297 l 1
 179 53 l 1
EndSplineSet
EndChar

StartChar: Dcaron
Encoding: 270 270 21
Width: 645
GlyphClass: 2
Flags: MW
HStem: 0 53<167 236 167 236> 597 53<167 236 167 167> 708 95<95 229 95 211>
VStem: 112 55<53 53 53 597> 500 55<244 406.5>
AnchorPoint: "Anchor-7" 220 799 basechar 0
AnchorPoint: "Anchor-5" 323 0 basechar 0
LayerCount: 2
Fore
SplineSet
112 0 m 1
 112 650 l 1
 236 650 l 2
 425 650 555 519 555 325 c 0
 555 130 425 0 236 0 c 2
 112 0 l 1
95 803 m 1
 151 803 l 1
 220 744 l 1
 289 803 l 1
 345 803 l 1
 229 708 l 1
 211 708 l 1
 95 803 l 1
167 53 m 1
 236 53 l 2
 395 53 500 163 500 325 c 0
 500 488 394 597 236 597 c 2
 167 597 l 1
 167 53 l 1
EndSplineSet
EndChar

StartChar: Dcroat
Encoding: 272 272 22
Width: 655
GlyphClass: 1
Flags: MW
HStem: 0 53<179 256 256 260> 297 54<112 124 112 124 179 322> 597 53<179 256 179 179>
VStem: 124 55<53 53 53 297 351 597> 124 198<0 351 297 351 297 650> 520 55<244 406.5>
LayerCount: 2
Fore
SplineSet
112 297 m 1xf4
 112 351 l 1
 124 351 l 1
 124 650 l 1
 260 650 l 2
 449 650 575 519 575 325 c 0
 575 130 449 0 260 0 c 2
 124 0 l 1
 124 297 l 1
 112 297 l 1xf4
179 53 m 1
 256 53 l 2
 415 53 520 163 520 325 c 0
 520 488 414 597 256 597 c 2
 179 597 l 1
 179 351 l 1xf4
 322 351 l 1
 322 297 l 1xec
 179 297 l 1
 179 53 l 1
EndSplineSet
EndChar

StartChar: E
Encoding: 69 69 23
Width: 520
GlyphClass: 2
Flags: MW
HStem: 0 53<167 424 167 424> 298 53<167 374 167 374> 597 53<167 424 167 167>
VStem: 112 55<53 298 351 597> 112 262<298 351 298 650> 112 312<0 53 597 650>
AnchorPoint: "Anchor-7" 271 650 basechar 0
AnchorPoint: "Anchor-6" 397 0 basechar 0
AnchorPoint: "Anchor-5" 271 0 basechar 0
LayerCount: 2
Fore
SplineSet
112 650 m 1xf0
 424 650 l 1
 424 597 l 1xe4
 167 597 l 1
 167 351 l 1xf0
 374 351 l 1
 374 298 l 1xe8
 167 298 l 1
 167 53 l 1xf0
 424 53 l 1
 424 0 l 1xe4
 112 0 l 1
 112 650 l 1xf0
EndSplineSet
EndChar

StartChar: Eacute
Encoding: 201 201 24
Width: 520
GlyphClass: 2
Flags: MW
HStem: 0 53<167 424 167 424> 298 53<167 374 167 374> 597 53<167 424 167 167> 597 207<302 356 302 424 167 356> 704 100<246 356 246 356>
VStem: 112 55<53 298 351 597> 112 262<298 351 298 650> 112 312<0 53 597 650>
AnchorPoint: "Anchor-7" 271 804 basechar 0
AnchorPoint: "Anchor-6" 397 0 basechar 0
AnchorPoint: "Anchor-5" 271 0 basechar 0
LayerCount: 2
Fore
SplineSet
112 650 m 1xe4
 424 650 l 1
 424 597 l 1xe9
 167 597 l 1
 167 351 l 1xe4
 374 351 l 1
 374 298 l 1xe2
 167 298 l 1
 167 53 l 1xe4
 424 53 l 1
 424 0 l 1xe1
 112 0 l 1
 112 650 l 1xe4
246 704 m 1
 302 804 l 1
 356 804 l 1xd1
 300 704 l 1
 246 704 l 1
EndSplineSet
EndChar

StartChar: Ecaron
Encoding: 282 282 25
Width: 520
GlyphClass: 2
Flags: MW
HStem: 0 53<167 424 167 424> 298 53<167 374 167 374> 597 53<167 424 167 167> 597 207<167 202 340 396 146 424 167 167> 709 95<146 280 146 262>
VStem: 112 55<53 298 351 597> 112 262<298 351 298 650> 112 312<0 53 597 650>
AnchorPoint: "Anchor-7" 271 800 basechar 0
AnchorPoint: "Anchor-6" 397 0 basechar 0
AnchorPoint: "Anchor-5" 271 0 basechar 0
LayerCount: 2
Fore
SplineSet
112 650 m 1xe4
 424 650 l 1
 424 597 l 1xe1
 167 597 l 1
 167 351 l 1xe4
 374 351 l 1
 374 298 l 1xe2
 167 298 l 1
 167 53 l 1xe4
 424 53 l 1
 424 0 l 1xe1
 112 0 l 1
 112 650 l 1xe4
146 804 m 1xd1
 202 804 l 1
 271 745 l 1
 340 804 l 1
 396 804 l 1xd1
 280 709 l 1
 262 709 l 1xe9
 146 804 l 1xd1
EndSplineSet
EndChar

StartChar: Ecircumflex
Encoding: 202 202 26
Width: 520
GlyphClass: 2
Flags: MW
HStem: 0 53<167 424 167 424> 298 53<167 374 167 374> 597 53<167 424 167 167> 705 95<146 280 262 340 262 396>
VStem: 112 55<53 298 351 597> 112 262<298 351 298 650> 112 312<0 53 597 650>
AnchorPoint: "Anchor-7" 271 800 basechar 0
AnchorPoint: "Anchor-6" 397 0 basechar 0
AnchorPoint: "Anchor-5" 271 0 basechar 0
LayerCount: 2
Fore
SplineSet
112 650 m 1xe8
 424 650 l 1
 424 597 l 1xf2
 167 597 l 1
 167 351 l 1xe8
 374 351 l 1
 374 298 l 1xe4
 167 298 l 1
 167 53 l 1xe8
 424 53 l 1
 424 0 l 1xe2
 112 0 l 1
 112 650 l 1xe8
146 705 m 1
 262 800 l 1
 280 800 l 1
 396 705 l 1
 340 705 l 1
 271 764 l 1
 202 705 l 1
 146 705 l 1
EndSplineSet
EndChar

StartChar: Edieresis
Encoding: 203 203 27
Width: 520
GlyphClass: 2
Flags: MW
HStem: 0 53<167 424 167 424> 298 53<167 374 167 374> 597 53<167 424 167 167> 729 72<180.5 201.5 340.5 361.5>
VStem: 112 55<53 298 351 597> 112 262<298 351 298 650> 112 312<0 53 597 650> 155 72<754.5 775.5> 315 72<754.5 775.5>
AnchorPoint: "Anchor-7" 271 825 basechar 0
AnchorPoint: "Anchor-6" 397 0 basechar 0
AnchorPoint: "Anchor-5" 271 0 basechar 0
LayerCount: 2
Fore
SplineSet
112 650 m 1xe8
 424 650 l 1
 424 597 l 1xe2
 167 597 l 1
 167 351 l 1xe8
 374 351 l 1
 374 298 l 1xe4
 167 298 l 1
 167 53 l 1xe8
 424 53 l 1
 424 0 l 1xe2
 112 0 l 1
 112 650 l 1xe8
155 765 m 0xf180
 155 786 170 801 191 801 c 0
 212 801 227 786 227 765 c 0
 227 744 212 729 191 729 c 0
 170 729 155 744 155 765 c 0xf180
315 765 m 0
 315 786 330 801 351 801 c 0
 372 801 387 786 387 765 c 0
 387 744 372 729 351 729 c 0
 330 729 315 744 315 765 c 0
EndSplineSet
EndChar

StartChar: Edotaccent
Encoding: 278 278 28
Width: 520
GlyphClass: 2
Flags: MW
HStem: 0 53<167 424 167 424> 298 53<167 374 167 374> 597 53<167 424 167 167> 729 72<261 281.5>
VStem: 112 55<53 298 351 597> 112 262<298 351 298 650> 112 312<0 53 597 650> 235 73<754.5 775.5>
AnchorPoint: "Anchor-7" 271 650 basechar 0
AnchorPoint: "Anchor-6" 397 0 basechar 0
AnchorPoint: "Anchor-5" 271 0 basechar 0
LayerCount: 2
Fore
SplineSet
112 650 m 1xe8
 424 650 l 1
 424 597 l 1xe2
 167 597 l 1
 167 351 l 1xe8
 374 351 l 1
 374 298 l 1xe4
 167 298 l 1
 167 53 l 1xe8
 424 53 l 1
 424 0 l 1xe2
 112 0 l 1
 112 650 l 1xe8
235 765 m 0xf9
 235 786 251 801 271 801 c 0
 292 801 308 786 308 765 c 0
 308 744 292 729 271 729 c 0
 251 729 235 744 235 765 c 0xf9
EndSplineSet
EndChar

StartChar: Egrave
Encoding: 200 200 29
Width: 520
GlyphClass: 2
Flags: MW
HStem: 0 53<167 424 167 424> 298 53<167 374 167 374> 597 53<167 424 167 167> 597 207<186 240 186 424 167 240> 704 100<186 296 186 242>
VStem: 112 55<53 298 351 597> 112 262<298 351 298 650> 112 312<0 53 597 650>
AnchorPoint: "Anchor-7" 271 804 basechar 0
AnchorPoint: "Anchor-6" 397 0 basechar 0
AnchorPoint: "Anchor-5" 271 0 basechar 0
LayerCount: 2
Fore
SplineSet
112 650 m 1xe4
 424 650 l 1
 424 597 l 1xe1
 167 597 l 1
 167 351 l 1xe4
 374 351 l 1
 374 298 l 1xe2
 167 298 l 1
 167 53 l 1xe4
 424 53 l 1
 424 0 l 1xe1
 112 0 l 1
 112 650 l 1xe4
186 804 m 1xd1
 240 804 l 1xd1
 296 704 l 1
 242 704 l 1xe9
 186 804 l 1xd1
EndSplineSet
EndChar

StartChar: Emacron
Encoding: 274 274 30
Width: 520
GlyphClass: 2
Flags: MW
HStem: 0 53<167 424 167 424> 298 53<167 374 167 374> 597 53<167 424 167 167> 745 38<106 436 106 436>
VStem: 106 330<745 783 745 783> 112 55<53 298 351 597> 112 262<298 351 298 650> 112 312<0 53 597 650>
AnchorPoint: "Anchor-7" 271 783 basechar 0
AnchorPoint: "Anchor-6" 397 0 basechar 0
AnchorPoint: "Anchor-5" 271 0 basechar 0
LayerCount: 2
Fore
SplineSet
112 650 m 1xf4
 424 650 l 1
 424 597 l 1xf1
 167 597 l 1
 167 351 l 1xf4
 374 351 l 1
 374 298 l 1xf2
 167 298 l 1
 167 53 l 1xf4
 424 53 l 1
 424 0 l 1xf1
 112 0 l 1
 112 650 l 1xf4
106 745 m 1xf8
 106 783 l 1
 436 783 l 1
 436 745 l 1
 106 745 l 1xf8
EndSplineSet
EndChar

StartChar: Eogonek
Encoding: 280 280 31
Width: 520
GlyphClass: 2
Flags: MW
HStem: -200 39<342 501 342 501> 0 53<167 377 418 424 418 418> 298 53<167 374 167 374> 597 53<167 424 167 167>
VStem: 112 55<53 298 351 597> 112 262<298 351 298 650> 112 312<0 53 597 650>
AnchorPoint: "Anchor-7" 271 650 basechar 0
AnchorPoint: "Anchor-6" 397 0 basechar 0
AnchorPoint: "Anchor-5" 271 0 basechar 0
LayerCount: 2
Fore
SplineSet
112 650 m 1xf8
 424 650 l 1
 424 597 l 1xf2
 167 597 l 1
 167 351 l 1xf8
 374 351 l 1
 374 298 l 1xf4
 167 298 l 1
 167 53 l 1xf8
 424 53 l 1
 424 0 l 1
 418 0 l 1
 342 -161 l 1
 501 -161 l 1
 501 -200 l 1xf2
 283 -200 l 1
 377 0 l 1
 112 0 l 1
 112 650 l 1xf8
EndSplineSet
EndChar

StartChar: uni1EBC
Encoding: 7868 7868 32
Width: 520
GlyphClass: 2
Flags: MW
HStem: 0 53<167 424 167 424> 298 53<167 374 167 374> 597 53<167 424 167 167> 701 35<315.5 351 315.5 360.5> 774 35<194.5 229.5>
VStem: 112 52 112 55<53 298 351 597> 112 262<298 351 298 650> 112 312<0 53 597 650> 129 35<705 725.5 705 736> 383 35<782 804>
AnchorPoint: "Anchor-7" 271 806 basechar 0
AnchorPoint: "Anchor-6" 397 0 basechar 0
AnchorPoint: "Anchor-5" 271 0 basechar 0
LayerCount: 2
Fore
SplineSet
112 650 m 1xfa20
 424 650 l 1
 424 597 l 1xf880
 167 597 l 1
 167 351 l 1xfa20
 374 351 l 1
 374 298 l 1xf920
 167 298 l 1
 167 53 l 1xfa20
 424 53 l 1
 424 0 l 1xf880
 112 0 l 1
 112 650 l 1xfa20
129 705 m 1xf860
 129 767 163 809 208 809 c 0xf860
 264 809 292 736 339 736 c 0
 363 736 383 760 383 804 c 1
 418 804 l 1
 418 740 382 701 339 701 c 0
 284 701 251 774 208 774 c 0
 181 774 164 746 164 705 c 1xfc20
 129 705 l 1xf860
EndSplineSet
EndChar

StartChar: F
Encoding: 70 70 33
Width: 520
GlyphClass: 2
Flags: MW
HStem: 293 53<167 424 167 424> 597 53<167 424 167 167>
VStem: 112 55<0 293 346 597> 112 312<293 346 597 650 293 650 293 650>
AnchorPoint: "Anchor-7" 260 650 basechar 0
AnchorPoint: "Anchor-5" 260 0 basechar 0
LayerCount: 2
Fore
SplineSet
112 650 m 1xe0
 424 650 l 1
 424 597 l 1xd0
 167 597 l 1
 167 346 l 1xe0
 424 346 l 1
 424 293 l 1xd0
 167 293 l 1
 167 0 l 1
 112 0 l 1
 112 650 l 1xe0
EndSplineSet
EndChar

StartChar: G
Encoding: 71 71 34
Width: 605
GlyphClass: 2
Flags: MW
HStem: 0 53<300.5 470 399 470 399 525> 597 53<395 399 399 515>
VStem: 80 55<244 406.5 244 422> 470 55<53 330 0 330>
AnchorPoint: "Anchor-7" 405 649 basechar 0
AnchorPoint: "Anchor-5" 405 0 basechar 0
LayerCount: 2
Fore
SplineSet
395 0 m 2
 206 0 80 130 80 325 c 0
 80 519 206 650 395 650 c 2
 515 650 l 1
 515 597 l 1
 399 597 l 2
 241 597 135 488 135 325 c 0
 135 163 240 53 399 53 c 2
 470 53 l 1
 470 330 l 1
 525 330 l 1
 525 0 l 1
 395 0 l 2
EndSplineSet
EndChar

StartChar: Gbreve
Encoding: 286 286 35
Width: 605
GlyphClass: 2
Flags: MW
HStem: 0 53<300.5 470 399 470 399 525> 597 53<395 399 399 515> 698 40<387 423 387 434.5>
VStem: 80 55<244 406.5 244 422> 306 39<780.5 799 780.5 799> 466 38<780.5 799> 470 55<53 330 0 330>
AnchorPoint: "Anchor-7" 405 799 basechar 0
AnchorPoint: "Anchor-5" 405 0 basechar 0
LayerCount: 2
Fore
SplineSet
395 0 m 2xfa
 206 0 80 130 80 325 c 0
 80 519 206 650 395 650 c 2
 515 650 l 1
 515 597 l 1
 399 597 l 2
 241 597 135 488 135 325 c 0
 135 163 240 53 399 53 c 2
 470 53 l 1
 470 330 l 1
 525 330 l 1
 525 0 l 1
 395 0 l 2xfa
306 799 m 1
 345 799 l 1
 345 762 369 738 405 738 c 0
 441 738 466 762 466 799 c 1
 504 799 l 1xfc
 504 738 464 698 405 698 c 0
 346 698 306 738 306 799 c 1
EndSplineSet
EndChar

StartChar: uni0122
Encoding: 290 290 36
Width: 605
GlyphClass: 2
Flags: MW
HStem: 0 53<300.5 470 399 470 399 525> 597 53<395 399 399 515>
VStem: 80 55<244 406.5 244 422> 470 55<53 330 0 330>
AnchorPoint: "Anchor-7" 405 649 basechar 0
AnchorPoint: "Anchor-5" 365 -204 basechar 0
LayerCount: 2
Fore
SplineSet
395 0 m 2
 206 0 80 130 80 325 c 0
 80 519 206 650 395 650 c 2
 515 650 l 1
 515 597 l 1
 399 597 l 2
 241 597 135 488 135 325 c 0
 135 163 240 53 399 53 c 2
 470 53 l 1
 470 330 l 1
 525 330 l 1
 525 0 l 1
 395 0 l 2
311 -204 m 1
 383 -50 l 1
 424 -50 l 1
 352 -204 l 1
 311 -204 l 1
EndSplineSet
EndChar

StartChar: Gdotaccent
Encoding: 288 288 37
Width: 605
GlyphClass: 2
Flags: MW
HStem: 0 53<300.5 470 399 470 399 525> 597 53<395 399 399 515> 729 72<395 415.5>
VStem: 80 55<244 406.5 244 422> 369 73<754.5 775.5> 470 55<53 330 0 330>
AnchorPoint: "Anchor-7" 405 649 basechar 0
AnchorPoint: "Anchor-5" 405 0 basechar 0
LayerCount: 2
Fore
SplineSet
395 0 m 2
 206 0 80 130 80 325 c 0
 80 519 206 650 395 650 c 2
 515 650 l 1
 515 597 l 1
 399 597 l 2
 241 597 135 488 135 325 c 0
 135 163 240 53 399 53 c 2
 470 53 l 1
 470 330 l 1
 525 330 l 1
 525 0 l 1
 395 0 l 2
369 765 m 0xfc
 369 786 385 801 405 801 c 0
 426 801 442 786 442 765 c 0
 442 744 426 729 405 729 c 0
 385 729 369 744 369 765 c 0xfc
EndSplineSet
EndChar

StartChar: H
Encoding: 72 72 38
Width: 635
GlyphClass: 2
Flags: MW
HStem: 299 53<167 468 167 468>
VStem: 112 55<0 299 352 650> 468 55<0 299 299 299 352 650 0 650>
AnchorPoint: "Anchor-7" 318 650 basechar 0
AnchorPoint: "Anchor-5" 318 0 basechar 0
LayerCount: 2
Fore
SplineSet
112 0 m 1
 112 650 l 1
 167 650 l 1
 167 352 l 1
 468 352 l 1
 468 650 l 1
 523 650 l 1
 523 0 l 1
 468 0 l 1
 468 299 l 1
 167 299 l 1
 167 0 l 1
 112 0 l 1
EndSplineSet
EndChar

StartChar: Hbar
Encoding: 294 294 39
Width: 635
GlyphClass: 2
Flags: MW
HStem: 299 53<167 468 167 468> 503 46<30 112 30 112 167 468 523 605> 503 147<30 167 30 167 112 167 112 468>
VStem: 112 55<0 299 352 503 549 650> 468 55<0 299 299 299 352 503 0 503 549 650>
AnchorPoint: "Anchor-7" 318 650 basechar 0
AnchorPoint: "Anchor-6" 502 0 basechar 0
AnchorPoint: "Anchor-5" 318 0 basechar 0
LayerCount: 2
Fore
SplineSet
30 549 m 1xd8
 112 549 l 1xd8
 112 650 l 1
 167 650 l 1xb8
 167 549 l 1
 468 549 l 1xd8
 468 650 l 1
 523 650 l 1xb8
 523 549 l 1
 605 549 l 1
 605 503 l 1
 523 503 l 1
 523 0 l 1
 468 0 l 1
 468 299 l 1
 167 299 l 1
 167 0 l 1
 112 0 l 1
 112 503 l 1
 30 503 l 1
 30 549 l 1xd8
167 352 m 1
 468 352 l 1
 468 503 l 1
 167 503 l 1
 167 352 l 1
EndSplineSet
EndChar

StartChar: I
Encoding: 73 73 40
Width: 300
GlyphClass: 2
Flags: MW
HStem: 0 650<123 177 123 177>
VStem: 123 54<0 650 0 650>
AnchorPoint: "Anchor-7" 150 649 basechar 0
AnchorPoint: "Anchor-6" 157 0 basechar 0
AnchorPoint: "Anchor-5" 150 0 basechar 0
LayerCount: 2
Fore
SplineSet
123 0 m 1
 123 650 l 1
 177 650 l 1
 177 0 l 1
 123 0 l 1
EndSplineSet
EndChar

StartChar: IJ
Encoding: 306 306 41
AltUni2: 000133.ffffffff.0 000133.ffffffff.0
Width: 536
GlyphClass: 1
Flags: MW
HStem: -14 54<239.5 296.5 239.5 312.5> 300 349<112 167 112 167>
VStem: 112 55<146 148 148 189 115 189 300 649> 369 55<148 649>
LayerCount: 2
Fore
SplineSet
112 300 m 1
 112 649 l 1
 167 649 l 1
 167 300 l 1
 112 300 l 1
112 146 m 2
 112 189 l 1
 167 189 l 1
 167 148 l 2
 167 82 211 40 268 40 c 0
 325 40 369 82 369 148 c 2
 369 649 l 1
 424 649 l 1
 424 146 l 2
 424 50 357 -14 268 -14 c 0
 179 -14 112 50 112 146 c 2
EndSplineSet
EndChar

StartChar: Iacute
Encoding: 205 205 42
Width: 300
GlyphClass: 2
Flags: MW
HStem: 704 100<125 235 125 235>
VStem: 123 54<0 650 0 650>
AnchorPoint: "Anchor-7" 150 804 basechar 0
AnchorPoint: "Anchor-6" 157 0 basechar 0
AnchorPoint: "Anchor-5" 150 0 basechar 0
LayerCount: 2
Fore
SplineSet
123 0 m 1
 123 650 l 1
 177 650 l 1
 177 0 l 1
 123 0 l 1
125 704 m 1
 181 804 l 1
 235 804 l 1
 179 704 l 1
 125 704 l 1
EndSplineSet
EndChar

StartChar: Icircumflex
Encoding: 206 206 43
Width: 300
GlyphClass: 2
Flags: MW
HStem: 0 800<123 159 141 159 141 177> 705 95<25 159 141 219 141 275>
VStem: 123 54<0 650 0 650>
AnchorPoint: "Anchor-7" 150 800 basechar 0
AnchorPoint: "Anchor-6" 157 0 basechar 0
AnchorPoint: "Anchor-5" 150 0 basechar 0
LayerCount: 2
Fore
SplineSet
123 0 m 1xa0
 123 650 l 1
 177 650 l 1
 177 0 l 1
 123 0 l 1xa0
25 705 m 1x60
 141 800 l 1
 159 800 l 1
 275 705 l 1
 219 705 l 1
 150 764 l 1
 81 705 l 1
 25 705 l 1x60
EndSplineSet
EndChar

StartChar: Idieresis
Encoding: 207 207 44
Width: 300
GlyphClass: 2
Flags: MW
HStem: 729 72<59.5 80.5 219.5 240.5>
VStem: 34 72<754.5 775.5> 123 54<0 650 0 650> 194 72<754.5 775.5>
AnchorPoint: "Anchor-7" 150 825 basechar 0
AnchorPoint: "Anchor-6" 157 0 basechar 0
AnchorPoint: "Anchor-5" 150 0 basechar 0
LayerCount: 2
Fore
SplineSet
123 0 m 1
 123 650 l 1
 177 650 l 1
 177 0 l 1
 123 0 l 1
34 765 m 0xf0
 34 786 49 801 70 801 c 0
 91 801 106 786 106 765 c 0
 106 744 91 729 70 729 c 0
 49 729 34 744 34 765 c 0xf0
194 765 m 0
 194 786 209 801 230 801 c 0
 251 801 266 786 266 765 c 0
 266 744 251 729 230 729 c 0
 209 729 194 744 194 765 c 0
EndSplineSet
EndChar

StartChar: Idotaccent
Encoding: 304 304 45
Width: 300
GlyphClass: 2
Flags: MW
HStem: 729 72<140 160.5>
VStem: 114 73<754.5 775.5> 123 54<0 650 0 650>
AnchorPoint: "Anchor-7" 150 649 basechar 0
AnchorPoint: "Anchor-6" 157 0 basechar 0
AnchorPoint: "Anchor-5" 150 0 basechar 0
LayerCount: 2
Fore
SplineSet
123 0 m 1xa0
 123 650 l 1
 177 650 l 1
 177 0 l 1
 123 0 l 1xa0
114 765 m 0xc0
 114 786 130 801 150 801 c 0
 171 801 187 786 187 765 c 0
 187 744 171 729 150 729 c 0
 130 729 114 744 114 765 c 0xc0
EndSplineSet
EndChar

StartChar: Igrave
Encoding: 204 204 46
Width: 300
GlyphClass: 2
Flags: MW
HStem: 704 100<65 175 65 121>
VStem: 123 54<0 650 0 650>
AnchorPoint: "Anchor-7" 150 804 basechar 0
AnchorPoint: "Anchor-6" 157 0 basechar 0
AnchorPoint: "Anchor-5" 150 0 basechar 0
LayerCount: 2
Fore
SplineSet
123 0 m 1
 123 650 l 1
 177 650 l 1
 177 0 l 1
 123 0 l 1
65 804 m 1
 119 804 l 1
 175 704 l 1
 121 704 l 1
 65 804 l 1
EndSplineSet
EndChar

StartChar: Imacron
Encoding: 298 298 47
Width: 300
GlyphClass: 2
Flags: MW
HStem: 741 38<15 285 15 285>
VStem: 123 54<0 650 0 650>
AnchorPoint: "Anchor-7" 150 800 basechar 0
AnchorPoint: "Anchor-6" 157 0 basechar 0
AnchorPoint: "Anchor-5" 150 0 basechar 0
LayerCount: 2
Fore
SplineSet
123 0 m 1
 123 650 l 1
 177 650 l 1
 177 0 l 1
 123 0 l 1
15 741 m 1
 15 779 l 1
 285 779 l 1
 285 741 l 1
 15 741 l 1
EndSplineSet
EndChar

StartChar: Iogonek
Encoding: 302 302 48
Width: 300
GlyphClass: 2
Flags: MW
HStem: -200 39<101 260 101 260>
VStem: 123 54<0 650 0 650>
AnchorPoint: "Anchor-7" 150 649 basechar 0
AnchorPoint: "Anchor-6" 157 0 basechar 0
AnchorPoint: "Anchor-5" 150 0 basechar 0
LayerCount: 2
Fore
SplineSet
123 0 m 1
 123 650 l 1
 177 650 l 1
 177 0 l 1
 101 -161 l 1
 260 -161 l 1
 260 -200 l 1
 42 -200 l 1
 136 0 l 1
 123 0 l 1
EndSplineSet
EndChar

StartChar: Itilde
Encoding: 296 296 49
Width: 300
GlyphClass: 2
Flags: MW
HStem: 700 35<194.5 230 194.5 239.5> 773 35<73.5 108.5>
VStem: 8 35<704 724.5 704 735> 123 54<0 650 0 650> 262 35<781 803>
AnchorPoint: "Anchor-7" 150 805 basechar 0
AnchorPoint: "Anchor-6" 157 0 basechar 0
AnchorPoint: "Anchor-5" 150 0 basechar 0
LayerCount: 2
Fore
SplineSet
123 0 m 1
 123 650 l 1
 177 650 l 1
 177 0 l 1
 123 0 l 1
8 704 m 1
 8 766 42 808 87 808 c 0
 143 808 171 735 218 735 c 0
 242 735 262 759 262 803 c 1
 297 803 l 1
 297 739 261 700 218 700 c 0
 163 700 130 773 87 773 c 0
 60 773 43 745 43 704 c 1
 8 704 l 1
EndSplineSet
EndChar

StartChar: J
Encoding: 74 74 50
Width: 486
GlyphClass: 2
Flags: MW
HStem: -14 54<189.5 246.5 189.5 262.5>
VStem: 62 55<146 148 148 276> 319 55<148 650>
AnchorPoint: "Anchor-7" 347 650 basechar 0
AnchorPoint: "Anchor-5" 218 0 basechar 0
LayerCount: 2
Fore
SplineSet
218 -14 m 0
 129 -14 62 50 62 146 c 2
 62 276 l 1
 117 276 l 1
 117 148 l 2
 117 82 161 40 218 40 c 0
 275 40 319 82 319 148 c 2
 319 650 l 1
 374 650 l 1
 374 146 l 2
 374 50 307 -14 218 -14 c 0
EndSplineSet
Substitution2: "Single Substitution lookup 16 subtable" uni004A0301
Substitution2: "'aalt' Access All Alternates in Latin lookup 0 subtable" uni004A0301
EndChar

StartChar: uni004A0301
Encoding: 65537 -1 51
Width: 486
GlyphClass: 2
Flags: MW
HStem: -14 54<189.5 246.5 189.5 262.5> 705 100<322 432 322 432>
VStem: 62 55<146 148 148 276> 319 55<148 650>
AnchorPoint: "Anchor-7" 347 805 basechar 0
AnchorPoint: "Anchor-5" 218 0 basechar 0
LayerCount: 2
Fore
SplineSet
218 -14 m 0
 129 -14 62 50 62 146 c 2
 62 276 l 1
 117 276 l 1
 117 148 l 2
 117 82 161 40 218 40 c 0
 275 40 319 82 319 148 c 2
 319 650 l 1
 374 650 l 1
 374 146 l 2
 374 50 307 -14 218 -14 c 0
322 705 m 1
 378 805 l 1
 432 805 l 1
 376 705 l 1
 322 705 l 1
EndSplineSet
EndChar

StartChar: K
Encoding: 75 75 52
Width: 590
GlyphClass: 2
Flags: MW
HStem: 265 53<167 327 167 353 167 327>
VStem: 112 55<0 265 318 650>
AnchorPoint: "Anchor-7" 308 649 basechar 0
AnchorPoint: "Anchor-5" 308 0 basechar 0
LayerCount: 2
Fore
SplineSet
112 650 m 1
 167 650 l 1
 167 318 l 1
 327 318 l 1
 465 650 l 1
 520 650 l 1
 383 320 l 1
 540 0 l 1
 485 0 l 1
 353 265 l 1
 167 265 l 1
 167 0 l 1
 112 0 l 1
 112 650 l 1
EndSplineSet
Substitution2: "'ss02' Style Set 2 in Latin lookup 10 subtable" K.ss02
Substitution2: "'aalt' Access All Alternates in Latin lookup 0 subtable" K.ss02
EndChar

StartChar: uni0136
Encoding: 310 310 53
Width: 590
GlyphClass: 2
Flags: MW
HStem: 265 53<167 327 167 353 167 327>
VStem: 112 55<0 265 318 650>
AnchorPoint: "Anchor-7" 308 649 basechar 0
AnchorPoint: "Anchor-5" 268 -204 basechar 0
LayerCount: 2
Fore
SplineSet
112 650 m 1
 167 650 l 1
 167 318 l 1
 327 318 l 1
 465 650 l 1
 520 650 l 1
 383 320 l 1
 540 0 l 1
 485 0 l 1
 353 265 l 1
 167 265 l 1
 167 0 l 1
 112 0 l 1
 112 650 l 1
214 -204 m 1
 286 -50 l 1
 327 -50 l 1
 255 -204 l 1
 214 -204 l 1
EndSplineSet
EndChar

StartChar: L
Encoding: 76 76 54
Width: 535
GlyphClass: 2
Flags: MW
HStem: 0 55<167 485 167 485>
VStem: 112 55<55 650 55 650 55 650>
AnchorPoint: "Anchor-7" 139 649 basechar 0
AnchorPoint: "Anchor-5" 283 0 basechar 0
LayerCount: 2
Fore
SplineSet
112 0 m 1
 112 650 l 1
 167 650 l 1
 167 55 l 1
 485 55 l 1
 485 0 l 1
 112 0 l 1
EndSplineSet
EndChar

StartChar: Lacute
Encoding: 313 313 55
Width: 535
GlyphClass: 2
Flags: MW
HStem: 0 55<167 485 167 485> 704 100<114 224 114 224>
VStem: 112 55<55 650 55 650 55 650>
AnchorPoint: "Anchor-7" 139 804 basechar 0
AnchorPoint: "Anchor-5" 283 0 basechar 0
LayerCount: 2
Fore
SplineSet
112 0 m 1
 112 650 l 1
 167 650 l 1
 167 55 l 1
 485 55 l 1
 485 0 l 1
 112 0 l 1
114 704 m 1
 170 804 l 1
 224 804 l 1
 168 704 l 1
 114 704 l 1
EndSplineSet
EndChar

StartChar: Lcaron
Encoding: 317 317 56
Width: 535
GlyphClass: 2
Flags: MW
HStem: 0 55<167 485 167 485> 708 95<14 148 14 130>
VStem: 112 55<55 650 55 650 55 650>
AnchorPoint: "Anchor-7" 139 799 basechar 0
AnchorPoint: "Anchor-5" 283 0 basechar 0
LayerCount: 2
Fore
SplineSet
112 0 m 1
 112 650 l 1
 167 650 l 1
 167 55 l 1
 485 55 l 1
 485 0 l 1
 112 0 l 1
14 803 m 1
 70 803 l 1
 139 744 l 1
 208 803 l 1
 264 803 l 1
 148 708 l 1
 130 708 l 1
 14 803 l 1
EndSplineSet
EndChar

StartChar: uni013B
Encoding: 315 315 57
Width: 535
GlyphClass: 2
Flags: MW
HStem: 0 55<167 485 167 485>
VStem: 112 55<55 650 55 650 55 650>
AnchorPoint: "Anchor-7" 139 649 basechar 0
AnchorPoint: "Anchor-5" 243 -204 basechar 0
LayerCount: 2
Fore
SplineSet
112 0 m 1
 112 650 l 1
 167 650 l 1
 167 55 l 1
 485 55 l 1
 485 0 l 1
 112 0 l 1
189 -204 m 1
 261 -50 l 1
 302 -50 l 1
 230 -204 l 1
 189 -204 l 1
EndSplineSet
EndChar

StartChar: Ldot
Encoding: 319 319 58
Width: 535
GlyphClass: 2
Flags: MW
HStem: 0 55<167 485 167 485> 266 128<413.5 449>
VStem: 112 55<55 650 55 650 55 650> 367 128<312.5 348>
AnchorPoint: "Anchor-7" 139 649 basechar 0
AnchorPoint: "Anchor-5" 283 0 basechar 0
LayerCount: 2
Fore
SplineSet
112 0 m 1
 112 650 l 1
 167 650 l 1
 167 55 l 1
 485 55 l 1
 485 0 l 1
 112 0 l 1
367 330 m 0
 367 366 396 394 431 394 c 0
 467 394 495 366 495 330 c 0
 495 295 467 266 431 266 c 0
 396 266 367 295 367 330 c 0
EndSplineSet
Ligature2: "Ligature Substitution lookup 15 subtable" L periodcentered
EndChar

StartChar: Lslash
Encoding: 321 321 59
Width: 535
GlyphClass: 2
Flags: MW
HStem: 0 55<167 485 167 485>
VStem: 112 55<55 247 247 247 353 650> 112 213<0 473 247 473 409 473 409 650 409 650>
AnchorPoint: "Anchor-7" 139 649 basechar 0
AnchorPoint: "Anchor-5" 283 0 basechar 0
LayerCount: 2
Fore
SplineSet
50 200 m 1xc0
 50 265 l 1
 112 312 l 1
 112 650 l 1
 167 650 l 1
 167 353 l 1xc0
 325 473 l 1
 325 409 l 1xa0
 167 289 l 1
 167 55 l 1
 485 55 l 1
 485 0 l 1
 112 0 l 1
 112 247 l 1
 50 200 l 1xc0
EndSplineSet
EndChar

StartChar: M
Encoding: 77 77 60
Width: 836
GlyphClass: 2
Flags: MW
HStem: 294 52<374 438 398 438 398 462> 597 53<167 185 167 167 652 652 652 669>
VStem: 112 55<0 597 0 650 0 650> 669 55<0 597 597 597>
AnchorPoint: "Anchor-7" 418 650 basechar 0
AnchorPoint: "Anchor-6" 693 0 basechar 0
AnchorPoint: "Anchor-5" 418 0 basechar 0
LayerCount: 2
Fore
SplineSet
374 294 m 1
 185 597 l 1
 167 597 l 1
 167 0 l 1
 112 0 l 1
 112 650 l 1
 209 650 l 1
 398 346 l 1
 438 346 l 1
 627 650 l 1
 724 650 l 1
 724 0 l 1
 669 0 l 1
 669 597 l 1
 652 597 l 1
 462 294 l 1
 374 294 l 1
EndSplineSet
EndChar

StartChar: N
Encoding: 78 78 61
Width: 635
GlyphClass: 2
Flags: MW
HStem: 294 52<407 468 431 468 431 468> 597 53<167 185 167 167>
VStem: 112 55<0 597 0 650 0 650> 468 55<0 294 294 294 346 650 0 650>
AnchorPoint: "Anchor-7" 318 650 basechar 0
AnchorPoint: "Anchor-5" 318 0 basechar 0
LayerCount: 2
Fore
SplineSet
407 294 m 1
 185 597 l 1
 167 597 l 1
 167 0 l 1
 112 0 l 1
 112 650 l 1
 208 650 l 1
 431 346 l 1
 468 346 l 1
 468 650 l 1
 523 650 l 1
 523 0 l 1
 468 0 l 1
 468 294 l 1
 407 294 l 1
EndSplineSet
EndChar

StartChar: Nacute
Encoding: 323 323 62
Width: 635
GlyphClass: 2
Flags: MW
HStem: 294 52<407 468 431 468 431 468> 597 53<167 185 167 167> 705 100<293 403 293 403>
VStem: 112 55<0 597 0 650 0 650> 468 55<0 294 294 294 346 650 0 650>
AnchorPoint: "Anchor-7" 318 805 basechar 0
AnchorPoint: "Anchor-5" 318 0 basechar 0
LayerCount: 2
Fore
SplineSet
407 294 m 1
 185 597 l 1
 167 597 l 1
 167 0 l 1
 112 0 l 1
 112 650 l 1
 208 650 l 1
 431 346 l 1
 468 346 l 1
 468 650 l 1
 523 650 l 1
 523 0 l 1
 468 0 l 1
 468 294 l 1
 407 294 l 1
293 705 m 1
 349 805 l 1
 403 805 l 1
 347 705 l 1
 293 705 l 1
EndSplineSet
EndChar

StartChar: Ncaron
Encoding: 327 327 63
Width: 635
GlyphClass: 2
Flags: MW
HStem: 294 52<407 468 431 468 431 468> 597 53<167 185 167 167> 709 95<193 327 193 309>
VStem: 112 55<0 597 0 650 0 650> 468 55<0 294 294 294 346 650 0 650>
AnchorPoint: "Anchor-7" 318 800 basechar 0
AnchorPoint: "Anchor-5" 318 0 basechar 0
LayerCount: 2
Fore
SplineSet
407 294 m 1
 185 597 l 1
 167 597 l 1
 167 0 l 1
 112 0 l 1
 112 650 l 1
 208 650 l 1
 431 346 l 1
 468 346 l 1
 468 650 l 1
 523 650 l 1
 523 0 l 1
 468 0 l 1
 468 294 l 1
 407 294 l 1
193 804 m 1
 249 804 l 1
 318 745 l 1
 387 804 l 1
 443 804 l 1
 327 709 l 1
 309 709 l 1
 193 804 l 1
EndSplineSet
EndChar

StartChar: uni0145
Encoding: 325 325 64
Width: 635
GlyphClass: 2
Flags: MW
HStem: 294 52<407 468 431 468 431 468> 597 53<167 185 167 167>
VStem: 112 55<0 597 0 650 0 650> 468 55<0 294 294 294 346 650 0 650>
AnchorPoint: "Anchor-7" 318 650 basechar 0
AnchorPoint: "Anchor-5" 278 -204 basechar 0
LayerCount: 2
Fore
SplineSet
407 294 m 1
 185 597 l 1
 167 597 l 1
 167 0 l 1
 112 0 l 1
 112 650 l 1
 208 650 l 1
 431 346 l 1
 468 346 l 1
 468 650 l 1
 523 650 l 1
 523 0 l 1
 468 0 l 1
 468 294 l 1
 407 294 l 1
224 -204 m 1
 296 -50 l 1
 337 -50 l 1
 265 -204 l 1
 224 -204 l 1
EndSplineSet
EndChar

StartChar: Ntilde
Encoding: 209 209 65
Width: 635
GlyphClass: 2
Flags: MW
HStem: 294 52<407 468 431 468 431 468> 597 53<167 185 167 167> 701 35<362.5 398 362.5 407.5> 774 35<241.5 276.5>
VStem: 112 55<0 597 0 650 0 650> 176 35<705 725.5 705 736> 430 35<782 804> 468 55<0 294 294 294 346 650 0 650>
AnchorPoint: "Anchor-7" 318 806 basechar 0
AnchorPoint: "Anchor-5" 318 0 basechar 0
LayerCount: 2
Fore
SplineSet
407 294 m 1
 185 597 l 1
 167 597 l 1
 167 0 l 1
 112 0 l 1
 112 650 l 1
 208 650 l 1
 431 346 l 1
 468 346 l 1
 468 650 l 1
 523 650 l 1
 523 0 l 1
 468 0 l 1
 468 294 l 1
 407 294 l 1
176 705 m 1xfe
 176 767 210 809 255 809 c 0
 311 809 339 736 386 736 c 0
 410 736 430 760 430 804 c 1
 465 804 l 1
 465 740 429 701 386 701 c 0
 331 701 298 774 255 774 c 0
 228 774 211 746 211 705 c 1
 176 705 l 1xfe
EndSplineSet
EndChar

StartChar: Eng
Encoding: 330 330 66
Width: 635
GlyphClass: 2
Flags: MW
HStem: -200 51<343 468 343 523 343 468> 293 52<408 468 432 468 432 468> 596 53<167 185 167 208>
VStem: 112 55<0 596 0 649 649 650 0 650> 343 180<-200 -149 -149 -149> 468 55<-149 293 293 293 345 649 -200 649>
AnchorPoint: "Anchor-7" 139 649 basechar 0
AnchorPoint: "Anchor-6" 146 0 basechar 0
AnchorPoint: "Anchor-5" 139 0 basechar 0
LayerCount: 2
Fore
SplineSet
408 293 m 1xf4
 185 596 l 1
 167 596 l 1
 167 0 l 1
 112 0 l 1
 112 650 l 1
 167 650 l 1
 167 649 l 1
 208 649 l 1
 432 345 l 1
 468 345 l 1
 468 649 l 1
 523 649 l 1
 523 -200 l 1xf4
 343 -200 l 1
 343 -149 l 1xf8
 468 -149 l 1
 468 293 l 1
 408 293 l 1xf4
EndSplineSet
EndChar

StartChar: O
Encoding: 79 79 67
Width: 840
GlyphClass: 2
Flags: MW
HStem: -16 57<341.5 497.5 341.5 514> 607 57<341.5 498.5>
VStem: 80 57<245.5 402.5 245.5 418> 703 57<245.5 402.5>
AnchorPoint: "Anchor-7" 420 648 basechar 0
AnchorPoint: "Anchor-6" 746 10 basechar 0
AnchorPoint: "Anchor-5" 420 0 basechar 0
LayerCount: 2
Fore
SplineSet
420 -16 m 0
 232 -16 80 136 80 324 c 0
 80 512 232 664 420 664 c 0
 608 664 760 512 760 324 c 0
 760 136 608 -16 420 -16 c 0
137 324 m 0
 137 167 263 41 420 41 c 0
 575 41 703 167 703 324 c 0
 703 481 577 607 420 607 c 0
 263 607 137 481 137 324 c 0
EndSplineSet
Substitution2: "'ss05' Style Set 5 in Latin lookup 13 subtable" O.ss05
Substitution2: "'ss04' Style Set 4 in Latin lookup 12 subtable" O.ss04
AlternateSubs2: "'aalt' Access All Alternates in Latin lookup 1 subtable" O.ss04 O.ss05
EndChar

StartChar: Oacute
Encoding: 211 211 68
Width: 840
GlyphClass: 2
Flags: MW
HStem: -16 57<341.5 497.5 341.5 514> 607 57<341.5 498.5> 703 100<395 505 395 505>
VStem: 80 57<245.5 402.5 245.5 418> 703 57<245.5 402.5>
AnchorPoint: "Anchor-7" 420 803 basechar 0
AnchorPoint: "Anchor-6" 746 10 basechar 0
AnchorPoint: "Anchor-5" 420 0 basechar 0
LayerCount: 2
Fore
SplineSet
420 -16 m 0
 232 -16 80 136 80 324 c 0
 80 512 232 664 420 664 c 0
 608 664 760 512 760 324 c 0
 760 136 608 -16 420 -16 c 0
137 324 m 0
 137 167 263 41 420 41 c 0
 575 41 703 167 703 324 c 0
 703 481 577 607 420 607 c 0
 263 607 137 481 137 324 c 0
395 703 m 1
 451 803 l 1
 505 803 l 1
 449 703 l 1
 395 703 l 1
EndSplineSet
Substitution2: "'ss05' Style Set 5 in Latin lookup 13 subtable" Oacute.ss05
Substitution2: "'ss04' Style Set 4 in Latin lookup 12 subtable" Oacute.ss04
AlternateSubs2: "'aalt' Access All Alternates in Latin lookup 1 subtable" Oacute.ss04 Oacute.ss05
EndChar

StartChar: Ocircumflex
Encoding: 212 212 69
Width: 840
GlyphClass: 2
Flags: MW
HStem: -16 57<341.5 497.5 341.5 514> 607 57<341.5 498.5> 704 95<295 429 411 489 411 545>
VStem: 80 57<245.5 402.5 245.5 418> 703 57<245.5 402.5>
AnchorPoint: "Anchor-7" 420 799 basechar 0
AnchorPoint: "Anchor-6" 746 10 basechar 0
AnchorPoint: "Anchor-5" 420 0 basechar 0
LayerCount: 2
Fore
SplineSet
420 -16 m 0
 232 -16 80 136 80 324 c 0
 80 512 232 664 420 664 c 0
 608 664 760 512 760 324 c 0
 760 136 608 -16 420 -16 c 0
137 324 m 0
 137 167 263 41 420 41 c 0
 575 41 703 167 703 324 c 0
 703 481 577 607 420 607 c 0
 263 607 137 481 137 324 c 0
295 704 m 1
 411 799 l 1
 429 799 l 1
 545 704 l 1
 489 704 l 1
 420 763 l 1
 351 704 l 1
 295 704 l 1
EndSplineSet
Substitution2: "'ss05' Style Set 5 in Latin lookup 13 subtable" Ocircumflex.ss05
Substitution2: "'ss04' Style Set 4 in Latin lookup 12 subtable" Ocircumflex.ss04
AlternateSubs2: "'aalt' Access All Alternates in Latin lookup 1 subtable" Ocircumflex.ss04 Ocircumflex.ss05
EndChar

StartChar: Odieresis
Encoding: 214 214 70
Width: 840
GlyphClass: 2
Flags: MW
HStem: -16 57<341.5 497.5 341.5 514> 607 57<341.5 498.5> 728 72<329.5 350.5 489.5 510.5>
VStem: 80 57<245.5 402.5 245.5 418> 304 72<753.5 774.5> 464 72<753.5 774.5> 703 57<245.5 402.5>
AnchorPoint: "Anchor-7" 420 824 basechar 0
AnchorPoint: "Anchor-6" 746 10 basechar 0
AnchorPoint: "Anchor-5" 420 0 basechar 0
LayerCount: 2
Fore
SplineSet
420 -16 m 0
 232 -16 80 136 80 324 c 0
 80 512 232 664 420 664 c 0
 608 664 760 512 760 324 c 0
 760 136 608 -16 420 -16 c 0
137 324 m 0
 137 167 263 41 420 41 c 0
 575 41 703 167 703 324 c 0
 703 481 577 607 420 607 c 0
 263 607 137 481 137 324 c 0
304 764 m 0
 304 785 319 800 340 800 c 0
 361 800 376 785 376 764 c 0
 376 743 361 728 340 728 c 0
 319 728 304 743 304 764 c 0
464 764 m 0
 464 785 479 800 500 800 c 0
 521 800 536 785 536 764 c 0
 536 743 521 728 500 728 c 0
 479 728 464 743 464 764 c 0
EndSplineSet
Substitution2: "'ss05' Style Set 5 in Latin lookup 13 subtable" Odieresis.ss05
Substitution2: "'ss04' Style Set 4 in Latin lookup 12 subtable" Odieresis.ss04
AlternateSubs2: "'aalt' Access All Alternates in Latin lookup 1 subtable" Odieresis.ss04 Odieresis.ss05
EndChar

StartChar: Ograve
Encoding: 210 210 71
Width: 840
GlyphClass: 2
Flags: MW
HStem: -16 57<341.5 497.5 341.5 514> 607 57<341.5 498.5> 703 100<335 445 335 391>
VStem: 80 57<245.5 402.5 245.5 418> 703 57<245.5 402.5>
AnchorPoint: "Anchor-7" 420 803 basechar 0
AnchorPoint: "Anchor-6" 746 10 basechar 0
AnchorPoint: "Anchor-5" 420 0 basechar 0
LayerCount: 2
Fore
SplineSet
420 -16 m 0
 232 -16 80 136 80 324 c 0
 80 512 232 664 420 664 c 0
 608 664 760 512 760 324 c 0
 760 136 608 -16 420 -16 c 0
137 324 m 0
 137 167 263 41 420 41 c 0
 575 41 703 167 703 324 c 0
 703 481 577 607 420 607 c 0
 263 607 137 481 137 324 c 0
335 803 m 1
 389 803 l 1
 445 703 l 1
 391 703 l 1
 335 803 l 1
EndSplineSet
Substitution2: "'ss05' Style Set 5 in Latin lookup 13 subtable" Ograve.ss05
Substitution2: "'ss04' Style Set 4 in Latin lookup 12 subtable" Ograve.ss04
AlternateSubs2: "'aalt' Access All Alternates in Latin lookup 1 subtable" Ograve.ss04 Ograve.ss05
EndChar

StartChar: Ohungarumlaut
Encoding: 336 336 72
Width: 840
GlyphClass: 2
Flags: MW
HStem: -16 57<341.5 497.5 341.5 514> 607 57<341.5 498.5> 703 180<309 410 309 410 365 535 365 490>
VStem: 80 57<245.5 402.5 245.5 418> 703 57<245.5 402.5>
AnchorPoint: "Anchor-7" 420 883 basechar 0
AnchorPoint: "Anchor-6" 746 10 basechar 0
AnchorPoint: "Anchor-5" 420 0 basechar 0
LayerCount: 2
Fore
SplineSet
420 -16 m 0
 232 -16 80 136 80 324 c 0
 80 512 232 664 420 664 c 0
 608 664 760 512 760 324 c 0
 760 136 608 -16 420 -16 c 0
137 324 m 0
 137 167 263 41 420 41 c 0
 575 41 703 167 703 324 c 0
 703 481 577 607 420 607 c 0
 263 607 137 481 137 324 c 0
309 703 m 1
 365 883 l 1
 410 883 l 1
 354 703 l 1
 309 703 l 1
490 703 m 1
 546 883 l 1
 591 883 l 1
 535 703 l 1
 490 703 l 1
EndSplineSet
Substitution2: "'ss05' Style Set 5 in Latin lookup 13 subtable" Ohungarumlaut.ss05
Substitution2: "'ss04' Style Set 4 in Latin lookup 12 subtable" Ohungarumlaut.ss04
AlternateSubs2: "'aalt' Access All Alternates in Latin lookup 1 subtable" Ohungarumlaut.ss04 Ohungarumlaut.ss05
EndChar

StartChar: Omacron
Encoding: 332 332 73
Width: 840
GlyphClass: 2
Flags: MW
HStem: -16 57<341.5 497.5 341.5 514> 607 57<341.5 498.5> 743 38<255 585 255 585>
VStem: 80 57<245.5 402.5 245.5 418> 255 330<743 781 743 781> 703 57<245.5 402.5>
AnchorPoint: "Anchor-7" 420 781 basechar 0
AnchorPoint: "Anchor-6" 746 10 basechar 0
AnchorPoint: "Anchor-5" 420 0 basechar 0
LayerCount: 2
Fore
SplineSet
420 -16 m 0
 232 -16 80 136 80 324 c 0
 80 512 232 664 420 664 c 0
 608 664 760 512 760 324 c 0
 760 136 608 -16 420 -16 c 0
137 324 m 0
 137 167 263 41 420 41 c 0
 575 41 703 167 703 324 c 0
 703 481 577 607 420 607 c 0
 263 607 137 481 137 324 c 0
255 743 m 1
 255 781 l 1
 585 781 l 1
 585 743 l 1
 255 743 l 1
EndSplineSet
Substitution2: "'ss05' Style Set 5 in Latin lookup 13 subtable" Omacron.ss05
Substitution2: "'ss04' Style Set 4 in Latin lookup 12 subtable" Omacron.ss04
AlternateSubs2: "'aalt' Access All Alternates in Latin lookup 1 subtable" Omacron.ss04 Omacron.ss05
EndChar

StartChar: Oslash
Encoding: 216 216 74
Width: 860
GlyphClass: 1
Flags: MW
HStem: -16 55<398.5 509.5 398.5 524.5> 609 55<350.5 461>
VStem: 90 55<285.5 403.5 285.5 418.5> 715 55<244.5 363>
LayerCount: 2
Fore
SplineSet
115 0 m 1
 188 84 l 1
 127 146 90 230 90 324 c 0
 90 513 241 664 430 664 c 0
 506 664 576 640 632 598 c 1
 676 649 l 1
 744 649 l 1
 671 565 l 1
 732 503 770 418 770 324 c 0
 770 135 619 -16 430 -16 c 0
 354 -16 283 9 227 51 c 1
 183 0 l 1
 115 0 l 1
145 324 m 0
 145 247 175 177 224 126 c 1
 596 557 l 1
 550 590 492 609 430 609 c 0
 271 609 145 483 145 324 c 0
263 92 m 1
 310 59 367 39 430 39 c 0
 589 39 715 165 715 324 c 0
 715 402 685 472 635 523 c 1
 263 92 l 1
EndSplineSet
Substitution2: "'ss05' Style Set 5 in Latin lookup 13 subtable" Oslash.ss05
Substitution2: "'ss04' Style Set 4 in Latin lookup 12 subtable" Oslash.ss04
AlternateSubs2: "'aalt' Access All Alternates in Latin lookup 1 subtable" Oslash.ss04 Oslash.ss05
EndChar

StartChar: Otilde
Encoding: 213 213 75
Width: 840
GlyphClass: 2
Flags: MW
HStem: -16 57<341.5 497.5 341.5 514> 607 57<341.5 498.5> 699 35<464.5 500 464.5 509.5> 772 35<343.5 378.5>
VStem: 80 57<245.5 402.5 245.5 418> 278 35<703 723.5 703 734> 532 35<780 802> 703 57<245.5 402.5>
AnchorPoint: "Anchor-7" 420 804 basechar 0
AnchorPoint: "Anchor-6" 746 10 basechar 0
AnchorPoint: "Anchor-5" 420 0 basechar 0
LayerCount: 2
Fore
SplineSet
420 -16 m 0
 232 -16 80 136 80 324 c 0
 80 512 232 664 420 664 c 0
 608 664 760 512 760 324 c 0
 760 136 608 -16 420 -16 c 0
137 324 m 0
 137 167 263 41 420 41 c 0
 575 41 703 167 703 324 c 0
 703 481 577 607 420 607 c 0
 263 607 137 481 137 324 c 0
278 703 m 1
 278 765 312 807 357 807 c 0
 413 807 441 734 488 734 c 0
 512 734 532 758 532 802 c 1
 567 802 l 1
 567 738 531 699 488 699 c 0
 433 699 400 772 357 772 c 0
 330 772 313 744 313 703 c 1
 278 703 l 1
EndSplineSet
Substitution2: "'ss05' Style Set 5 in Latin lookup 13 subtable" Otilde.ss05
Substitution2: "'ss04' Style Set 4 in Latin lookup 12 subtable" Otilde.ss04
AlternateSubs2: "'aalt' Access All Alternates in Latin lookup 1 subtable" Otilde.ss04 Otilde.ss05
EndChar

StartChar: OE
Encoding: 338 338 76
Width: 825
GlyphClass: 1
Flags: MW
HStem: 0 53<300.5 448 399 448 399 729> 0 55<502 729 502 729> 297 54<502 679 502 679> 595 55<502 729 502 502> 597 53<395 399 399 448>
VStem: 80 55<244 406.5 244 422> 448 54<55 297 351 595> 448 231<297 351 297 597> 448 281<53 55 595 597 597 597>
LayerCount: 2
Fore
SplineSet
448 597 m 1xae
 399 597 l 2
 241 597 135 488 135 325 c 0
 135 163 240 53 399 53 c 2
 448 53 l 1
 448 597 l 1xae
80 325 m 0x7480
 80 519 206 650 395 650 c 2
 729 650 l 1
 729 595 l 1x7480
 502 595 l 1
 502 351 l 1x76
 679 351 l 1
 679 297 l 1x75
 502 297 l 1
 502 55 l 1x76
 729 55 l 1
 729 0 l 1
 395 0 l 2
 206 0 80 130 80 325 c 0x7480
EndSplineSet
EndChar

StartChar: P
Encoding: 80 80 77
Width: 605
GlyphClass: 2
Flags: MW
HStem: 214 53<167 318 318 320 167 318> 597 53<167 318 167 167>
VStem: 112 55<0 214 267 597> 480 55<382.5 481.5>
AnchorPoint: "Anchor-7" 313 650 basechar 0
AnchorPoint: "Anchor-5" 313 0 basechar 0
LayerCount: 2
Fore
SplineSet
112 650 m 1
 320 650 l 2
 449 650 535 563 535 432 c 0
 535 301 449 214 320 214 c 2
 167 214 l 1
 167 0 l 1
 112 0 l 1
 112 650 l 1
167 267 m 1
 318 267 l 2
 416 267 480 333 480 432 c 0
 480 531 416 597 318 597 c 2
 167 597 l 1
 167 267 l 1
EndSplineSet
EndChar

StartChar: Thorn
Encoding: 222 222 78
Width: 600
GlyphClass: 2
Flags: MW
HStem: 113 55<167 315 315 320 167 315> 494 55<167 315 167 320>
VStem: 112 55<0 113 168 494 549 701> 480 55<281 381>
AnchorPoint: "Anchor-7" 313 649 basechar 0
AnchorPoint: "Anchor-5" 313 0 basechar 0
LayerCount: 2
Fore
SplineSet
112 0 m 1
 112 701 l 1
 167 701 l 1
 167 549 l 1
 320 549 l 2
 449 549 535 462 535 331 c 0
 535 200 449 113 320 113 c 2
 167 113 l 1
 167 0 l 1
 112 0 l 1
167 168 m 1
 315 168 l 2
 416 168 480 231 480 331 c 0
 480 431 416 494 315 494 c 2
 167 494 l 1
 167 168 l 1
EndSplineSet
EndChar

StartChar: Q
Encoding: 81 81 79
Width: 875
GlyphClass: 2
Flags: MW
HStem: -16 57<341.5 451.5 341.5 459.5> 607 57<341.5 498.5>
VStem: 80 57<245.5 402.5 245.5 418> 703 57<287 402.5>
AnchorPoint: "Anchor-7" 420 664 basechar 0
AnchorPoint: "Anchor-5" 420 -16 basechar 0
LayerCount: 2
Fore
SplineSet
685 0 m 1
 630 56 l 1
 572 11 499 -16 420 -16 c 0
 232 -16 80 136 80 324 c 0
 80 512 232 664 420 664 c 0
 608 664 760 512 760 324 c 0
 760 233 725 151 667 90 c 1
 754 0 l 1
 685 0 l 1
137 324 m 0
 137 167 263 41 420 41 c 0
 483 41 542 62 590 98 c 1
 469 221 l 1
 536 227 l 1
 627 132 l 1
 674 182 703 250 703 324 c 0
 703 481 577 607 420 607 c 0
 263 607 137 481 137 324 c 0
EndSplineSet
Substitution2: "'ss05' Style Set 5 in Latin lookup 13 subtable" Q.ss05
Substitution2: "'ss04' Style Set 4 in Latin lookup 12 subtable" Q.ss04
AlternateSubs2: "'aalt' Access All Alternates in Latin lookup 1 subtable" Q.ss04 Q.ss05
EndChar

StartChar: R
Encoding: 82 82 80
Width: 617
GlyphClass: 2
Flags: MW
HStem: 214 53<167 313 313 315 167 313> 597 53<167 313 167 167>
VStem: 112 55<0 214 267 597> 475 55<382.5 481.5>
AnchorPoint: "Anchor-7" 289 649 basechar 0
AnchorPoint: "Anchor-5" 319 0 basechar 0
LayerCount: 2
Fore
SplineSet
439 0 m 1
 333 215 l 1
 327 214 321 214 315 214 c 2
 167 214 l 1
 167 0 l 1
 112 0 l 1
 112 650 l 1
 315 650 l 2
 444 650 530 563 530 432 c 0
 530 327 475 250 386 224 c 1
 496 0 l 1
 439 0 l 1
167 267 m 1
 313 267 l 2
 411 267 475 333 475 432 c 0
 475 531 411 597 313 597 c 2
 167 597 l 1
 167 267 l 1
EndSplineSet
EndChar

StartChar: Racute
Encoding: 340 340 81
Width: 617
GlyphClass: 2
Flags: MW
HStem: 214 53<167 313 313 315 167 313> 597 53<167 313 167 167> 704 100<264 374 264 374>
VStem: 112 55<0 214 267 597> 475 55<382.5 481.5>
AnchorPoint: "Anchor-7" 289 804 basechar 0
AnchorPoint: "Anchor-5" 319 0 basechar 0
LayerCount: 2
Fore
SplineSet
439 0 m 1
 333 215 l 1
 327 214 321 214 315 214 c 2
 167 214 l 1
 167 0 l 1
 112 0 l 1
 112 650 l 1
 315 650 l 2
 444 650 530 563 530 432 c 0
 530 327 475 250 386 224 c 1
 496 0 l 1
 439 0 l 1
167 267 m 1
 313 267 l 2
 411 267 475 333 475 432 c 0
 475 531 411 597 313 597 c 2
 167 597 l 1
 167 267 l 1
264 704 m 1
 320 804 l 1
 374 804 l 1
 318 704 l 1
 264 704 l 1
EndSplineSet
EndChar

StartChar: Rcaron
Encoding: 344 344 82
Width: 617
GlyphClass: 2
Flags: MW
HStem: 214 53<167 313 313 315 167 313> 597 53<167 313 167 167> 597 206<167 220 164 313 167 167> 708 95<164 298 164 280>
VStem: 112 55<0 214 267 597> 475 55<382.5 481.5>
AnchorPoint: "Anchor-7" 289 799 basechar 0
AnchorPoint: "Anchor-5" 319 0 basechar 0
LayerCount: 2
Fore
SplineSet
439 0 m 1xcc
 333 215 l 1
 327 214 321 214 315 214 c 2
 167 214 l 1
 167 0 l 1
 112 0 l 1
 112 650 l 1
 315 650 l 2
 444 650 530 563 530 432 c 0
 530 327 475 250 386 224 c 1
 496 0 l 1
 439 0 l 1xcc
164 803 m 1xac
 220 803 l 1
 289 744 l 1
 358 803 l 1
 414 803 l 1xac
 298 708 l 1
 280 708 l 1xdc
 164 803 l 1xac
167 267 m 1
 313 267 l 2
 411 267 475 333 475 432 c 0
 475 531 411 597 313 597 c 2
 167 597 l 1xcc
 167 267 l 1
EndSplineSet
EndChar

StartChar: uni0156
Encoding: 342 342 83
Width: 617
GlyphClass: 2
Flags: MW
HStem: 214 53<167 313 313 315 167 313> 597 53<167 313 167 167>
VStem: 112 55<0 214 267 597> 475 55<382.5 481.5>
AnchorPoint: "Anchor-7" 289 649 basechar 0
AnchorPoint: "Anchor-5" 279 -204 basechar 0
LayerCount: 2
Fore
SplineSet
439 0 m 1
 333 215 l 1
 327 214 321 214 315 214 c 2
 167 214 l 1
 167 0 l 1
 112 0 l 1
 112 650 l 1
 315 650 l 2
 444 650 530 563 530 432 c 0
 530 327 475 250 386 224 c 1
 496 0 l 1
 439 0 l 1
167 267 m 1
 313 267 l 2
 411 267 475 333 475 432 c 0
 475 531 411 597 313 597 c 2
 167 597 l 1
 167 267 l 1
225 -204 m 1
 297 -50 l 1
 338 -50 l 1
 266 -204 l 1
 225 -204 l 1
EndSplineSet
EndChar

StartChar: S
Encoding: 83 83 84
Width: 560
GlyphClass: 2
Flags: MW
HStem: 0 53<128 269 128 269 269 273> 250 53<215.5 294 289 294 289 294> 347 52<266 271 266 273> 597 53<287 291 291 393>
VStem: 72 55<409.5 487.5 409.5 497.5> 266 28 433 55<162.5 240>
AnchorPoint: "Anchor-7" 280 650 basechar 0
AnchorPoint: "Anchor-5" 280 0 basechar 0
LayerCount: 2
Fore
SplineSet
128 0 m 1
 128 53 l 1
 269 53 l 2
 376 53 433 123 433 202 c 0
 433 278 377 347 271 347 c 2
 266 347 l 1
 266 399 l 1
 273 399 l 2
 417 399 488 303 488 203 c 0
 488 102 415 0 273 0 c 2
 128 0 l 1
72 447 m 0
 72 548 144 650 287 650 c 2
 393 650 l 1
 393 597 l 1
 291 597 l 2
 184 597 127 527 127 448 c 0
 127 371 184 303 289 303 c 2
 294 303 l 1
 294 250 l 1
 287 250 l 2
 144 250 72 346 72 447 c 0
EndSplineSet
EndChar

StartChar: Sacute
Encoding: 346 346 85
Width: 560
GlyphClass: 2
Flags: MW
HStem: 0 53<128 269 128 269 269 273> 250 53<215.5 294 289 294 289 294> 347 52<266 271 266 273> 597 53<287 291 291 393> 705 100<255 365 255 365>
VStem: 72 55<409.5 487.5 409.5 497.5> 266 28 433 55<162.5 240>
AnchorPoint: "Anchor-7" 280 805 basechar 0
AnchorPoint: "Anchor-5" 280 0 basechar 0
LayerCount: 2
Fore
SplineSet
128 0 m 1
 128 53 l 1
 269 53 l 2
 376 53 433 123 433 202 c 0
 433 278 377 347 271 347 c 2
 266 347 l 1
 266 399 l 1
 273 399 l 2
 417 399 488 303 488 203 c 0
 488 102 415 0 273 0 c 2
 128 0 l 1
72 447 m 0
 72 548 144 650 287 650 c 2
 393 650 l 1
 393 597 l 1
 291 597 l 2
 184 597 127 527 127 448 c 0
 127 371 184 303 289 303 c 2
 294 303 l 1
 294 250 l 1
 287 250 l 2
 144 250 72 346 72 447 c 0
255 705 m 1
 311 805 l 1
 365 805 l 1
 309 705 l 1
 255 705 l 1
EndSplineSet
EndChar

StartChar: Scaron
Encoding: 352 352 86
Width: 560
GlyphClass: 2
Flags: MW
HStem: 0 53<128 269 128 269 269 273> 250 53<215.5 294 289 294 289 294> 347 52<266 271 266 273> 597 53<287 291 291 393> 709 95<155 289 155 271>
VStem: 72 55<409.5 487.5 409.5 497.5> 266 28 433 55<162.5 240>
AnchorPoint: "Anchor-7" 280 800 basechar 0
AnchorPoint: "Anchor-5" 280 0 basechar 0
LayerCount: 2
Fore
SplineSet
128 0 m 1
 128 53 l 1
 269 53 l 2
 376 53 433 123 433 202 c 0
 433 278 377 347 271 347 c 2
 266 347 l 1
 266 399 l 1
 273 399 l 2
 417 399 488 303 488 203 c 0
 488 102 415 0 273 0 c 2
 128 0 l 1
72 447 m 0
 72 548 144 650 287 650 c 2
 393 650 l 1
 393 597 l 1
 291 597 l 2
 184 597 127 527 127 448 c 0
 127 371 184 303 289 303 c 2
 294 303 l 1
 294 250 l 1
 287 250 l 2
 144 250 72 346 72 447 c 0
155 804 m 1
 211 804 l 1
 280 745 l 1
 349 804 l 1
 405 804 l 1
 289 709 l 1
 271 709 l 1
 155 804 l 1
EndSplineSet
EndChar

StartChar: Scedilla
Encoding: 350 350 87
Width: 560
GlyphClass: 2
Flags: MW
HStem: -235 39<259 277.5 259 289.5> -75 38<259 277.5> 0 53<128 269 128 269 269 273> 250 53<215.5 294 289 294 289 294> 347 52<266 271 266 273> 597 53<287 291 291 393>
VStem: 72 55<409.5 487.5 409.5 497.5> 266 28 321 39<-154 -118> 433 55<162.5 240>
AnchorPoint: "Anchor-7" 280 650 basechar 0
AnchorPoint: "Anchor-5" 259 -235 basechar 0
LayerCount: 2
Fore
SplineSet
128 0 m 1
 128 53 l 1
 269 53 l 2
 376 53 433 123 433 202 c 0
 433 278 377 347 271 347 c 2
 266 347 l 1xffc0
 266 399 l 1
 273 399 l 2
 417 399 488 303 488 203 c 0
 488 102 415 0 273 0 c 2
 128 0 l 1
72 447 m 0
 72 548 144 650 287 650 c 2
 393 650 l 1
 393 597 l 1
 291 597 l 2
 184 597 127 527 127 448 c 0
 127 371 184 303 289 303 c 2
 294 303 l 1
 294 250 l 1
 287 250 l 2
 144 250 72 346 72 447 c 0
259 -235 m 1
 259 -196 l 1
 296 -196 321 -172 321 -136 c 0
 321 -100 296 -75 259 -75 c 1
 259 -37 l 1
 320 -37 360 -77 360 -136 c 0xfec0
 360 -195 320 -235 259 -235 c 1
EndSplineSet
Substitution2: "'locl' Localized Forms in Latin lookup 4 subtable" uni0218
Substitution2: "'aalt' Access All Alternates in Latin lookup 0 subtable" uni0218
EndChar

StartChar: uni0218
Encoding: 536 536 88
Width: 560
GlyphClass: 2
Flags: MW
HStem: 0 53<128 269 128 269 269 273> 250 53<215.5 294 289 294 289 294> 347 52<266 271 266 273> 597 53<287 291 291 393>
VStem: 72 55<409.5 487.5 409.5 497.5> 266 28 433 55<162.5 240>
AnchorPoint: "Anchor-7" 280 650 basechar 0
AnchorPoint: "Anchor-5" 240 -204 basechar 0
LayerCount: 2
Fore
SplineSet
128 0 m 1
 128 53 l 1
 269 53 l 2
 376 53 433 123 433 202 c 0
 433 278 377 347 271 347 c 2
 266 347 l 1
 266 399 l 1
 273 399 l 2
 417 399 488 303 488 203 c 0
 488 102 415 0 273 0 c 2
 128 0 l 1
72 447 m 0
 72 548 144 650 287 650 c 2
 393 650 l 1
 393 597 l 1
 291 597 l 2
 184 597 127 527 127 448 c 0
 127 371 184 303 289 303 c 2
 294 303 l 1
 294 250 l 1
 287 250 l 2
 144 250 72 346 72 447 c 0
186 -204 m 1
 258 -50 l 1
 299 -50 l 1
 227 -204 l 1
 186 -204 l 1
EndSplineSet
EndChar

StartChar: uni1E9E
Encoding: 7838 7838 89
Width: 615
GlyphClass: 1
Flags: MW
HStem: 0 53<290 347 290 347 347 349> 597 53<274 493 274 416>
VStem: 112 55<0 475 0 528> 510 55<173.5 263.5>
LayerCount: 2
Fore
SplineSet
274 597 m 2
 210 599 167 549 167 475 c 2
 167 0 l 1
 112 0 l 1
 112 475 l 2
 112 581 176 650 274 650 c 2
 493 650 l 1
 400 428 l 1
 497 406 565 321 565 218 c 0
 565 96 470 0 349 0 c 2
 290 0 l 1
 290 53 l 1
 347 53 l 2
 442 53 510 129 510 218 c 0
 510 309 445 379 350 381 c 2
 325 381 l 1
 416 597 l 1
 274 597 l 2
EndSplineSet
EndChar

StartChar: T
Encoding: 84 84 90
Width: 535
GlyphClass: 2
Flags: MW
HStem: 597 53<50 485 50 241 295 295 295 485>
VStem: 241 54<0 597 0 597>
AnchorPoint: "Anchor-7" 268 650 basechar 0
AnchorPoint: "Anchor-5" 268 0 basechar 0
LayerCount: 2
Fore
SplineSet
50 597 m 1
 50 650 l 1
 485 650 l 1
 485 597 l 1
 295 597 l 1
 295 0 l 1
 241 0 l 1
 241 597 l 1
 50 597 l 1
EndSplineSet
EndChar

StartChar: Tbar
Encoding: 358 358 91
Width: 535
GlyphClass: 2
Flags: MW
HStem: 253 46<113 241 113 241 295 423> 597 53<50 241 50 485 295 295 295 485>
VStem: 113 182<0 299 0 299> 241 54<0 253 0 253 299 597> 241 182<0 299 253 299 253 597>
AnchorPoint: "Anchor-7" 268 650 basechar 0
AnchorPoint: "Anchor-5" 268 0 basechar 0
LayerCount: 2
Fore
SplineSet
113 299 m 1xe0
 241 299 l 1
 241 597 l 1
 50 597 l 1
 50 650 l 1
 485 650 l 1
 485 597 l 1
 295 597 l 1
 295 299 l 1xd0
 423 299 l 1
 423 253 l 1xc8
 295 253 l 1
 295 0 l 1
 241 0 l 1
 241 253 l 1xd0
 113 253 l 1
 113 299 l 1xe0
EndSplineSet
EndChar

StartChar: Tcaron
Encoding: 356 356 92
Width: 535
GlyphClass: 2
Flags: MW
HStem: 597 53<50 485 50 241 295 295 295 485> 597 207<50 199 143 199 143 241 143 295 337 393 143 485> 709 95<143 277 143 259>
VStem: 241 54<0 597 0 597>
AnchorPoint: "Anchor-7" 268 800 basechar 0
AnchorPoint: "Anchor-5" 268 0 basechar 0
LayerCount: 2
Fore
SplineSet
50 597 m 1x90
 50 650 l 1
 485 650 l 1
 485 597 l 1
 295 597 l 1
 295 0 l 1
 241 0 l 1
 241 597 l 1
 50 597 l 1x90
143 804 m 1x50
 199 804 l 1
 268 745 l 1
 337 804 l 1
 393 804 l 1x50
 277 709 l 1
 259 709 l 1xb0
 143 804 l 1x50
EndSplineSet
EndChar

StartChar: uni0162
Encoding: 354 354 93
Width: 535
GlyphClass: 2
Flags: MW
HStem: -235 39<247 265.5 247 277.5> -75 38<247 265.5> 597 53<50 485 50 241 295 295 295 485>
VStem: 241 54<0 597 0 597> 247 48<-75 597 -37 597> 309 39<-154 -118>
AnchorPoint: "Anchor-7" 268 650 basechar 0
AnchorPoint: "Anchor-5" 247 -235 basechar 0
LayerCount: 2
Fore
SplineSet
50 597 m 1xf0
 50 650 l 1
 485 650 l 1
 485 597 l 1
 295 597 l 1
 295 0 l 1
 241 0 l 1
 241 597 l 1
 50 597 l 1xf0
247 -235 m 1
 247 -196 l 1
 284 -196 309 -172 309 -136 c 0xf4
 309 -100 284 -75 247 -75 c 1
 247 -37 l 1xe8
 308 -37 348 -77 348 -136 c 0xf4
 348 -195 308 -235 247 -235 c 1
EndSplineSet
Substitution2: "'locl' Localized Forms in Latin lookup 4 subtable" uni021A
Substitution2: "'aalt' Access All Alternates in Latin lookup 0 subtable" uni021A
EndChar

StartChar: uni021A
Encoding: 538 538 94
Width: 535
GlyphClass: 2
Flags: MW
HStem: 597 53<50 485 50 241 295 295 295 485>
VStem: 241 54<0 597 0 597>
AnchorPoint: "Anchor-7" 268 650 basechar 0
AnchorPoint: "Anchor-5" 228 -204 basechar 0
LayerCount: 2
Fore
SplineSet
50 597 m 1
 50 650 l 1
 485 650 l 1
 485 597 l 1
 295 597 l 1
 295 0 l 1
 241 0 l 1
 241 597 l 1
 50 597 l 1
174 -204 m 1
 246 -50 l 1
 287 -50 l 1
 215 -204 l 1
 174 -204 l 1
EndSplineSet
EndChar

StartChar: U
Encoding: 85 85 95
Width: 690
GlyphClass: 2
Flags: MW
HStem: -12 54<290.5 399.5 290.5 412.5>
VStem: 112 55<211 215 215 650> 523 55<215 650>
AnchorPoint: "Anchor-7" 345 649 basechar 0
AnchorPoint: "Anchor-6" 397 0 basechar 0
AnchorPoint: "Anchor-5" 345 0 basechar 0
LayerCount: 2
Fore
SplineSet
345 42 m 0
 454 42 523 110 523 215 c 2
 523 650 l 1
 578 650 l 1
 578 211 l 2
 578 70 480 -12 345 -12 c 0
 210 -12 112 70 112 211 c 2
 112 650 l 1
 167 650 l 1
 167 215 l 2
 167 110 236 42 345 42 c 0
EndSplineSet
EndChar

StartChar: Uacute
Encoding: 218 218 96
Width: 690
GlyphClass: 2
Flags: MW
HStem: -12 54<290.5 399.5 290.5 412.5> 704 100<320 430 320 430>
VStem: 112 55<211 215 215 650> 523 55<215 650>
AnchorPoint: "Anchor-7" 345 804 basechar 0
AnchorPoint: "Anchor-6" 397 0 basechar 0
AnchorPoint: "Anchor-5" 345 0 basechar 0
LayerCount: 2
Fore
SplineSet
345 42 m 0
 454 42 523 110 523 215 c 2
 523 650 l 1
 578 650 l 1
 578 211 l 2
 578 70 480 -12 345 -12 c 0
 210 -12 112 70 112 211 c 2
 112 650 l 1
 167 650 l 1
 167 215 l 2
 167 110 236 42 345 42 c 0
320 704 m 1
 376 804 l 1
 430 804 l 1
 374 704 l 1
 320 704 l 1
EndSplineSet
EndChar

StartChar: Ucircumflex
Encoding: 219 219 97
Width: 690
GlyphClass: 2
Flags: MW
HStem: -12 54<290.5 399.5 290.5 412.5> 705 95<220 354 336 414 336 470>
VStem: 112 55<211 215 215 650> 523 55<215 650>
AnchorPoint: "Anchor-7" 345 800 basechar 0
AnchorPoint: "Anchor-6" 397 0 basechar 0
AnchorPoint: "Anchor-5" 345 0 basechar 0
LayerCount: 2
Fore
SplineSet
345 42 m 0
 454 42 523 110 523 215 c 2
 523 650 l 1
 578 650 l 1
 578 211 l 2
 578 70 480 -12 345 -12 c 0
 210 -12 112 70 112 211 c 2
 112 650 l 1
 167 650 l 1
 167 215 l 2
 167 110 236 42 345 42 c 0
220 705 m 1
 336 800 l 1
 354 800 l 1
 470 705 l 1
 414 705 l 1
 345 764 l 1
 276 705 l 1
 220 705 l 1
EndSplineSet
EndChar

StartChar: Udieresis
Encoding: 220 220 98
Width: 690
GlyphClass: 2
Flags: MW
HStem: -12 54<290.5 399.5 290.5 412.5> 729 72<254.5 275.5 414.5 435.5>
VStem: 112 55<211 215 215 650> 229 72<754.5 775.5> 389 72<754.5 775.5> 523 55<215 650>
AnchorPoint: "Anchor-7" 345 825 basechar 0
AnchorPoint: "Anchor-6" 397 0 basechar 0
AnchorPoint: "Anchor-5" 345 0 basechar 0
LayerCount: 2
Fore
SplineSet
345 42 m 0
 454 42 523 110 523 215 c 2
 523 650 l 1
 578 650 l 1
 578 211 l 2
 578 70 480 -12 345 -12 c 0
 210 -12 112 70 112 211 c 2
 112 650 l 1
 167 650 l 1
 167 215 l 2
 167 110 236 42 345 42 c 0
229 765 m 0
 229 786 244 801 265 801 c 0
 286 801 301 786 301 765 c 0
 301 744 286 729 265 729 c 0
 244 729 229 744 229 765 c 0
389 765 m 0
 389 786 404 801 425 801 c 0
 446 801 461 786 461 765 c 0
 461 744 446 729 425 729 c 0
 404 729 389 744 389 765 c 0
EndSplineSet
EndChar

StartChar: Ugrave
Encoding: 217 217 99
Width: 690
GlyphClass: 2
Flags: MW
HStem: -12 54<290.5 399.5 290.5 412.5> 704 100<260 370 260 316>
VStem: 112 55<211 215 215 650> 523 55<215 650>
AnchorPoint: "Anchor-7" 345 804 basechar 0
AnchorPoint: "Anchor-6" 397 0 basechar 0
AnchorPoint: "Anchor-5" 345 0 basechar 0
LayerCount: 2
Fore
SplineSet
345 42 m 0
 454 42 523 110 523 215 c 2
 523 650 l 1
 578 650 l 1
 578 211 l 2
 578 70 480 -12 345 -12 c 0
 210 -12 112 70 112 211 c 2
 112 650 l 1
 167 650 l 1
 167 215 l 2
 167 110 236 42 345 42 c 0
260 804 m 1
 314 804 l 1
 370 704 l 1
 316 704 l 1
 260 804 l 1
EndSplineSet
EndChar

StartChar: Uhungarumlaut
Encoding: 368 368 100
Width: 690
GlyphClass: 2
Flags: MW
HStem: -12 54<290.5 399.5 290.5 412.5> 704 180<234 335 234 335 290 460 290 415>
VStem: 112 55<211 215 215 650> 523 55<215 650>
AnchorPoint: "Anchor-7" 345 884 basechar 0
AnchorPoint: "Anchor-6" 397 0 basechar 0
AnchorPoint: "Anchor-5" 345 0 basechar 0
LayerCount: 2
Fore
SplineSet
345 42 m 0
 454 42 523 110 523 215 c 2
 523 650 l 1
 578 650 l 1
 578 211 l 2
 578 70 480 -12 345 -12 c 0
 210 -12 112 70 112 211 c 2
 112 650 l 1
 167 650 l 1
 167 215 l 2
 167 110 236 42 345 42 c 0
234 704 m 1
 290 884 l 1
 335 884 l 1
 279 704 l 1
 234 704 l 1
415 704 m 1
 471 884 l 1
 516 884 l 1
 460 704 l 1
 415 704 l 1
EndSplineSet
EndChar

StartChar: Umacron
Encoding: 362 362 101
Width: 690
GlyphClass: 2
Flags: MW
HStem: -12 54<290.5 399.5 290.5 412.5> 744 38<180 510 180 510>
VStem: 112 55<211 215 215 650> 180 330<744 782 744 782> 523 55<215 650>
AnchorPoint: "Anchor-7" 345 783 basechar 0
AnchorPoint: "Anchor-6" 397 0 basechar 0
AnchorPoint: "Anchor-5" 345 0 basechar 0
LayerCount: 2
Fore
SplineSet
345 42 m 0
 454 42 523 110 523 215 c 2
 523 650 l 1
 578 650 l 1
 578 211 l 2
 578 70 480 -12 345 -12 c 0
 210 -12 112 70 112 211 c 2
 112 650 l 1
 167 650 l 1
 167 215 l 2
 167 110 236 42 345 42 c 0
180 744 m 1xf8
 180 782 l 1
 510 782 l 1
 510 744 l 1
 180 744 l 1xf8
EndSplineSet
EndChar

StartChar: Uogonek
Encoding: 370 370 102
Width: 690
GlyphClass: 2
Flags: MW
HStem: -200 39<342 501 342 501> -12 54<290.5 349.5>
VStem: 112 55<211 215 215 650> 523 55<215 650>
AnchorPoint: "Anchor-7" 345 649 basechar 0
AnchorPoint: "Anchor-6" 397 0 basechar 0
AnchorPoint: "Anchor-5" 345 0 basechar 0
LayerCount: 2
Fore
SplineSet
345 42 m 0
 454 42 523 110 523 215 c 2
 523 650 l 1
 578 650 l 1
 578 211 l 2
 578 96 513 21 416 -4 c 1
 342 -161 l 1
 501 -161 l 1
 501 -200 l 1
 283 -200 l 1
 372 -11 l 1
 363 -12 354 -12 345 -12 c 0
 210 -12 112 70 112 211 c 2
 112 650 l 1
 167 650 l 1
 167 215 l 2
 167 110 236 42 345 42 c 0
EndSplineSet
EndChar

StartChar: Uring
Encoding: 366 366 103
Width: 690
GlyphClass: 2
Flags: MW
HStem: -12 54<290.5 399.5 290.5 412.5> 698 26<331 360 331 367> 829 27<331 360>
VStem: 112 55<211 215 215 650> 266 27<762.5 791.5 762.5 799> 397 28<777 777> 523 55<215 650>
AnchorPoint: "Anchor-7" 345 857 basechar 0
AnchorPoint: "Anchor-6" 397 0 basechar 0
AnchorPoint: "Anchor-5" 345 0 basechar 0
LayerCount: 2
Fore
SplineSet
345 42 m 0
 454 42 523 110 523 215 c 2
 523 650 l 1
 578 650 l 1
 578 211 l 2
 578 70 480 -12 345 -12 c 0
 210 -12 112 70 112 211 c 2
 112 650 l 1
 167 650 l 1
 167 215 l 2
 167 110 236 42 345 42 c 0
266 777 m 0
 266 821 300 856 345 856 c 0
 389 856 425 821 425 777 c 0
 425 733 389 698 345 698 c 0
 300 698 266 733 266 777 c 0
293 777 m 0
 293 748 317 724 345 724 c 0
 375 724 398 748 397 777 c 0
 398 806 375 829 345 829 c 0
 317 829 293 806 293 777 c 0
EndSplineSet
EndChar

StartChar: Utilde
Encoding: 360 360 104
Width: 690
GlyphClass: 2
Flags: MW
HStem: -12 54<290.5 399.5 290.5 412.5> 700 35<389.5 425 389.5 434.5> 773 35<268.5 303.5>
VStem: 112 55<211 215 215 650> 203 35<704 724.5 704 735> 457 35<781 803> 523 55<215 650>
AnchorPoint: "Anchor-7" 345 805 basechar 0
AnchorPoint: "Anchor-6" 397 0 basechar 0
AnchorPoint: "Anchor-5" 345 0 basechar 0
LayerCount: 2
Fore
SplineSet
345 42 m 0
 454 42 523 110 523 215 c 2
 523 650 l 1
 578 650 l 1
 578 211 l 2
 578 70 480 -12 345 -12 c 0
 210 -12 112 70 112 211 c 2
 112 650 l 1
 167 650 l 1
 167 215 l 2
 167 110 236 42 345 42 c 0
203 704 m 1
 203 766 237 808 282 808 c 0
 338 808 366 735 413 735 c 0
 437 735 457 759 457 803 c 1
 492 803 l 1
 492 739 456 700 413 700 c 0
 358 700 325 773 282 773 c 0
 255 773 238 745 238 704 c 1
 203 704 l 1
EndSplineSet
EndChar

StartChar: V
Encoding: 86 86 105
Width: 640
GlyphClass: 2
Flags: MW
HStem: 0 48<304 341 304 378 266 341>
VStem: 50 540<650 650>
AnchorPoint: "Anchor-7" 320 650 basechar 0
AnchorPoint: "Anchor-5" 320 0 basechar 0
LayerCount: 2
Fore
SplineSet
590 650 m 1
 378 0 l 1
 266 0 l 1
 50 650 l 1
 106 650 l 1
 304 48 l 1
 341 48 l 1
 537 650 l 1
 590 650 l 1
EndSplineSet
EndChar

StartChar: W
Encoding: 87 87 106
Width: 880
GlyphClass: 2
Flags: MW
HStem: 0 48<270 342 305 342 305 374 542 579>
VStem: 50 780<650 650>
AnchorPoint: "Anchor-7" 440 650 basechar 0
AnchorPoint: "Anchor-5" 440 0 basechar 0
LayerCount: 2
Fore
SplineSet
270 0 m 1
 50 650 l 1
 105 650 l 1
 305 48 l 1
 342 48 l 1
 416 286 l 1
 298 650 l 1
 351 650 l 1
 441 366 l 1
 530 650 l 1
 582 650 l 1
 466 288 l 1
 542 48 l 1
 579 48 l 1
 777 650 l 1
 830 650 l 1
 614 0 l 1
 509 0 l 1
 441 209 l 1
 374 0 l 1
 270 0 l 1
EndSplineSet
Substitution2: "'ss03' Style Set 3 in Latin lookup 11 subtable" W.ss03
Substitution2: "'aalt' Access All Alternates in Latin lookup 0 subtable" W.ss03
EndChar

StartChar: Wacute
Encoding: 7810 7810 107
Width: 880
GlyphClass: 2
Flags: MW
HStem: 0 48<270 342 305 342 305 374 542 579> 705 100<415 525 415 525>
VStem: 50 780<650 650>
AnchorPoint: "Anchor-7" 440 805 basechar 0
AnchorPoint: "Anchor-5" 440 0 basechar 0
LayerCount: 2
Fore
SplineSet
270 0 m 1
 50 650 l 1
 105 650 l 1
 305 48 l 1
 342 48 l 1
 416 286 l 1
 298 650 l 1
 351 650 l 1
 441 366 l 1
 530 650 l 1
 582 650 l 1
 466 288 l 1
 542 48 l 1
 579 48 l 1
 777 650 l 1
 830 650 l 1
 614 0 l 1
 509 0 l 1
 441 209 l 1
 374 0 l 1
 270 0 l 1
415 705 m 1
 471 805 l 1
 525 805 l 1
 469 705 l 1
 415 705 l 1
EndSplineSet
Substitution2: "'ss03' Style Set 3 in Latin lookup 11 subtable" Wacute.ss03
Substitution2: "'aalt' Access All Alternates in Latin lookup 0 subtable" Wacute.ss03
EndChar

StartChar: Wcircumflex
Encoding: 372 372 108
Width: 880
GlyphClass: 2
Flags: MW
HStem: 0 48<270 342 305 342 305 374 542 579> 706 95<315 449 431 509 431 565>
VStem: 50 780<650 650>
AnchorPoint: "Anchor-7" 440 801 basechar 0
AnchorPoint: "Anchor-5" 440 0 basechar 0
LayerCount: 2
Fore
SplineSet
270 0 m 1
 50 650 l 1
 105 650 l 1
 305 48 l 1
 342 48 l 1
 416 286 l 1
 298 650 l 1
 351 650 l 1
 441 366 l 1
 530 650 l 1
 582 650 l 1
 466 288 l 1
 542 48 l 1
 579 48 l 1
 777 650 l 1
 830 650 l 1
 614 0 l 1
 509 0 l 1
 441 209 l 1
 374 0 l 1
 270 0 l 1
315 706 m 1
 431 801 l 1
 449 801 l 1
 565 706 l 1
 509 706 l 1
 440 765 l 1
 371 706 l 1
 315 706 l 1
EndSplineSet
Substitution2: "'ss03' Style Set 3 in Latin lookup 11 subtable" Wcircumflex.ss03
Substitution2: "'aalt' Access All Alternates in Latin lookup 0 subtable" Wcircumflex.ss03
EndChar

StartChar: Wdieresis
Encoding: 7812 7812 109
Width: 880
GlyphClass: 2
Flags: MW
HStem: 0 48<270 342 305 342 305 374 542 579> 730 72<349.5 370.5 509.5 530.5>
VStem: 324 72<755.5 776.5> 484 72<755.5 776.5>
AnchorPoint: "Anchor-7" 440 826 basechar 0
AnchorPoint: "Anchor-5" 440 0 basechar 0
LayerCount: 2
Fore
SplineSet
270 0 m 1
 50 650 l 1
 105 650 l 1
 305 48 l 1
 342 48 l 1
 416 286 l 1
 298 650 l 1
 351 650 l 1
 441 366 l 1
 530 650 l 1
 582 650 l 1
 466 288 l 1
 542 48 l 1
 579 48 l 1
 777 650 l 1
 830 650 l 1
 614 0 l 1
 509 0 l 1
 441 209 l 1
 374 0 l 1
 270 0 l 1
324 766 m 0
 324 787 339 802 360 802 c 0
 381 802 396 787 396 766 c 0
 396 745 381 730 360 730 c 0
 339 730 324 745 324 766 c 0
484 766 m 0
 484 787 499 802 520 802 c 0
 541 802 556 787 556 766 c 0
 556 745 541 730 520 730 c 0
 499 730 484 745 484 766 c 0
EndSplineSet
Substitution2: "'ss03' Style Set 3 in Latin lookup 11 subtable" Wdieresis.ss03
Substitution2: "'aalt' Access All Alternates in Latin lookup 0 subtable" Wdieresis.ss03
EndChar

StartChar: Wgrave
Encoding: 7808 7808 110
Width: 880
GlyphClass: 2
Flags: MW
HStem: 0 48<270 342 305 342 305 374 542 579> 705 100<355 465 355 411>
VStem: 50 780<650 650>
AnchorPoint: "Anchor-7" 440 805 basechar 0
AnchorPoint: "Anchor-5" 440 0 basechar 0
LayerCount: 2
Fore
SplineSet
270 0 m 1
 50 650 l 1
 105 650 l 1
 305 48 l 1
 342 48 l 1
 416 286 l 1
 298 650 l 1
 351 650 l 1
 441 366 l 1
 530 650 l 1
 582 650 l 1
 466 288 l 1
 542 48 l 1
 579 48 l 1
 777 650 l 1
 830 650 l 1
 614 0 l 1
 509 0 l 1
 441 209 l 1
 374 0 l 1
 270 0 l 1
355 805 m 1
 409 805 l 1
 465 705 l 1
 411 705 l 1
 355 805 l 1
EndSplineSet
Substitution2: "'ss03' Style Set 3 in Latin lookup 11 subtable" Wgrave.ss03
Substitution2: "'aalt' Access All Alternates in Latin lookup 0 subtable" Wgrave.ss03
EndChar

StartChar: X
Encoding: 88 88 111
Width: 538
GlyphClass: 2
Flags: MW
HStem: 0 650<50 107 50 107 50 431 431 488>
VStem: 50 438<0 0>
AnchorPoint: "Anchor-7" 269 650 basechar 0
AnchorPoint: "Anchor-5" 269 0 basechar 0
LayerCount: 2
Fore
SplineSet
50 0 m 1
 238 325 l 1
 50 650 l 1
 107 650 l 1
 268 372 l 1
 431 650 l 1
 488 650 l 1
 299 327 l 1
 488 0 l 1
 431 0 l 1
 269 280 l 1
 107 0 l 1
 50 0 l 1
EndSplineSet
EndChar

StartChar: Y
Encoding: 89 89 112
Width: 517
GlyphClass: 2
Flags: MW
HStem: 301 56<211 278 211 278 240 286 240 307>
VStem: 232 54<0 301 0 301>
AnchorPoint: "Anchor-7" 259 650 basechar 0
AnchorPoint: "Anchor-5" 259 0 basechar 0
LayerCount: 2
Fore
SplineSet
232 0 m 1
 232 301 l 1
 211 301 l 1
 40 650 l 1
 96 650 l 1
 240 357 l 1
 278 357 l 1
 421 650 l 1
 477 650 l 1
 307 301 l 1
 286 301 l 1
 286 0 l 1
 232 0 l 1
EndSplineSet
EndChar

StartChar: Yacute
Encoding: 221 221 113
Width: 517
GlyphClass: 2
Flags: MW
HStem: 301 56<211 278 211 278 240 286 240 307> 705 100<234 344 234 344>
VStem: 232 54<0 301 0 301>
AnchorPoint: "Anchor-7" 259 805 basechar 0
AnchorPoint: "Anchor-5" 259 0 basechar 0
LayerCount: 2
Fore
SplineSet
232 0 m 1
 232 301 l 1
 211 301 l 1
 40 650 l 1
 96 650 l 1
 240 357 l 1
 278 357 l 1
 421 650 l 1
 477 650 l 1
 307 301 l 1
 286 301 l 1
 286 0 l 1
 232 0 l 1
234 705 m 1
 290 805 l 1
 344 805 l 1
 288 705 l 1
 234 705 l 1
EndSplineSet
EndChar

StartChar: Ycircumflex
Encoding: 374 374 114
Width: 517
GlyphClass: 2
Flags: MW
HStem: 301 56<211 278 211 278 240 286 240 307> 706 95<134 268 250 328 250 384>
VStem: 232 54<0 301 0 301>
AnchorPoint: "Anchor-7" 259 801 basechar 0
AnchorPoint: "Anchor-5" 259 0 basechar 0
LayerCount: 2
Fore
SplineSet
232 0 m 1
 232 301 l 1
 211 301 l 1
 40 650 l 1
 96 650 l 1
 240 357 l 1
 278 357 l 1
 421 650 l 1
 477 650 l 1
 307 301 l 1
 286 301 l 1
 286 0 l 1
 232 0 l 1
134 706 m 1
 250 801 l 1
 268 801 l 1
 384 706 l 1
 328 706 l 1
 259 765 l 1
 190 706 l 1
 134 706 l 1
EndSplineSet
EndChar

StartChar: Ydieresis
Encoding: 376 376 115
Width: 517
GlyphClass: 2
Flags: MW
HStem: 301 56<211 278 211 278 240 286 240 307> 730 72<168.5 189.5 328.5 349.5>
VStem: 143 72<755.5 776.5> 232 54<0 301 0 301> 303 72<755.5 776.5>
AnchorPoint: "Anchor-7" 259 826 basechar 0
AnchorPoint: "Anchor-5" 259 0 basechar 0
LayerCount: 2
Fore
SplineSet
232 0 m 1
 232 301 l 1
 211 301 l 1
 40 650 l 1
 96 650 l 1
 240 357 l 1
 278 357 l 1
 421 650 l 1
 477 650 l 1
 307 301 l 1
 286 301 l 1
 286 0 l 1
 232 0 l 1
143 766 m 0xf8
 143 787 158 802 179 802 c 0
 200 802 215 787 215 766 c 0
 215 745 200 730 179 730 c 0
 158 730 143 745 143 766 c 0xf8
303 766 m 0
 303 787 318 802 339 802 c 0
 360 802 375 787 375 766 c 0
 375 745 360 730 339 730 c 0
 318 730 303 745 303 766 c 0
EndSplineSet
EndChar

StartChar: Ygrave
Encoding: 7922 7922 116
Width: 517
GlyphClass: 2
Flags: MW
HStem: 301 56<211 278 211 278 240 286 240 307> 705 100<174 284 174 230>
VStem: 232 54<0 301 0 301>
AnchorPoint: "Anchor-7" 259 805 basechar 0
AnchorPoint: "Anchor-5" 259 0 basechar 0
LayerCount: 2
Fore
SplineSet
232 0 m 1
 232 301 l 1
 211 301 l 1
 40 650 l 1
 96 650 l 1
 240 357 l 1
 278 357 l 1
 421 650 l 1
 477 650 l 1
 307 301 l 1
 286 301 l 1
 286 0 l 1
 232 0 l 1
174 805 m 1
 228 805 l 1
 284 705 l 1
 230 705 l 1
 174 805 l 1
EndSplineSet
EndChar

StartChar: uni1EF8
Encoding: 7928 7928 117
Width: 517
GlyphClass: 2
Flags: MW
HStem: 301 56<211 278 211 278 240 286 240 307> 701 35<303.5 339 303.5 348.5> 774 35<182.5 217.5>
VStem: 117 35<705 725.5 705 736> 232 54<0 301 0 301> 371 35<782 804>
AnchorPoint: "Anchor-7" 259 806 basechar 0
AnchorPoint: "Anchor-5" 259 0 basechar 0
LayerCount: 2
Fore
SplineSet
232 0 m 1
 232 301 l 1
 211 301 l 1
 40 650 l 1
 96 650 l 1
 240 357 l 1
 278 357 l 1
 421 650 l 1
 477 650 l 1
 307 301 l 1
 286 301 l 1
 286 0 l 1
 232 0 l 1
117 705 m 1
 117 767 151 809 196 809 c 0
 252 809 280 736 327 736 c 0
 351 736 371 760 371 804 c 1
 406 804 l 1
 406 740 370 701 327 701 c 0
 272 701 239 774 196 774 c 0
 169 774 152 746 152 705 c 1
 117 705 l 1
EndSplineSet
EndChar

StartChar: Z
Encoding: 90 90 118
Width: 544
GlyphClass: 2
Flags: MW
HStem: 0 55<146 488 146 488> 595 55<66 392 66 482>
VStem: 56 432<0 55>
AnchorPoint: "Anchor-7" 272 650 basechar 0
AnchorPoint: "Anchor-5" 272 0 basechar 0
LayerCount: 2
Fore
SplineSet
56 0 m 1
 392 595 l 1
 66 595 l 1
 66 650 l 1
 482 650 l 1
 146 55 l 1
 488 55 l 1
 488 0 l 1
 56 0 l 1
EndSplineSet
EndChar

StartChar: Zacute
Encoding: 377 377 119
Width: 544
GlyphClass: 2
Flags: MW
HStem: 0 55<146 488 146 488> 595 55<66 392 66 482> 595 210<303 357 303 392> 705 100<247 357 247 357>
VStem: 56 432<0 55>
AnchorPoint: "Anchor-7" 272 805 basechar 0
AnchorPoint: "Anchor-5" 272 0 basechar 0
LayerCount: 2
Fore
SplineSet
56 0 m 1xd8
 392 595 l 1
 66 595 l 1
 66 650 l 1
 482 650 l 1
 146 55 l 1
 488 55 l 1
 488 0 l 1
 56 0 l 1xd8
247 705 m 1
 303 805 l 1
 357 805 l 1xa8
 301 705 l 1
 247 705 l 1
EndSplineSet
EndChar

StartChar: Zcaron
Encoding: 381 381 120
Width: 544
GlyphClass: 2
Flags: MW
HStem: 0 55<146 488 146 488> 595 55<66 392 66 482> 595 209<147 203 341 392 66 203> 709 95<147 281 147 263>
VStem: 56 432<0 55>
AnchorPoint: "Anchor-7" 272 800 basechar 0
AnchorPoint: "Anchor-5" 272 0 basechar 0
LayerCount: 2
Fore
SplineSet
56 0 m 1xc8
 392 595 l 1
 66 595 l 1
 66 650 l 1
 482 650 l 1
 146 55 l 1
 488 55 l 1
 488 0 l 1
 56 0 l 1xc8
147 804 m 1xa8
 203 804 l 1
 272 745 l 1
 341 804 l 1
 397 804 l 1xa8
 281 709 l 1
 263 709 l 1xd8
 147 804 l 1xa8
EndSplineSet
EndChar

StartChar: Zdotaccent
Encoding: 379 379 121
Width: 544
GlyphClass: 2
Flags: MW
HStem: 0 55<146 488 146 488> 595 55<66 392 66 482> 730 72<262 282.5>
VStem: 236 73<755.5 776.5>
AnchorPoint: "Anchor-7" 272 650 basechar 0
AnchorPoint: "Anchor-5" 272 0 basechar 0
LayerCount: 2
Fore
SplineSet
56 0 m 1
 392 595 l 1
 66 595 l 1
 66 650 l 1
 482 650 l 1
 146 55 l 1
 488 55 l 1
 488 0 l 1
 56 0 l 1
236 766 m 0
 236 787 252 802 272 802 c 0
 293 802 309 787 309 766 c 0
 309 745 293 730 272 730 c 0
 252 730 236 745 236 766 c 0
EndSplineSet
EndChar

StartChar: K.ss02
Encoding: 65538 -1 122
Width: 590
GlyphClass: 2
Flags: MW
HStem: 265 53<167 288 343 378 167 288> 596 53<424 531 424 424>
VStem: 112 55<0 265 318 650>
AnchorPoint: "Anchor-7" 308 649 basechar 0
AnchorPoint: "Anchor-5" 308 0 basechar 0
LayerCount: 2
Fore
SplineSet
112 650 m 1
 167 650 l 1
 167 318 l 1
 288 318 l 1
 383 649 l 1
 531 649 l 1
 531 596 l 1
 424 596 l 1
 343 318 l 1
 414 318 l 1
 540 0 l 1
 485 0 l 1
 378 265 l 1
 167 265 l 1
 167 0 l 1
 112 0 l 1
 112 650 l 1
EndSplineSet
EndChar

StartChar: W.ss03
Encoding: 65539 -1 123
Width: 880
GlyphClass: 2
Flags: MW
HStem: 0 52<262 292 262 329 220 292 584 619> 451 53<425 451 425 425>
VStem: 50 780<649 649>
AnchorPoint: "Anchor-7" 440 626 basechar 0
AnchorPoint: "Anchor-5" 440 0 basechar 0
LayerCount: 2
Fore
SplineSet
50 649 m 1
 106 649 l 1
 262 52 l 1
 292 52 l 1
 387 504 l 1
 489 504 l 1
 584 52 l 1
 619 52 l 1
 775 649 l 1
 830 649 l 1
 660 0 l 1
 547 0 l 1
 451 451 l 1
 425 451 l 1
 329 0 l 1
 220 0 l 1
 50 649 l 1
EndSplineSet
EndChar

StartChar: Wacute.ss03
Encoding: 65540 -1 124
Width: 880
GlyphClass: 2
Flags: MW
HStem: 0 52<262 292 262 329 220 292 584 619> 451 53<425 451 425 425> 681 100<415 525 415 525>
VStem: 50 780<649 649>
AnchorPoint: "Anchor-7" 440 781 basechar 0
AnchorPoint: "Anchor-5" 440 0 basechar 0
LayerCount: 2
Fore
SplineSet
50 649 m 1
 106 649 l 1
 262 52 l 1
 292 52 l 1
 387 504 l 1
 489 504 l 1
 584 52 l 1
 619 52 l 1
 775 649 l 1
 830 649 l 1
 660 0 l 1
 547 0 l 1
 451 451 l 1
 425 451 l 1
 329 0 l 1
 220 0 l 1
 50 649 l 1
415 681 m 1
 471 781 l 1
 525 781 l 1
 469 681 l 1
 415 681 l 1
EndSplineSet
EndChar

StartChar: Wcircumflex.ss03
Encoding: 65541 -1 125
Width: 880
GlyphClass: 2
Flags: MW
HStem: 0 52<262 292 262 329 220 292 584 619> 451 53<425 451 425 425> 682 95<315 449 431 509 431 565>
VStem: 50 780<649 649>
AnchorPoint: "Anchor-7" 440 777 basechar 0
AnchorPoint: "Anchor-5" 440 0 basechar 0
LayerCount: 2
Fore
SplineSet
50 649 m 1
 106 649 l 1
 262 52 l 1
 292 52 l 1
 387 504 l 1
 489 504 l 1
 584 52 l 1
 619 52 l 1
 775 649 l 1
 830 649 l 1
 660 0 l 1
 547 0 l 1
 451 451 l 1
 425 451 l 1
 329 0 l 1
 220 0 l 1
 50 649 l 1
315 682 m 1
 431 777 l 1
 449 777 l 1
 565 682 l 1
 509 682 l 1
 440 741 l 1
 371 682 l 1
 315 682 l 1
EndSplineSet
EndChar

StartChar: Wdieresis.ss03
Encoding: 65542 -1 126
Width: 880
GlyphClass: 2
Flags: MW
HStem: 0 52<262 292 262 329 220 292 584 619> 451 53<425 451 425 425> 706 72<349.5 370.5 509.5 530.5>
VStem: 324 72<731.5 752.5> 484 72<731.5 752.5>
AnchorPoint: "Anchor-7" 440 802 basechar 0
AnchorPoint: "Anchor-5" 440 0 basechar 0
LayerCount: 2
Fore
SplineSet
50 649 m 1
 106 649 l 1
 262 52 l 1
 292 52 l 1
 387 504 l 1
 489 504 l 1
 584 52 l 1
 619 52 l 1
 775 649 l 1
 830 649 l 1
 660 0 l 1
 547 0 l 1
 451 451 l 1
 425 451 l 1
 329 0 l 1
 220 0 l 1
 50 649 l 1
324 742 m 0
 324 763 339 778 360 778 c 0
 381 778 396 763 396 742 c 0
 396 721 381 706 360 706 c 0
 339 706 324 721 324 742 c 0
484 742 m 0
 484 763 499 778 520 778 c 0
 541 778 556 763 556 742 c 0
 556 721 541 706 520 706 c 0
 499 706 484 721 484 742 c 0
EndSplineSet
EndChar

StartChar: Wgrave.ss03
Encoding: 65543 -1 127
Width: 880
GlyphClass: 2
Flags: MW
HStem: 0 52<262 292 262 329 220 292 584 619> 451 53<425 451 425 425> 681 100<355 465 355 411>
VStem: 50 780<649 649>
AnchorPoint: "Anchor-7" 440 781 basechar 0
AnchorPoint: "Anchor-5" 440 0 basechar 0
LayerCount: 2
Fore
SplineSet
50 649 m 1
 106 649 l 1
 262 52 l 1
 292 52 l 1
 387 504 l 1
 489 504 l 1
 584 52 l 1
 619 52 l 1
 775 649 l 1
 830 649 l 1
 660 0 l 1
 547 0 l 1
 451 451 l 1
 425 451 l 1
 329 0 l 1
 220 0 l 1
 50 649 l 1
355 781 m 1
 409 781 l 1
 465 681 l 1
 411 681 l 1
 355 781 l 1
EndSplineSet
EndChar

StartChar: O.ss04
Encoding: 65544 -1 128
Width: 800
GlyphClass: 2
Flags: MW
HStem: -16 57<326.5 473.5 326.5 489.5> 607 57<326.5 473.5>
VStem: 80 57<244.5 403.5 244.5 419> 663 57<244.5 403.5>
AnchorPoint: "Anchor-7" 400 649 basechar 0
AnchorPoint: "Anchor-6" 482 10 basechar 0
AnchorPoint: "Anchor-5" 400 0 basechar 0
LayerCount: 2
Fore
SplineSet
400 -16 m 0
 222 -16 80 134 80 324 c 0
 80 514 221 664 400 664 c 0
 579 664 720 514 720 324 c 0
 720 134 579 -16 400 -16 c 0
137 324 m 0
 137 165 253 41 400 41 c 0
 547 41 663 165 663 324 c 0
 663 483 547 607 400 607 c 0
 253 607 137 483 137 324 c 0
EndSplineSet
EndChar

StartChar: Oacute.ss04
Encoding: 65545 -1 129
Width: 800
GlyphClass: 2
Flags: MW
HStem: -16 57<326.5 473.5 326.5 489.5> 607 57<326.5 473.5> 704 100<375 485 375 485>
VStem: 80 57<244.5 403.5 244.5 419> 663 57<244.5 403.5>
AnchorPoint: "Anchor-7" 400 804 basechar 0
AnchorPoint: "Anchor-6" 482 10 basechar 0
AnchorPoint: "Anchor-5" 400 0 basechar 0
LayerCount: 2
Fore
SplineSet
400 -16 m 0
 222 -16 80 134 80 324 c 0
 80 514 221 664 400 664 c 0
 579 664 720 514 720 324 c 0
 720 134 579 -16 400 -16 c 0
137 324 m 0
 137 165 253 41 400 41 c 0
 547 41 663 165 663 324 c 0
 663 483 547 607 400 607 c 0
 253 607 137 483 137 324 c 0
375 704 m 1
 431 804 l 1
 485 804 l 1
 429 704 l 1
 375 704 l 1
EndSplineSet
EndChar

StartChar: Ocircumflex.ss04
Encoding: 65546 -1 130
Width: 800
GlyphClass: 2
Flags: MW
HStem: -16 57<326.5 473.5 326.5 489.5> 607 57<326.5 473.5> 705 95<275 409 391 469 391 525>
VStem: 80 57<244.5 403.5 244.5 419> 663 57<244.5 403.5>
AnchorPoint: "Anchor-7" 400 800 basechar 0
AnchorPoint: "Anchor-6" 482 10 basechar 0
AnchorPoint: "Anchor-5" 400 0 basechar 0
LayerCount: 2
Fore
SplineSet
400 -16 m 0
 222 -16 80 134 80 324 c 0
 80 514 221 664 400 664 c 0
 579 664 720 514 720 324 c 0
 720 134 579 -16 400 -16 c 0
137 324 m 0
 137 165 253 41 400 41 c 0
 547 41 663 165 663 324 c 0
 663 483 547 607 400 607 c 0
 253 607 137 483 137 324 c 0
275 705 m 1
 391 800 l 1
 409 800 l 1
 525 705 l 1
 469 705 l 1
 400 764 l 1
 331 705 l 1
 275 705 l 1
EndSplineSet
EndChar

StartChar: Odieresis.ss04
Encoding: 65547 -1 131
Width: 800
GlyphClass: 2
Flags: MW
HStem: -16 57<326.5 473.5 326.5 489.5> 607 57<326.5 473.5> 729 72<309.5 330.5 469.5 490.5>
VStem: 80 57<244.5 403.5 244.5 419> 284 72<754.5 775.5> 444 72<754.5 775.5> 663 57<244.5 403.5>
AnchorPoint: "Anchor-7" 400 825 basechar 0
AnchorPoint: "Anchor-6" 482 10 basechar 0
AnchorPoint: "Anchor-5" 400 0 basechar 0
LayerCount: 2
Fore
SplineSet
400 -16 m 0
 222 -16 80 134 80 324 c 0
 80 514 221 664 400 664 c 0
 579 664 720 514 720 324 c 0
 720 134 579 -16 400 -16 c 0
137 324 m 0
 137 165 253 41 400 41 c 0
 547 41 663 165 663 324 c 0
 663 483 547 607 400 607 c 0
 253 607 137 483 137 324 c 0
284 765 m 0
 284 786 299 801 320 801 c 0
 341 801 356 786 356 765 c 0
 356 744 341 729 320 729 c 0
 299 729 284 744 284 765 c 0
444 765 m 0
 444 786 459 801 480 801 c 0
 501 801 516 786 516 765 c 0
 516 744 501 729 480 729 c 0
 459 729 444 744 444 765 c 0
EndSplineSet
EndChar

StartChar: Ograve.ss04
Encoding: 65548 -1 132
Width: 800
GlyphClass: 2
Flags: MW
HStem: -16 57<326.5 473.5 326.5 489.5> 607 57<326.5 473.5> 704 100<315 425 315 371>
VStem: 80 57<244.5 403.5 244.5 419> 663 57<244.5 403.5>
AnchorPoint: "Anchor-7" 400 804 basechar 0
AnchorPoint: "Anchor-6" 482 10 basechar 0
AnchorPoint: "Anchor-5" 400 0 basechar 0
LayerCount: 2
Fore
SplineSet
400 -16 m 0
 222 -16 80 134 80 324 c 0
 80 514 221 664 400 664 c 0
 579 664 720 514 720 324 c 0
 720 134 579 -16 400 -16 c 0
137 324 m 0
 137 165 253 41 400 41 c 0
 547 41 663 165 663 324 c 0
 663 483 547 607 400 607 c 0
 253 607 137 483 137 324 c 0
315 804 m 1
 369 804 l 1
 425 704 l 1
 371 704 l 1
 315 804 l 1
EndSplineSet
EndChar

StartChar: Ohungarumlaut.ss04
Encoding: 65549 -1 133
Width: 800
GlyphClass: 2
Flags: MW
HStem: -16 57<326.5 473.5 326.5 489.5> 607 57<326.5 473.5> 704 180<289 390 289 390 345 515 345 470>
VStem: 80 57<244.5 403.5 244.5 419> 663 57<244.5 403.5>
AnchorPoint: "Anchor-7" 400 884 basechar 0
AnchorPoint: "Anchor-6" 482 10 basechar 0
AnchorPoint: "Anchor-5" 400 0 basechar 0
LayerCount: 2
Fore
SplineSet
400 -16 m 0
 222 -16 80 134 80 324 c 0
 80 514 221 664 400 664 c 0
 579 664 720 514 720 324 c 0
 720 134 579 -16 400 -16 c 0
137 324 m 0
 137 165 253 41 400 41 c 0
 547 41 663 165 663 324 c 0
 663 483 547 607 400 607 c 0
 253 607 137 483 137 324 c 0
289 704 m 1
 345 884 l 1
 390 884 l 1
 334 704 l 1
 289 704 l 1
470 704 m 1
 526 884 l 1
 571 884 l 1
 515 704 l 1
 470 704 l 1
EndSplineSet
EndChar

StartChar: Omacron.ss04
Encoding: 65550 -1 134
Width: 800
GlyphClass: 2
Flags: MW
HStem: -16 57<326.5 473.5 326.5 489.5> 607 57<326.5 473.5> 744 38<235 565 235 565>
VStem: 80 57<244.5 403.5 244.5 419> 235 330<744 782 744 782> 663 57<244.5 403.5>
AnchorPoint: "Anchor-7" 400 782 basechar 0
AnchorPoint: "Anchor-6" 482 10 basechar 0
AnchorPoint: "Anchor-5" 400 0 basechar 0
LayerCount: 2
Fore
SplineSet
400 -16 m 0
 222 -16 80 134 80 324 c 0
 80 514 221 664 400 664 c 0
 579 664 720 514 720 324 c 0
 720 134 579 -16 400 -16 c 0
137 324 m 0
 137 165 253 41 400 41 c 0
 547 41 663 165 663 324 c 0
 663 483 547 607 400 607 c 0
 253 607 137 483 137 324 c 0
235 744 m 1
 235 782 l 1
 565 782 l 1
 565 744 l 1
 235 744 l 1
EndSplineSet
EndChar

StartChar: Oslash.ss04
Encoding: 65551 -1 135
Width: 820
GlyphClass: 2
Flags: MW
HStem: -16 57<374 473.5 374 489.5> 607 57<326.5 430.5>
VStem: 80 57<282.5 403.5 282.5 419> 663 57<244.5 360.5>
AnchorPoint: "Anchor-7" 400 649 basechar 0
AnchorPoint: "Anchor-6" 482 10 basechar 0
AnchorPoint: "Anchor-5" 400 0 basechar 0
LayerCount: 2
Fore
SplineSet
127 0 m 1
 184 72 l 1
 120 134 80 223 80 324 c 0
 80 514 221 664 400 664 c 0
 474 664 542 638 595 595 c 1
 638 649 l 1
 705 649 l 1
 634 558 l 1
 687 498 720 415 720 324 c 0
 720 134 579 -16 400 -16 c 0
 335 -16 275 4 225 38 c 1
 195 0 l 1
 127 0 l 1
137 324 m 0
 137 241 168 168 219 117 c 1
 560 550 l 1
 516 586 461 607 400 607 c 0
 253 607 137 483 137 324 c 0
260 83 m 1
 301 56 348 41 400 41 c 0
 547 41 663 165 663 324 c 0
 663 397 638 463 598 512 c 1
 260 83 l 1
EndSplineSet
EndChar

StartChar: Otilde.ss04
Encoding: 65552 -1 136
Width: 800
GlyphClass: 2
Flags: MW
HStem: -16 57<326.5 473.5 326.5 489.5> 607 57<326.5 473.5> 700 35<444.5 480 444.5 489.5> 773 35<323.5 358.5>
VStem: 80 57<244.5 403.5 244.5 419> 258 35<704 724.5 704 735> 512 35<781 803> 663 57<244.5 403.5>
AnchorPoint: "Anchor-7" 400 805 basechar 0
AnchorPoint: "Anchor-6" 482 10 basechar 0
AnchorPoint: "Anchor-5" 400 0 basechar 0
LayerCount: 2
Fore
SplineSet
400 -16 m 0
 222 -16 80 134 80 324 c 0
 80 514 221 664 400 664 c 0
 579 664 720 514 720 324 c 0
 720 134 579 -16 400 -16 c 0
137 324 m 0
 137 165 253 41 400 41 c 0
 547 41 663 165 663 324 c 0
 663 483 547 607 400 607 c 0
 253 607 137 483 137 324 c 0
258 704 m 1
 258 766 292 808 337 808 c 0
 393 808 421 735 468 735 c 0
 492 735 512 759 512 803 c 1
 547 803 l 1
 547 739 511 700 468 700 c 0
 413 700 380 773 337 773 c 0
 310 773 293 745 293 704 c 1
 258 704 l 1
EndSplineSet
EndChar

StartChar: Q.ss04
Encoding: 65553 -1 137
Width: 800
GlyphClass: 2
Flags: MW
HStem: -16 57<326.5 428.5 326.5 436> 607 57<326.5 473.5>
VStem: 80 57<244.5 403.5 244.5 419> 663 57<285.5 403.5>
AnchorPoint: "Anchor-7" 400 650 basechar 0
AnchorPoint: "Anchor-5" 400 0 basechar 0
LayerCount: 2
Fore
SplineSet
638 0 m 1
 591 50 l 1
 538 8 472 -16 400 -16 c 0
 222 -16 80 134 80 324 c 0
 80 514 221 664 400 664 c 0
 579 664 720 514 720 324 c 0
 720 230 686 146 629 85 c 1
 707 0 l 1
 638 0 l 1
137 324 m 0
 137 165 253 41 400 41 c 0
 457 41 509 60 552 92 c 1
 431 221 l 1
 498 227 l 1
 590 127 l 1
 635 177 663 247 663 324 c 0
 663 483 547 607 400 607 c 0
 253 607 137 483 137 324 c 0
EndSplineSet
EndChar

StartChar: O.ss05
Encoding: 65554 -1 138
Width: 998
GlyphClass: 2
Flags: MW
HStem: 0 57<315.5 589 409 589> 592 57<336 589 409 589>
VStem: 80 57<253 399.5 253 415> 861 57<253 399.5>
AnchorPoint: "Anchor-7" 499 649 basechar 0
AnchorPoint: "Anchor-6" 906 10 basechar 0
AnchorPoint: "Anchor-5" 499 0 basechar 0
LayerCount: 2
Fore
SplineSet
409 0 m 2
 222 0 80 148 80 329 c 0
 80 501 231 649 409 649 c 2
 589 649 l 2
 765 649 918 504 918 329 c 0
 918 146 773 0 589 0 c 2
 409 0 l 2
137 329 m 0
 137 177 257 57 409 57 c 2
 589 57 l 2
 741 57 861 177 861 329 c 0
 861 470 735 592 589 592 c 2
 409 592 l 2
 263 592 137 470 137 329 c 0
EndSplineSet
EndChar

StartChar: Oacute.ss05
Encoding: 65555 -1 139
Width: 998
GlyphClass: 2
Flags: MW
HStem: 0 57<315.5 589 409 589> 592 57<336 589 409 589> 592 212<336 584 530 584 530 589> 704 100<474 584 474 584>
VStem: 80 57<253 399.5 253 415> 861 57<253 399.5>
AnchorPoint: "Anchor-7" 499 804 basechar 0
AnchorPoint: "Anchor-6" 906 10 basechar 0
AnchorPoint: "Anchor-5" 499 0 basechar 0
LayerCount: 2
Fore
SplineSet
409 0 m 2xdc
 222 0 80 148 80 329 c 0
 80 501 231 649 409 649 c 2
 589 649 l 2
 765 649 918 504 918 329 c 0
 918 146 773 0 589 0 c 2
 409 0 l 2xdc
137 329 m 0
 137 177 257 57 409 57 c 2
 589 57 l 2
 741 57 861 177 861 329 c 0
 861 470 735 592 589 592 c 2
 409 592 l 2
 263 592 137 470 137 329 c 0
474 704 m 1
 530 804 l 1
 584 804 l 1xac
 528 704 l 1
 474 704 l 1
EndSplineSet
EndChar

StartChar: Ocircumflex.ss05
Encoding: 65556 -1 140
Width: 998
GlyphClass: 2
Flags: MW
HStem: 0 57<315.5 589 409 589> 592 57<336 589 409 589> 705 95<374 508 490 568 490 624>
VStem: 80 57<253 399.5 253 415> 861 57<253 399.5>
AnchorPoint: "Anchor-7" 499 800 basechar 0
AnchorPoint: "Anchor-6" 906 10 basechar 0
AnchorPoint: "Anchor-5" 499 0 basechar 0
LayerCount: 2
Fore
SplineSet
409 0 m 2
 222 0 80 148 80 329 c 0
 80 501 231 649 409 649 c 2
 589 649 l 2
 765 649 918 504 918 329 c 0
 918 146 773 0 589 0 c 2
 409 0 l 2
137 329 m 0
 137 177 257 57 409 57 c 2
 589 57 l 2
 741 57 861 177 861 329 c 0
 861 470 735 592 589 592 c 2
 409 592 l 2
 263 592 137 470 137 329 c 0
374 705 m 1
 490 800 l 1
 508 800 l 1
 624 705 l 1
 568 705 l 1
 499 764 l 1
 430 705 l 1
 374 705 l 1
EndSplineSet
EndChar

StartChar: Odieresis.ss05
Encoding: 65557 -1 141
Width: 998
GlyphClass: 2
Flags: MW
HStem: 0 57<315.5 589 409 589> 592 57<336 589 409 589> 729 72<408.5 429.5 568.5 589.5>
VStem: 80 57<253 399.5 253 415> 383 72<754.5 775.5> 543 72<754.5 775.5> 861 57<253 399.5>
AnchorPoint: "Anchor-7" 499 825 basechar 0
AnchorPoint: "Anchor-6" 906 10 basechar 0
AnchorPoint: "Anchor-5" 499 0 basechar 0
LayerCount: 2
Fore
SplineSet
409 0 m 2
 222 0 80 148 80 329 c 0
 80 501 231 649 409 649 c 2
 589 649 l 2
 765 649 918 504 918 329 c 0
 918 146 773 0 589 0 c 2
 409 0 l 2
137 329 m 0
 137 177 257 57 409 57 c 2
 589 57 l 2
 741 57 861 177 861 329 c 0
 861 470 735 592 589 592 c 2
 409 592 l 2
 263 592 137 470 137 329 c 0
383 765 m 0
 383 786 398 801 419 801 c 0
 440 801 455 786 455 765 c 0
 455 744 440 729 419 729 c 0
 398 729 383 744 383 765 c 0
543 765 m 0
 543 786 558 801 579 801 c 0
 600 801 615 786 615 765 c 0
 615 744 600 729 579 729 c 0
 558 729 543 744 543 765 c 0
EndSplineSet
EndChar

StartChar: Ograve.ss05
Encoding: 65558 -1 142
Width: 998
GlyphClass: 2
Flags: MW
HStem: 0 57<315.5 589 409 589> 592 57<336 589 409 589> 592 212<336 468 414 468 414 589> 704 100<414 524 414 470>
VStem: 80 57<253 399.5 253 415> 861 57<253 399.5>
AnchorPoint: "Anchor-7" 499 804 basechar 0
AnchorPoint: "Anchor-6" 906 10 basechar 0
AnchorPoint: "Anchor-5" 499 0 basechar 0
LayerCount: 2
Fore
SplineSet
409 0 m 2xcc
 222 0 80 148 80 329 c 0
 80 501 231 649 409 649 c 2
 589 649 l 2
 765 649 918 504 918 329 c 0
 918 146 773 0 589 0 c 2
 409 0 l 2xcc
137 329 m 0
 137 177 257 57 409 57 c 2
 589 57 l 2
 741 57 861 177 861 329 c 0
 861 470 735 592 589 592 c 2
 409 592 l 2
 263 592 137 470 137 329 c 0
414 804 m 1xac
 468 804 l 1xac
 524 704 l 1
 470 704 l 1xdc
 414 804 l 1xac
EndSplineSet
EndChar

StartChar: Ohungarumlaut.ss05
Encoding: 65559 -1 143
Width: 998
GlyphClass: 2
Flags: MW
HStem: 0 57<315.5 589 409 589> 592 57<336 589 409 589> 704 180<388 489 388 489 444 614 444 569>
VStem: 80 57<253 399.5 253 415> 861 57<253 399.5>
AnchorPoint: "Anchor-7" 499 884 basechar 0
AnchorPoint: "Anchor-6" 906 10 basechar 0
AnchorPoint: "Anchor-5" 499 0 basechar 0
LayerCount: 2
Fore
SplineSet
409 0 m 2
 222 0 80 148 80 329 c 0
 80 501 231 649 409 649 c 2
 589 649 l 2
 765 649 918 504 918 329 c 0
 918 146 773 0 589 0 c 2
 409 0 l 2
137 329 m 0
 137 177 257 57 409 57 c 2
 589 57 l 2
 741 57 861 177 861 329 c 0
 861 470 735 592 589 592 c 2
 409 592 l 2
 263 592 137 470 137 329 c 0
388 704 m 1
 444 884 l 1
 489 884 l 1
 433 704 l 1
 388 704 l 1
569 704 m 1
 625 884 l 1
 670 884 l 1
 614 704 l 1
 569 704 l 1
EndSplineSet
EndChar

StartChar: Omacron.ss05
Encoding: 65560 -1 144
Width: 998
GlyphClass: 2
Flags: MW
HStem: 0 57<315.5 589 409 589> 592 57<336 589 409 589> 744 38<334 664 334 664>
VStem: 80 57<253 399.5 253 415> 334 330<744 782 744 782> 861 57<253 399.5>
AnchorPoint: "Anchor-7" 499 782 basechar 0
AnchorPoint: "Anchor-6" 906 10 basechar 0
AnchorPoint: "Anchor-5" 499 0 basechar 0
LayerCount: 2
Fore
SplineSet
409 0 m 2
 222 0 80 148 80 329 c 0
 80 501 231 649 409 649 c 2
 589 649 l 2
 765 649 918 504 918 329 c 0
 918 146 773 0 589 0 c 2
 409 0 l 2
137 329 m 0
 137 177 257 57 409 57 c 2
 589 57 l 2
 741 57 861 177 861 329 c 0
 861 470 735 592 589 592 c 2
 409 592 l 2
 263 592 137 470 137 329 c 0
334 744 m 1
 334 782 l 1
 664 782 l 1
 664 744 l 1
 334 744 l 1
EndSplineSet
EndChar

StartChar: Oslash.ss05
Encoding: 65561 -1 145
Width: 1018
GlyphClass: 2
Flags: MW
HStem: 0 57<382.5 589 409 589> 592 57<336 589 409 589>
VStem: 80 57<280.5 399.5 280.5 415> 861 57<253 371>
AnchorPoint: "Anchor-7" 499 649 basechar 0
AnchorPoint: "Anchor-6" 906 10 basechar 0
AnchorPoint: "Anchor-5" 499 0 basechar 0
LayerCount: 2
Fore
SplineSet
165 0 m 1
 220 58 l 1
 135 117 80 217 80 329 c 0
 80 501 231 649 409 649 c 2
 589 649 l 2
 645 649 699 634 747 608 c 1
 786 649 l 1
 854 649 l 1
 789 581 l 1
 866 522 918 431 918 329 c 0
 918 146 773 0 589 0 c 2
 409 0 l 2
 356 0 307 12 264 33 c 1
 233 0 l 1
 165 0 l 1
137 329 m 0
 137 232 186 148 261 100 c 1
 706 565 l 1
 670 582 630 592 589 592 c 2
 409 592 l 2
 263 592 137 470 137 329 c 0
306 77 m 1
 338 64 372 57 409 57 c 2
 589 57 l 2
 741 57 861 177 861 329 c 0
 861 413 816 490 749 539 c 1
 306 77 l 1
EndSplineSet
EndChar

StartChar: Otilde.ss05
Encoding: 65562 -1 146
Width: 998
GlyphClass: 2
Flags: MW
HStem: 0 57<315.5 589 409 589> 592 57<336 589 409 589> 700 35<543.5 579 543.5 588.5> 773 35<422.5 457.5>
VStem: 80 57<253 399.5 253 415> 357 35<704 724.5 704 735> 611 35<781 803> 861 57<253 399.5>
AnchorPoint: "Anchor-7" 499 805 basechar 0
AnchorPoint: "Anchor-6" 906 10 basechar 0
AnchorPoint: "Anchor-5" 499 0 basechar 0
LayerCount: 2
Fore
SplineSet
409 0 m 2
 222 0 80 148 80 329 c 0
 80 501 231 649 409 649 c 2
 589 649 l 2
 765 649 918 504 918 329 c 0
 918 146 773 0 589 0 c 2
 409 0 l 2
137 329 m 0
 137 177 257 57 409 57 c 2
 589 57 l 2
 741 57 861 177 861 329 c 0
 861 470 735 592 589 592 c 2
 409 592 l 2
 263 592 137 470 137 329 c 0
357 704 m 1
 357 766 391 808 436 808 c 0
 492 808 520 735 567 735 c 0
 591 735 611 759 611 803 c 1
 646 803 l 1
 646 739 610 700 567 700 c 0
 512 700 479 773 436 773 c 0
 409 773 392 745 392 704 c 1
 357 704 l 1
EndSplineSet
EndChar

StartChar: Q.ss05
Encoding: 65563 -1 147
Width: 1008
GlyphClass: 2
Flags: MW
HStem: 0 57<315.5 589 409 589> 592 57<336 589 409 589>
VStem: 80 57<253 399.5 253 415> 861 57<293 399.5>
AnchorPoint: "Anchor-7" 499 649 basechar 0
AnchorPoint: "Anchor-6" 906 10 basechar 0
AnchorPoint: "Anchor-5" 499 0 basechar 0
LayerCount: 2
Fore
SplineSet
859 0 m 1
 792 69 l 1
 736 26 666 0 589 0 c 2
 409 0 l 2
 222 0 80 148 80 329 c 0
 80 501 231 649 409 649 c 2
 589 649 l 2
 765 649 918 504 918 329 c 0
 918 241 884 161 829 103 c 1
 928 0 l 1
 859 0 l 1
137 329 m 0
 137 177 257 57 409 57 c 2
 589 57 l 2
 650 57 707 77 752 110 c 1
 704 159 l 1
 739 196 l 1
 789 144 l 1
 834 192 861 257 861 329 c 0
 861 470 735 592 589 592 c 2
 409 592 l 2
 263 592 137 470 137 329 c 0
EndSplineSet
EndChar

StartChar: A_O_N.dlig
Encoding: 65564 -1 148
Width: 1954
GlyphClass: 3
Flags: MW
HStem: -16 57<863.5 1003.5 856.5 1019.5> 189 53<186 458 186 475 168 458 528 619 528 528> 294 52<1750 1787 1750 1787 1726 1787> 597 53<1486 1503 1486 1486> 602 48<304 341 304 304> 607 57<856.5 1003.5>
VStem: 610 57<310 403.5 244.5 419> 1193 57<244.5 403.5> 1431 55<0 597 0 650 0 650> 1787 55<0 294 294 294 346 650 0 650>
AnchorPoint: "Anchor-13" 1628 649 baselig 0
AnchorPoint: "Anchor-12" 1811 0 baselig 0
AnchorPoint: "Anchor-11" 1628 0 baselig 0
AnchorPoint: "Anchor-13" 320 650 baselig 1
AnchorPoint: "Anchor-12" 584 10 baselig 1
AnchorPoint: "Anchor-11" 320 0 baselig 1
LayerCount: 2
Fore
SplineSet
930 -16 m 0xe7c0
 797 -16 684 68 636 189 c 1
 528 189 l 1
 590 0 l 1
 537 0 l 1
 475 189 l 1
 168 189 l 1
 106 0 l 1
 50 0 l 1
 266 650 l 1
 378 650 l 1xebc0
 511 242 l 1
 619 242 l 1
 613 268 610 296 610 324 c 0
 610 514 751 664 930 664 c 0
 1109 664 1250 514 1250 324 c 0
 1250 134 1109 -16 930 -16 c 0xe7c0
186 242 m 1
 458 242 l 1
 341 602 l 1
 304 602 l 1xebc0
 186 242 l 1
667 324 m 0
 667 165 783 41 930 41 c 0
 1077 41 1193 165 1193 324 c 0
 1193 483 1077 607 930 607 c 0xe7c0
 783 607 667 483 667 324 c 0
1431 0 m 1xf3c0
 1431 650 l 1
 1527 650 l 1
 1750 346 l 1
 1787 346 l 1
 1787 650 l 1
 1842 650 l 1
 1842 0 l 1
 1787 0 l 1
 1787 294 l 1
 1726 294 l 1
 1503 597 l 1
 1486 597 l 1
 1486 0 l 1
 1431 0 l 1xf3c0
EndSplineSet
Ligature2: "'dlig' Discretionary Ligatures in Latin lookup 7 subtable" A O N
EndChar

StartChar: Eacute_E.dlig
Encoding: 65565 -1 149
Width: 720
GlyphClass: 3
Flags: MW
HStem: 0 55<102 333 387 618 102 333> 297 54<152 333 152 333 387 568> 594 55<102 618 102 333 387 387 387 618> 594 210<102 444 387 444 390 444 390 618> 704 100<335 444 335 444>
VStem: 333 54<55 297 55 297 351 594>
LayerCount: 2
Fore
SplineSet
102 594 m 1xec
 102 649 l 1
 618 649 l 1
 618 594 l 1
 387 594 l 1
 387 351 l 1
 568 351 l 1
 568 297 l 1
 387 297 l 1
 387 55 l 1
 618 55 l 1
 618 0 l 1
 102 0 l 1
 102 55 l 1
 333 55 l 1
 333 297 l 1
 152 297 l 1
 152 351 l 1
 333 351 l 1
 333 594 l 1
 102 594 l 1xec
335 704 m 1
 390 804 l 1
 444 804 l 1xd4
 389 704 l 1
 335 704 l 1
EndSplineSet
Ligature2: "'dlig' Discretionary Ligatures in Latin lookup 7 subtable" Eacute E
EndChar

StartChar: F_V_E.dlig
Encoding: 65566 -1 150
Width: 1372
GlyphClass: 3
Flags: MW
HStem: 0 52<531 552 531 589 492 552> 0 53<1019 1276 1019 1276> 293 53<167 395 167 433> 298 53<1019 1226 1019 1226> 597 53<167 430 167 167 1019 1019 1019 1276>
VStem: 112 55<0 293 0 346 346 597> 112 318<597 650 597 650 597 650> 964 55<53 298 351 597> 964 262<298 351 298 650> 964 312<0 53 597 650>
AnchorPoint: "Anchor-13" 260 650 baselig 0
AnchorPoint: "Anchor-11" 260 0 baselig 0
AnchorPoint: "Anchor-11" 1123 0 baselig 1
AnchorPoint: "Anchor-13" 1123 650 baselig 1
AnchorPoint: "Anchor-12" 1249 0 baselig 1
LayerCount: 2
Fore
SplineSet
433 346 m 1x6d
 531 52 l 1
 552 52 l 1
 741 649 l 1
 794 649 l 1
 589 0 l 1
 492 0 l 1
 395 293 l 1
 167 293 l 1
 167 0 l 1
 112 0 l 1
 112 650 l 1xad
 430 650 l 1
 430 597 l 1x6b
 167 597 l 1
 167 346 l 1
 433 346 l 1x6d
964 0 m 1x6d
 964 650 l 1x6d
 1276 650 l 1
 1276 597 l 1x6c40
 1019 597 l 1
 1019 351 l 1x5d
 1226 351 l 1
 1226 298 l 1x5c80
 1019 298 l 1
 1019 53 l 1x5d
 1276 53 l 1
 1276 0 l 1x6c40
 964 0 l 1x6d
EndSplineSet
Ligature2: "'dlig' Discretionary Ligatures in Latin lookup 7 subtable" F V E
EndChar

StartChar: I_E.dlig
Encoding: 65567 -1 151
Width: 520
GlyphClass: 3
Flags: MW
HStem: 0 53<202 424 202 424> 298 53<202 374 202 374> 596 53<148 247 247 424> 729 72<164.5 185.5>
VStem: 139 73<754.5 775.5> 148 54<53 298 351 649> 148 226<298 351 298 649> 148 276<0 53 596 649> 247 177<596 649>
LayerCount: 2
Fore
SplineSet
148 0 m 1xe4
 148 649 l 1
 202 649 l 1
 202 351 l 1xe4
 374 351 l 1
 374 298 l 1xe2
 202 298 l 1
 202 53 l 1xe4
 424 53 l 1
 424 0 l 1xe1
 148 0 l 1xe4
139 765 m 0xf880
 139 786 154 801 175 801 c 0
 196 801 212 786 212 765 c 0
 212 744 196 729 175 729 c 0
 154 729 139 744 139 765 c 0xf880
247 596 m 1
 247 649 l 1xe480
 424 649 l 1
 424 596 l 1xe1
 247 596 l 1
EndSplineSet
Ligature2: "'dlig' Discretionary Ligatures in Latin lookup 7 subtable" I E
EndChar

StartChar: M_P.dlig
Encoding: 65568 -1 152
Width: 1140
GlyphClass: 3
Flags: MW
HStem: 214 53<706 857 857 859 706 857> 294 52<362 420 386 420 386 444> 597 53<155 172 155 155 633 633 633 651 706 706 706 857>
VStem: 100 55<0 597 0 650 0 650> 651 55<0 214 267 597> 1019 55<382.5 481.5>
LayerCount: 2
Fore
SplineSet
362 294 m 1
 172 597 l 1
 155 597 l 1
 155 0 l 1
 100 0 l 1
 100 650 l 1
 196 650 l 1
 386 346 l 1
 420 346 l 1xfc
 609 650 l 1
 859 650 l 2
 988 650 1074 563 1074 432 c 0
 1074 301 988 214 859 214 c 2
 706 214 l 1xbc
 706 0 l 1
 651 0 l 1
 651 597 l 1
 633 597 l 1
 444 294 l 1
 362 294 l 1
706 267 m 1xbc
 857 267 l 2
 955 267 1019 333 1019 432 c 0
 1019 531 955 597 857 597 c 2
 706 597 l 1
 706 267 l 1xbc
EndSplineSet
Ligature2: "'dlig' Discretionary Ligatures in Latin lookup 7 subtable" M P
EndChar

StartChar: N_E.dlig
Encoding: 65569 -1 153
Width: 835
GlyphClass: 3
Flags: MW
HStem: 0 55<499 739 499 739> 293 54<499 689 499 689> 294 52<419 444 419 444 395 444> 594 55<499 739 499 739> 597 53<167 172 167 167>
VStem: 112 55<0 597 0 650 0 650> 444 55<55 293 55 294 55 294 347 594 649 650> 444 295<0 55 0 294 0 294 594 649>
LayerCount: 2
Fore
SplineSet
444 650 m 1xd6
 499 650 l 1
 499 649 l 1xd6
 739 649 l 1
 739 594 l 1xd5
 499 594 l 1
 499 347 l 1
 689 347 l 1
 689 293 l 1
 499 293 l 1
 499 55 l 1xd6
 739 55 l 1
 739 0 l 1xd5
 444 0 l 1
 444 294 l 1
 395 294 l 1
 172 597 l 1
 167 597 l 1
 167 0 l 1
 112 0 l 1
 112 650 l 1
 196 650 l 1
 419 346 l 1
 444 346 l 1xae
 444 650 l 1xd6
EndSplineSet
Ligature2: "'dlig' Discretionary Ligatures in Latin lookup 7 subtable" N E
EndChar

StartChar: T_E.dlig
Encoding: 65570 -1 154
Width: 945
GlyphClass: 3
Flags: MW
HStem: 0 53<586 849 586 849> 298 53<586 799 586 799> 596 53<50 241 50 849 295 295 295 849>
VStem: 241 54<0 596 0 596> 531 55<53 298 351 551> 531 268<298 351 298 551 298 551> 531 318<0 53 0 551>
LayerCount: 2
Fore
SplineSet
241 0 m 1xf8
 241 596 l 1
 50 596 l 1
 50 649 l 1
 849 649 l 1
 849 596 l 1xf2
 295 596 l 1
 295 0 l 1
 241 0 l 1xf8
531 0 m 1xf8
 531 551 l 1
 586 551 l 1
 586 351 l 1xf8
 799 351 l 1
 799 298 l 1xf4
 586 298 l 1
 586 53 l 1xf8
 849 53 l 1
 849 0 l 1xf2
 531 0 l 1xf8
EndSplineSet
Ligature2: "'dlig' Discretionary Ligatures in Latin lookup 7 subtable" T E
EndChar

StartChar: T_T.liga
Encoding: 65571 -1 155
Width: 940
GlyphClass: 3
Flags: MW
HStem: 596 53<50 890 50 241 295 295 295 646 700 700 700 890>
VStem: 241 54<0 596 0 596> 646 54<0 596 0 596>
LayerCount: 2
Fore
SplineSet
50 596 m 1
 50 649 l 1
 890 649 l 1
 890 596 l 1
 700 596 l 1
 700 0 l 1
 646 0 l 1
 646 596 l 1
 295 596 l 1
 295 0 l 1
 241 0 l 1
 241 596 l 1
 50 596 l 1
EndSplineSet
Ligature2: "'liga' Standard Ligatures in Latin lookup 8 subtable" T T
EndChar

StartChar: V_T_F.dlig
Encoding: 65572 -1 156
Width: 1636
GlyphClass: 3
Flags: MW
HStem: -184 52<412 433 412 470 374 433> 113 55<1010 1285 1010 1285> 411 54<672 771 672 672 825 955 1010 1436 1010 1010> 596 53<50 771 50 1540 825 825 825 1540>
VStem: 771 54<0 411 0 411 465 596> 955 55<-184 113 168 411>
LayerCount: 2
Fore
SplineSet
771 465 m 1
 771 596 l 1
 50 596 l 1
 50 649 l 1
 1540 649 l 1
 1540 596 l 1
 825 596 l 1
 825 465 l 1
 1436 465 l 1
 1436 411 l 1
 1010 411 l 1
 1010 168 l 1
 1285 168 l 1
 1285 113 l 1
 1010 113 l 1
 1010 -184 l 1
 955 -184 l 1
 955 411 l 1
 825 411 l 1
 825 0 l 1
 771 0 l 1
 771 411 l 1
 672 411 l 1
 470 -184 l 1
 374 -184 l 1
 150 465 l 1
 205 465 l 1
 412 -132 l 1
 433 -132 l 1
 637 465 l 1
 771 465 l 1
EndSplineSet
Ligature2: "'dlig' Discretionary Ligatures in Latin lookup 7 subtable" V T F
EndChar

StartChar: a
Encoding: 97 97 157
Width: 540
GlyphClass: 2
Flags: MW
HStem: 0 49<129 409 129 460> 269 47<129 303 129 129> 467 53<80 239 80 239>
VStem: 80 49<49 269 49 316 49 316> 80 223<269 316 269 316 269 316 269 520 269 520> 80 380<0 260 0 316 0 316 0 520 0 520> 409 51<49 260 0 325.5>
AnchorPoint: "Anchor-7" 239 520 basechar 0
AnchorPoint: "Anchor-6" 439 0 basechar 0
AnchorPoint: "Anchor-5" 270 0 basechar 0
LayerCount: 2
Fore
SplineSet
409 260 m 2xf2
 409 391 339 467 239 467 c 2
 80 467 l 1
 80 520 l 1xe4
 239 520 l 2
 366 520 460 427 460 260 c 2
 460 0 l 1
 80 0 l 1
 80 316 l 1xf2
 303 316 l 1
 303 269 l 1xea
 129 269 l 1
 129 49 l 1
 409 49 l 1
 409 260 l 2xf2
EndSplineSet
EndChar

StartChar: aacute
Encoding: 225 225 158
Width: 540
GlyphClass: 2
Flags: MW
HStem: 0 49<129 409 129 460> 269 47<129 303 129 129> 467 53<80 239 80 239> 575 100<214 324 214 324>
VStem: 80 49<49 269 49 316 49 316> 80 223<269 316 269 316 269 316 269 520 269 520> 80 380<0 260 0 316 0 316 0 520 0 520> 409 51<49 260 0 325.5>
AnchorPoint: "Anchor-7" 239 675 basechar 0
AnchorPoint: "Anchor-6" 439 0 basechar 0
AnchorPoint: "Anchor-5" 270 0 basechar 0
LayerCount: 2
Fore
SplineSet
409 260 m 2xe9
 409 391 339 467 239 467 c 2
 80 467 l 1
 80 520 l 1xe2
 239 520 l 2
 366 520 460 427 460 260 c 2
 460 0 l 1
 80 0 l 1
 80 316 l 1xe9
 303 316 l 1
 303 269 l 1xe5
 129 269 l 1
 129 49 l 1
 409 49 l 1
 409 260 l 2xe9
214 575 m 1xf9
 270 675 l 1
 324 675 l 1
 268 575 l 1
 214 575 l 1xf9
EndSplineSet
EndChar

StartChar: abreve
Encoding: 259 259 159
Width: 540
GlyphClass: 2
Flags: MW
HStem: 0 49<129 409 129 460> 269 47<129 303 129 129> 467 53<80 239 80 239> 569 40<221 257 221 268.5>
VStem: 80 49<49 269 49 316 49 316> 80 223<269 316 269 316 269 316 269 520 269 520> 80 380<0 260 0 316 0 316 0 520 0 520> 140 39<651.5 670 651.5 670> 300 38<651.5 670> 409 51<49 260 0 325.5>
AnchorPoint: "Anchor-7" 239 670 basechar 0
AnchorPoint: "Anchor-6" 439 0 basechar 0
AnchorPoint: "Anchor-5" 270 0 basechar 0
LayerCount: 2
Fore
SplineSet
409 260 m 2xf8c0
 409 391 339 467 239 467 c 2
 80 467 l 1
 80 520 l 1xf2
 239 520 l 2
 366 520 460 427 460 260 c 2
 460 0 l 1
 80 0 l 1
 80 316 l 1xf8c0
 303 316 l 1
 303 269 l 1xf440
 129 269 l 1
 129 49 l 1
 409 49 l 1
 409 260 l 2xf8c0
140 670 m 1xf9c0
 179 670 l 1
 179 633 203 609 239 609 c 0
 275 609 300 633 300 670 c 1
 338 670 l 1
 338 609 298 569 239 569 c 0
 180 569 140 609 140 670 c 1xf9c0
EndSplineSet
EndChar

StartChar: acircumflex
Encoding: 226 226 160
Width: 540
GlyphClass: 2
Flags: MW
HStem: 0 49<129 409 129 460> 269 47<129 303 129 129> 467 53<80 239 80 239> 576 95<114 248 230 308 230 364>
VStem: 80 49<49 269 49 316 49 316> 80 223<269 316 269 316 269 316 269 520 269 520> 80 380<0 260 0 316 0 316 0 520 0 520> 409 51<49 260 0 325.5>
AnchorPoint: "Anchor-7" 239 671 basechar 0
AnchorPoint: "Anchor-6" 439 0 basechar 0
AnchorPoint: "Anchor-5" 270 0 basechar 0
LayerCount: 2
Fore
SplineSet
409 260 m 2xe9
 409 391 339 467 239 467 c 2
 80 467 l 1
 80 520 l 1xe2
 239 520 l 2
 366 520 460 427 460 260 c 2
 460 0 l 1
 80 0 l 1
 80 316 l 1xe9
 303 316 l 1
 303 269 l 1xe5
 129 269 l 1
 129 49 l 1
 409 49 l 1
 409 260 l 2xe9
114 576 m 1xf9
 230 671 l 1
 248 671 l 1
 364 576 l 1
 308 576 l 1
 239 635 l 1
 170 576 l 1
 114 576 l 1xf9
EndSplineSet
EndChar

StartChar: adieresis
Encoding: 228 228 161
Width: 540
GlyphClass: 2
Flags: MW
HStem: 0 49<129 409 129 460> 269 47<129 303 129 129> 467 53<80 239 80 239> 600 72<148.5 169.5 308.5 329.5>
VStem: 80 49<49 269 49 316 49 316> 80 223<269 316 269 316 269 316 269 520 269 520> 80 380<0 260 0 316 0 316 0 520 0 520> 123 72<625.5 646.5> 283 72<625.5 646.5> 409 51<49 260 0 325.5>
AnchorPoint: "Anchor-7" 239 696 basechar 0
AnchorPoint: "Anchor-6" 439 0 basechar 0
AnchorPoint: "Anchor-5" 270 0 basechar 0
LayerCount: 2
Fore
SplineSet
409 260 m 2xe840
 409 391 339 467 239 467 c 2
 80 467 l 1
 80 520 l 1xe2
 239 520 l 2
 366 520 460 427 460 260 c 2
 460 0 l 1
 80 0 l 1
 80 316 l 1xe840
 303 316 l 1
 303 269 l 1xe440
 129 269 l 1
 129 49 l 1
 409 49 l 1
 409 260 l 2xe840
123 636 m 0xf1c0
 123 657 138 672 159 672 c 0
 180 672 195 657 195 636 c 0
 195 615 180 600 159 600 c 0
 138 600 123 615 123 636 c 0xf1c0
283 636 m 0
 283 657 298 672 319 672 c 0
 340 672 355 657 355 636 c 0
 355 615 340 600 319 600 c 0
 298 600 283 615 283 636 c 0
EndSplineSet
EndChar

StartChar: agrave
Encoding: 224 224 162
Width: 540
GlyphClass: 2
Flags: MW
HStem: 0 49<129 409 129 460> 269 47<129 303 129 129> 467 53<80 239 80 239> 575 100<154 264 154 210>
VStem: 80 49<49 269 49 316 49 316> 80 223<269 316 269 316 269 316 269 520 269 520> 80 380<0 260 0 316 0 316 0 520 0 520> 409 51<49 260 0 325.5>
AnchorPoint: "Anchor-7" 239 675 basechar 0
AnchorPoint: "Anchor-6" 439 0 basechar 0
AnchorPoint: "Anchor-5" 270 0 basechar 0
LayerCount: 2
Fore
SplineSet
409 260 m 2xe9
 409 391 339 467 239 467 c 2
 80 467 l 1
 80 520 l 1xe2
 239 520 l 2
 366 520 460 427 460 260 c 2
 460 0 l 1
 80 0 l 1
 80 316 l 1xe9
 303 316 l 1
 303 269 l 1xe5
 129 269 l 1
 129 49 l 1
 409 49 l 1
 409 260 l 2xe9
154 675 m 1xf9
 208 675 l 1
 264 575 l 1
 210 575 l 1
 154 675 l 1xf9
EndSplineSet
EndChar

StartChar: amacron
Encoding: 257 257 163
Width: 540
GlyphClass: 2
Flags: MW
HStem: 0 49<129 409 129 460> 269 47<129 303 129 129> 467 53<80 239 80 239> 615 38<74 404 74 404>
VStem: 74 330<615 653 615 653> 80 49<49 269 49 316 49 316> 80 223<269 316 269 316 269 316 269 520 269 520> 80 380<0 260 0 316 0 316 0 520 0 520> 409 51<49 260 0 325.5>
AnchorPoint: "Anchor-7" 239 653 basechar 0
AnchorPoint: "Anchor-6" 439 0 basechar 0
AnchorPoint: "Anchor-5" 270 0 basechar 0
LayerCount: 2
Fore
SplineSet
409 260 m 2xf480
 409 391 339 467 239 467 c 2
 80 467 l 1
 80 520 l 1xf1
 239 520 l 2
 366 520 460 427 460 260 c 2
 460 0 l 1
 80 0 l 1
 80 316 l 1xf480
 303 316 l 1
 303 269 l 1xf280
 129 269 l 1
 129 49 l 1
 409 49 l 1
 409 260 l 2xf480
74 615 m 1xf8
 74 653 l 1
 404 653 l 1
 404 615 l 1
 74 615 l 1xf8
EndSplineSet
EndChar

StartChar: aogonek
Encoding: 261 261 164
Width: 540
GlyphClass: 2
Flags: MW
HStem: -200 39<384 543 384 543> 0 49<129 409 129 419> 269 47<129 303 129 129> 467 53<80 239 80 239>
VStem: 80 49<49 269 49 316 49 316> 80 223<269 316 269 316 269 316 269 520 269 520> 80 380<0 260 0 316 0 316 0 520 0 520> 409 51<49 260 0 325.5>
AnchorPoint: "Anchor-7" 239 520 basechar 0
AnchorPoint: "Anchor-6" 439 0 basechar 0
AnchorPoint: "Anchor-5" 270 0 basechar 0
LayerCount: 2
Fore
SplineSet
409 260 m 2xf9
 409 391 339 467 239 467 c 2
 80 467 l 1
 80 520 l 1xf2
 239 520 l 2
 366 520 460 427 460 260 c 2
 460 0 l 1
 384 -161 l 1
 543 -161 l 1
 543 -200 l 1
 325 -200 l 1
 419 0 l 1
 80 0 l 1
 80 316 l 1xf9
 303 316 l 1
 303 269 l 1xf5
 129 269 l 1
 129 49 l 1
 409 49 l 1
 409 260 l 2xf9
EndSplineSet
EndChar

StartChar: aring
Encoding: 229 229 165
Width: 540
GlyphClass: 2
Flags: MW
HStem: 0 49<129 409 129 460> 269 47<129 303 129 129> 467 53<80 239 80 239> 569 26<225 254 225 261> 700 27<225 254>
VStem: 80 49<49 269 49 316 49 316> 80 223<269 316 269 316 269 316 269 520 269 520> 80 380<0 260 0 316 0 316 0 520 0 520> 160 27<633.5 662.5 633.5 670> 291 28<648 648> 409 51<49 260 0 325.5>
AnchorPoint: "Anchor-7" 239 727 basechar 0
AnchorPoint: "Anchor-6" 439 0 basechar 0
AnchorPoint: "Anchor-5" 270 0 basechar 0
LayerCount: 2
Fore
SplineSet
409 260 m 2xfce0
 409 391 339 467 239 467 c 2
 80 467 l 1
 80 520 l 1xf9
 239 520 l 2
 366 520 460 427 460 260 c 2
 460 0 l 1
 80 0 l 1
 80 316 l 1xfce0
 303 316 l 1
 303 269 l 1xfa20
 129 269 l 1
 129 49 l 1
 409 49 l 1
 409 260 l 2xfce0
160 648 m 0
 160 692 194 727 239 727 c 0
 283 727 319 692 319 648 c 0
 319 604 283 569 239 569 c 0
 194 569 160 604 160 648 c 0
187 648 m 0
 187 619 211 595 239 595 c 0
 269 595 292 619 291 648 c 0
 292 677 269 700 239 700 c 0
 211 700 187 677 187 648 c 0
EndSplineSet
EndChar

StartChar: atilde
Encoding: 227 227 166
Width: 540
GlyphClass: 2
Flags: MW
HStem: 0 49<129 409 129 460> 269 47<129 303 129 129> 467 53<80 239 80 239> 571 35<283.5 319 283.5 328.5> 644 35<162.5 197.5>
VStem: 80 49<49 269 49 316 49 316> 80 223<269 316 269 316 269 316 269 520 269 520> 80 380<0 260 0 316 0 316 0 520 0 520> 97 35<575 595.5 575 606> 351 35<652 674> 409 51<49 260 0 325.5>
AnchorPoint: "Anchor-7" 239 676 basechar 0
AnchorPoint: "Anchor-6" 439 0 basechar 0
AnchorPoint: "Anchor-5" 270 0 basechar 0
LayerCount: 2
Fore
SplineSet
409 260 m 2xfc20
 409 391 339 467 239 467 c 2
 80 467 l 1
 80 520 l 1xf9
 239 520 l 2
 366 520 460 427 460 260 c 2
 460 0 l 1
 80 0 l 1
 80 316 l 1xfc20
 303 316 l 1
 303 269 l 1xfa20
 129 269 l 1
 129 49 l 1
 409 49 l 1
 409 260 l 2xfc20
97 575 m 1xf8e0
 97 637 131 679 176 679 c 0
 232 679 260 606 307 606 c 0
 331 606 351 630 351 674 c 1
 386 674 l 1
 386 610 350 571 307 571 c 0
 252 571 219 644 176 644 c 0
 149 644 132 616 132 575 c 1
 97 575 l 1xf8e0
EndSplineSet
EndChar

StartChar: ae
Encoding: 230 230 167
Width: 790
GlyphClass: 1
Flags: MW
HStem: 0 53<129 199 129 199 80 199 590 659> 204 47<526 661 526 710 526 661> 269 47<129 264 129 129> 467 53<80 199 80 199 590 661>
VStem: 80 49<53 269 53 316 53 316> 80 184<269 316 269 316 269 316 269 520> 369 51<193.5 325.5> 526 184<204 251 251 251> 661 49<251 467 467 467>
LayerCount: 2
Fore
SplineSet
369 260 m 0xba80
 369 391 298 467 199 467 c 2
 80 467 l 1
 80 520 l 1
 199 520 l 2
 286 520 358 476 395 394 c 1
 431 476 503 520 590 520 c 2
 710 520 l 1
 710 204 l 1xf680
 526 204 l 1
 526 251 l 1xfb
 661 251 l 1xfa80
 661 467 l 1
 590 467 l 2
 490 467 420 391 420 260 c 0
 420 127 491 53 590 53 c 2
 659 53 l 1
 659 0 l 1
 590 0 l 2
 502 0 431 44 395 126 c 1
 358 44 287 0 199 0 c 2
 80 0 l 1
 80 316 l 1xba80
 264 316 l 1
 264 269 l 1xb680
 129 269 l 1
 129 53 l 1
 199 53 l 2
 298 53 369 127 369 260 c 0xba80
EndSplineSet
EndChar

StartChar: b
Encoding: 98 98 168
Width: 560
GlyphClass: 1
Flags: MW
HStem: 0 51<143 277 143 277> 469 51<143 277 143 277>
VStem: 90 53<51 469 51 520 520 720> 447 53<260 325.5>
LayerCount: 2
Fore
SplineSet
277 51 m 2
 376 51 447 127 447 260 c 0
 447 391 377 469 277 469 c 2
 143 469 l 1
 143 51 l 1
 277 51 l 2
90 0 m 1
 90 720 l 1
 143 720 l 1
 143 520 l 1
 277 520 l 2
 404 520 500 427 500 260 c 0
 499 93 405 0 277 0 c 2
 90 0 l 1
EndSplineSet
EndChar

StartChar: c
Encoding: 99 99 169
Width: 440
GlyphClass: 2
Flags: MW
HStem: 0 51<217 380 281 380> 469 51<231 380 281 380>
VStem: 60 51<260 325.5 193.5 343.5>
AnchorPoint: "Anchor-7" 281 520 basechar 0
AnchorPoint: "Anchor-5" 281 0 basechar 0
LayerCount: 2
Fore
SplineSet
380 51 m 1
 380 0 l 1
 281 0 l 2
 153 0 61 93 60 260 c 0
 60 427 154 520 281 520 c 2
 380 520 l 1
 380 469 l 1
 281 469 l 2
 181 469 111 391 111 260 c 0
 111 127 182 51 281 51 c 2
 380 51 l 1
EndSplineSet
EndChar

StartChar: cacute
Encoding: 263 263 170
Width: 440
GlyphClass: 2
Flags: MW
HStem: 0 51<217 380 281 380> 469 51<231 380 281 380> 575 100<256 366 256 366>
VStem: 60 51<260 325.5 193.5 343.5>
AnchorPoint: "Anchor-7" 281 675 basechar 0
AnchorPoint: "Anchor-5" 281 0 basechar 0
LayerCount: 2
Fore
SplineSet
380 51 m 1
 380 0 l 1
 281 0 l 2
 153 0 61 93 60 260 c 0
 60 427 154 520 281 520 c 2
 380 520 l 1
 380 469 l 1
 281 469 l 2
 181 469 111 391 111 260 c 0
 111 127 182 51 281 51 c 2
 380 51 l 1
256 575 m 1
 312 675 l 1
 366 675 l 1
 310 575 l 1
 256 575 l 1
EndSplineSet
EndChar

StartChar: ccaron
Encoding: 269 269 171
Width: 440
GlyphClass: 2
Flags: MW
HStem: 0 51<217 380 281 380> 469 51<231 380 281 380> 579 95<156 290 156 272>
VStem: 60 51<260 325.5 193.5 343.5>
AnchorPoint: "Anchor-7" 281 670 basechar 0
AnchorPoint: "Anchor-5" 281 0 basechar 0
LayerCount: 2
Fore
SplineSet
380 51 m 1
 380 0 l 1
 281 0 l 2
 153 0 61 93 60 260 c 0
 60 427 154 520 281 520 c 2
 380 520 l 1
 380 469 l 1
 281 469 l 2
 181 469 111 391 111 260 c 0
 111 127 182 51 281 51 c 2
 380 51 l 1
156 674 m 1
 212 674 l 1
 281 615 l 1
 350 674 l 1
 406 674 l 1
 290 579 l 1
 272 579 l 1
 156 674 l 1
EndSplineSet
EndChar

StartChar: ccedilla
Encoding: 231 231 172
Width: 440
GlyphClass: 2
Flags: MW
HStem: -235 39<260 278.5 260 290.5> -75 38<260 278.5> 0 51<217 380 281 380> 469 51<231 380 281 380>
VStem: 60 51<260 325.5 193.5 343.5> 322 39<-154 -118>
AnchorPoint: "Anchor-7" 281 520 basechar 0
AnchorPoint: "Anchor-5" 260 -235 basechar 0
LayerCount: 2
Fore
SplineSet
380 51 m 1
 380 0 l 1
 281 0 l 2
 153 0 61 93 60 260 c 0
 60 427 154 520 281 520 c 2
 380 520 l 1
 380 469 l 1
 281 469 l 2
 181 469 111 391 111 260 c 0
 111 127 182 51 281 51 c 2
 380 51 l 1
260 -235 m 1
 260 -196 l 1
 297 -196 322 -172 322 -136 c 0
 322 -100 297 -75 260 -75 c 1
 260 -37 l 1
 321 -37 361 -77 361 -136 c 0
 361 -195 321 -235 260 -235 c 1
EndSplineSet
EndChar

StartChar: cdotaccent
Encoding: 267 267 173
Width: 440
GlyphClass: 2
Flags: MW
HStem: 0 51<217 380 281 380> 469 51<231 380 281 380> 600 72<271 291.5>
VStem: 60 51<260 325.5 193.5 343.5> 245 73<625.5 646.5>
AnchorPoint: "Anchor-7" 281 520 basechar 0
AnchorPoint: "Anchor-5" 281 0 basechar 0
LayerCount: 2
Fore
SplineSet
380 51 m 1
 380 0 l 1
 281 0 l 2
 153 0 61 93 60 260 c 0
 60 427 154 520 281 520 c 2
 380 520 l 1
 380 469 l 1
 281 469 l 2
 181 469 111 391 111 260 c 0
 111 127 182 51 281 51 c 2
 380 51 l 1
245 636 m 0
 245 657 261 672 281 672 c 0
 302 672 318 657 318 636 c 0
 318 615 302 600 281 600 c 0
 261 600 245 615 245 636 c 0
EndSplineSet
EndChar

StartChar: d
Encoding: 100 100 174
Width: 560
GlyphClass: 1
Flags: MW
HStem: 0 51<217.5 417 281 417 281 470> 469 51<231.5 417 281 417>
VStem: 60 51<260 260> 417 53<51 469 469 469 520 720 0 720>
LayerCount: 2
Fore
SplineSet
281 469 m 2
 182 469 111 393 111 260 c 0
 111 129 181 51 281 51 c 2
 417 51 l 1
 417 469 l 1
 281 469 l 2
60 260 m 0
 61 427 153 520 281 520 c 2
 417 520 l 1
 417 720 l 1
 470 720 l 1
 470 0 l 1
 281 0 l 2
 154 0 61 93 60 260 c 0
EndSplineSet
EndChar

StartChar: eth
Encoding: 240 240 175
Width: 595
GlyphClass: 1
Flags: MW
HStem: -5 51<244 350.5 244 364.5> 433 52<244 317 229.5 350.5> 615 35<100 303 100 322 100 303 372 484 372 372> 615 140<245 296 245 322 245 484 245 372>
VStem: 52 52<186.5 293 186.5 307> 100 384<615 650 615 650> 490 52<186.5 264 172.5 293>
LayerCount: 2
Fore
SplineSet
484 650 m 1xe4
 484 615 l 1xe4
 372 615 l 1
 503 372 l 2
 528 333 542 288 542 240 c 0
 542 105 432 -5 297 -5 c 0
 162 -5 52 105 52 240 c 0xea
 52 374 162 485 297 485 c 0
 337 485 375 475 408 458 c 1
 322 615 l 1
 100 615 l 1
 100 650 l 1
 303 650 l 1xe4
 245 755 l 1
 296 755 l 1xd4
 353 650 l 1
 484 650 l 1xe4
104 240 m 0xea
 104 133 191 46 297 46 c 0
 404 46 490 133 490 240 c 0
 490 346 404 433 297 433 c 0
 191 433 104 346 104 240 c 0xea
EndSplineSet
EndChar

StartChar: dcaron
Encoding: 271 271 176
Width: 715
GlyphClass: 1
Flags: MW
HStem: 0 51<217.5 417 281 417 281 470> 469 51<231.5 417 281 417> 596 124<417 591 417 637> 596 204<591 637 591 637>
VStem: 60 51<260 260> 417 53<51 469 469 469 520 720 0 720> 591 46<596 800 596 800>
LayerCount: 2
Fore
SplineSet
281 469 m 2xee
 182 469 111 393 111 260 c 0
 111 129 181 51 281 51 c 2
 417 51 l 1
 417 469 l 1
 281 469 l 2xee
60 260 m 0
 61 427 153 520 281 520 c 2
 417 520 l 1
 417 720 l 1
 470 720 l 1
 470 0 l 1
 281 0 l 2
 154 0 61 93 60 260 c 0
591 596 m 1xde
 591 800 l 1
 637 800 l 1
 637 596 l 1
 591 596 l 1xde
EndSplineSet
EndChar

StartChar: dcroat
Encoding: 273 273 177
Width: 565
GlyphClass: 1
Flags: MW
HStem: 0 51<217.5 417 281 417 281 470> 469 51<231.5 417 281 417> 598 34<165 417 165 417 470 525>
VStem: 60 51<260 260> 417 53<51 469 469 469 520 598 0 598 632 720>
LayerCount: 2
Fore
SplineSet
525 632 m 1
 525 598 l 1
 470 598 l 1
 470 0 l 1
 281 0 l 2
 154 0 61 93 60 260 c 0
 61 427 153 520 281 520 c 2
 417 520 l 1
 417 598 l 1
 165 598 l 1
 165 632 l 1
 417 632 l 1
 417 720 l 1
 470 720 l 1
 470 632 l 1
 525 632 l 1
111 260 m 0
 111 129 181 51 281 51 c 2
 417 51 l 1
 417 469 l 1
 281 469 l 2
 182 469 111 393 111 260 c 0
EndSplineSet
EndChar

StartChar: e
Encoding: 101 101 178
Width: 535
GlyphClass: 2
Flags: MW
HStem: 0 53<217 396 281 396> 204 47<217 406 217 455 217 406> 467 53<231 455 281 406>
VStem: 60 51<260 325.5 193.5 343.5> 406 49<251 467 467 467>
AnchorPoint: "Anchor-7" 320 520 basechar 0
AnchorPoint: "Anchor-6" 365 0 basechar 0
AnchorPoint: "Anchor-5" 320 0 basechar 0
LayerCount: 2
Fore
SplineSet
60 260 m 0
 60 427 154 520 281 520 c 2
 455 520 l 1
 455 204 l 1
 217 204 l 1
 217 251 l 1
 406 251 l 1
 406 467 l 1
 281 467 l 2
 181 467 111 391 111 260 c 0
 111 127 182 53 281 53 c 2
 396 53 l 1
 396 0 l 1
 281 0 l 2
 153 0 61 93 60 260 c 0
EndSplineSet
EndChar

StartChar: eacute
Encoding: 233 233 179
Width: 535
GlyphClass: 2
Flags: MW
HStem: 0 53<217 396 281 396> 204 47<217 406 217 455 217 406> 467 53<231 455 281 406> 575 100<295 405 295 405>
VStem: 60 51<260 325.5 193.5 343.5> 406 49<251 467 467 467>
AnchorPoint: "Anchor-7" 320 675 basechar 0
AnchorPoint: "Anchor-6" 365 0 basechar 0
AnchorPoint: "Anchor-5" 320 0 basechar 0
LayerCount: 2
Fore
SplineSet
60 260 m 0
 60 427 154 520 281 520 c 2
 455 520 l 1
 455 204 l 1
 217 204 l 1
 217 251 l 1
 406 251 l 1
 406 467 l 1
 281 467 l 2
 181 467 111 391 111 260 c 0
 111 127 182 53 281 53 c 2
 396 53 l 1
 396 0 l 1
 281 0 l 2
 153 0 61 93 60 260 c 0
295 575 m 1
 351 675 l 1
 405 675 l 1
 349 575 l 1
 295 575 l 1
EndSplineSet
EndChar

StartChar: ecaron
Encoding: 283 283 180
Width: 535
GlyphClass: 2
Flags: MW
HStem: 0 53<217 396 281 396> 204 47<217 406 217 455 217 406> 467 53<231 455 281 406> 579 95<195 329 195 311>
VStem: 60 51<260 325.5 193.5 343.5> 406 49<251 467 467 467>
AnchorPoint: "Anchor-7" 320 670 basechar 0
AnchorPoint: "Anchor-6" 365 0 basechar 0
AnchorPoint: "Anchor-5" 320 0 basechar 0
LayerCount: 2
Fore
SplineSet
60 260 m 0
 60 427 154 520 281 520 c 2
 455 520 l 1
 455 204 l 1
 217 204 l 1
 217 251 l 1
 406 251 l 1
 406 467 l 1
 281 467 l 2
 181 467 111 391 111 260 c 0
 111 127 182 53 281 53 c 2
 396 53 l 1
 396 0 l 1
 281 0 l 2
 153 0 61 93 60 260 c 0
195 674 m 1
 251 674 l 1
 320 615 l 1
 389 674 l 1
 445 674 l 1
 329 579 l 1
 311 579 l 1
 195 674 l 1
EndSplineSet
EndChar

StartChar: ecircumflex
Encoding: 234 234 181
Width: 535
GlyphClass: 2
Flags: MW
HStem: 0 53<217 396 281 396> 204 47<217 406 217 455 217 406> 467 53<231 455 281 406> 576 95<195 329 311 389 311 445>
VStem: 60 51<260 325.5 193.5 343.5> 406 49<251 467 467 467>
AnchorPoint: "Anchor-7" 320 671 basechar 0
AnchorPoint: "Anchor-6" 365 0 basechar 0
AnchorPoint: "Anchor-5" 320 0 basechar 0
LayerCount: 2
Fore
SplineSet
60 260 m 0
 60 427 154 520 281 520 c 2
 455 520 l 1
 455 204 l 1
 217 204 l 1
 217 251 l 1
 406 251 l 1
 406 467 l 1
 281 467 l 2
 181 467 111 391 111 260 c 0
 111 127 182 53 281 53 c 2
 396 53 l 1
 396 0 l 1
 281 0 l 2
 153 0 61 93 60 260 c 0
195 576 m 1
 311 671 l 1
 329 671 l 1
 445 576 l 1
 389 576 l 1
 320 635 l 1
 251 576 l 1
 195 576 l 1
EndSplineSet
EndChar

StartChar: edieresis
Encoding: 235 235 182
Width: 535
GlyphClass: 2
Flags: MW
HStem: 0 53<217 396 281 396> 204 47<217 406 217 455 217 406> 467 53<231 455 281 406> 600 72<229.5 250.5 389.5 410.5>
VStem: 60 51<260 325.5 193.5 343.5> 204 72<625.5 646.5> 364 72<625.5 646.5> 406 49<251 467 467 467>
AnchorPoint: "Anchor-7" 320 696 basechar 0
AnchorPoint: "Anchor-6" 365 0 basechar 0
AnchorPoint: "Anchor-5" 320 0 basechar 0
LayerCount: 2
Fore
SplineSet
60 260 m 0xfd
 60 427 154 520 281 520 c 2
 455 520 l 1
 455 204 l 1
 217 204 l 1
 217 251 l 1
 406 251 l 1
 406 467 l 1
 281 467 l 2
 181 467 111 391 111 260 c 0
 111 127 182 53 281 53 c 2
 396 53 l 1
 396 0 l 1
 281 0 l 2
 153 0 61 93 60 260 c 0xfd
204 636 m 0
 204 657 219 672 240 672 c 0
 261 672 276 657 276 636 c 0
 276 615 261 600 240 600 c 0
 219 600 204 615 204 636 c 0
364 636 m 0xfe
 364 657 379 672 400 672 c 0
 421 672 436 657 436 636 c 0
 436 615 421 600 400 600 c 0
 379 600 364 615 364 636 c 0xfe
EndSplineSet
EndChar

StartChar: edotaccent
Encoding: 279 279 183
Width: 535
GlyphClass: 2
Flags: MW
HStem: 0 53<217 396 281 396> 204 47<217 406 217 455 217 406> 467 53<231 455 281 406> 600 72<310 330.5>
VStem: 60 51<260 325.5 193.5 343.5> 284 73<625.5 646.5> 406 49<251 467 467 467>
AnchorPoint: "Anchor-7" 320 520 basechar 0
AnchorPoint: "Anchor-6" 365 0 basechar 0
AnchorPoint: "Anchor-5" 320 0 basechar 0
LayerCount: 2
Fore
SplineSet
60 260 m 0
 60 427 154 520 281 520 c 2
 455 520 l 1
 455 204 l 1
 217 204 l 1
 217 251 l 1
 406 251 l 1
 406 467 l 1
 281 467 l 2
 181 467 111 391 111 260 c 0
 111 127 182 53 281 53 c 2
 396 53 l 1
 396 0 l 1
 281 0 l 2
 153 0 61 93 60 260 c 0
284 636 m 0
 284 657 300 672 320 672 c 0
 341 672 357 657 357 636 c 0
 357 615 341 600 320 600 c 0
 300 600 284 615 284 636 c 0
EndSplineSet
EndChar

StartChar: egrave
Encoding: 232 232 184
Width: 535
GlyphClass: 2
Flags: MW
HStem: 0 53<217 396 281 396> 204 47<217 406 217 455 217 406> 467 53<231 455 281 406> 575 100<235 345 235 291>
VStem: 60 51<260 325.5 193.5 343.5> 406 49<251 467 467 467>
AnchorPoint: "Anchor-7" 320 675 basechar 0
AnchorPoint: "Anchor-6" 365 0 basechar 0
AnchorPoint: "Anchor-5" 320 0 basechar 0
LayerCount: 2
Fore
SplineSet
60 260 m 0
 60 427 154 520 281 520 c 2
 455 520 l 1
 455 204 l 1
 217 204 l 1
 217 251 l 1
 406 251 l 1
 406 467 l 1
 281 467 l 2
 181 467 111 391 111 260 c 0
 111 127 182 53 281 53 c 2
 396 53 l 1
 396 0 l 1
 281 0 l 2
 153 0 61 93 60 260 c 0
235 675 m 1
 289 675 l 1
 345 575 l 1
 291 575 l 1
 235 675 l 1
EndSplineSet
EndChar

StartChar: emacron
Encoding: 275 275 185
Width: 535
GlyphClass: 2
Flags: MW
HStem: 0 53<217 396 281 396> 204 47<217 406 217 455 217 406> 467 53<231 455 281 406> 615 38<155 485 155 485>
VStem: 60 51<260 325.5 193.5 343.5> 155 330<615 653 615 653> 406 49<251 467 467 467>
AnchorPoint: "Anchor-7" 320 653 basechar 0
AnchorPoint: "Anchor-6" 365 0 basechar 0
AnchorPoint: "Anchor-5" 320 0 basechar 0
LayerCount: 2
Fore
SplineSet
60 260 m 0xfa
 60 427 154 520 281 520 c 2
 455 520 l 1
 455 204 l 1
 217 204 l 1
 217 251 l 1
 406 251 l 1
 406 467 l 1
 281 467 l 2
 181 467 111 391 111 260 c 0
 111 127 182 53 281 53 c 2
 396 53 l 1
 396 0 l 1
 281 0 l 2
 153 0 61 93 60 260 c 0xfa
155 615 m 1xfc
 155 653 l 1
 485 653 l 1
 485 615 l 1
 155 615 l 1xfc
EndSplineSet
EndChar

StartChar: eogonek
Encoding: 281 281 186
Width: 535
GlyphClass: 2
Flags: MW
HStem: -200 39<310 469 310 469> 0 53<217 396 281 345 386 396 386 386> 204 47<217 406 217 455 217 406> 467 53<231 455 281 406>
VStem: 60 51<260 325.5 193.5 343.5> 345 51<0 53> 406 49<251 467 467 467>
AnchorPoint: "Anchor-7" 320 520 basechar 0
AnchorPoint: "Anchor-6" 365 0 basechar 0
AnchorPoint: "Anchor-5" 320 0 basechar 0
LayerCount: 2
Fore
SplineSet
60 260 m 0
 60 427 154 520 281 520 c 2
 455 520 l 1
 455 204 l 1
 217 204 l 1
 217 251 l 1
 406 251 l 1
 406 467 l 1xfa
 281 467 l 2
 181 467 111 391 111 260 c 0
 111 127 182 53 281 53 c 2
 396 53 l 1
 396 0 l 1
 386 0 l 1
 310 -161 l 1
 469 -161 l 1
 469 -200 l 1
 251 -200 l 1
 345 0 l 1xfe
 281 0 l 2
 153 0 61 93 60 260 c 0
EndSplineSet
EndChar

StartChar: uni1EBD
Encoding: 7869 7869 187
Width: 535
GlyphClass: 2
Flags: MW
HStem: 0 53<217 396 281 396> 204 47<217 406 217 455 217 406> 467 53<231 455 281 406> 571 35<364.5 400 364.5 409.5> 644 35<243.5 278.5>
VStem: 60 51<260 325.5 193.5 343.5> 178 35<575 595.5 575 606> 406 49<251 467 467 467> 432 35<652 674>
AnchorPoint: "Anchor-7" 320 676 basechar 0
AnchorPoint: "Anchor-6" 365 0 basechar 0
AnchorPoint: "Anchor-5" 320 0 basechar 0
LayerCount: 2
Fore
SplineSet
60 260 m 0xff
 60 427 154 520 281 520 c 2
 455 520 l 1
 455 204 l 1
 217 204 l 1
 217 251 l 1
 406 251 l 1
 406 467 l 1
 281 467 l 2
 181 467 111 391 111 260 c 0
 111 127 182 53 281 53 c 2
 396 53 l 1
 396 0 l 1
 281 0 l 2
 153 0 61 93 60 260 c 0xff
178 575 m 1
 178 637 212 679 257 679 c 0
 313 679 341 606 388 606 c 0
 412 606 432 630 432 674 c 1
 467 674 l 1
 467 610 431 571 388 571 c 0xfe80
 333 571 300 644 257 644 c 0
 230 644 213 616 213 575 c 1
 178 575 l 1
EndSplineSet
EndChar

StartChar: f
Encoding: 102 102 188
Width: 380
GlyphClass: 1
Flags: MW
HStem: 469 51<143 320 143 320> 659 51<143 320 143 143>
VStem: 90 53<0 469 520 659> 90 230<469 520 659 710 469 710 469 710>
LayerCount: 2
Fore
SplineSet
320 659 m 1xd0
 143 659 l 1
 143 520 l 1xe0
 320 520 l 1
 320 469 l 1xd0
 143 469 l 1
 143 0 l 1
 90 0 l 1
 90 710 l 1xe0
 320 710 l 1
 320 659 l 1xd0
EndSplineSet
EndChar

StartChar: g
Encoding: 103 103 189
Width: 610
GlyphClass: 2
Flags: MW
HStem: -175 47<172 360 172 360> 0 47<72 171 222 493 72 171> 150 49<270.5 328.5 233.5 353> 375 245<500 514 500 500> 491 49<233.5 324.5 209 328.5>
VStem: 60 51<310.5 386.5 303.5 394> 171 51<47 156 47 173 47 173> 451 51<303.5 350 296 386.5> 451 63<375 386.5> 467 47<454 620 375 620> 493 47<-6 0 0 0>
AnchorPoint: "Anchor-7" 281 540 basechar 0
AnchorPoint: "Anchor-5" 280 -175 basechar 0
LayerCount: 2
Fore
SplineSet
111 345 m 0xee40
 111 262 186 199 281 199 c 0
 376 199 451 262 451 345 c 0xee80
 451 428 376 491 281 491 c 0
 186 491 111 428 111 345 c 0xee40
60 345 m 0
 60 443 137 540 281 540 c 0
 368 540 431 504 467 454 c 1xee40
 467 620 l 1
 514 620 l 1
 514 375 l 1xf640
 500 375 l 1
 501 365 502 355 502 345 c 0xf7
 502 247 425 150 281 150 c 0
 260 150 240 152 222 156 c 1
 222 47 l 1
 540 47 l 1
 540 -6 l 2
 540 -104 473 -176 360 -175 c 2
 172 -175 l 1
 172 -128 l 1
 360 -128 l 2
 446 -128 493 -77 493 -6 c 2
 493 0 l 1xee20
 72 0 l 1
 72 47 l 1
 171 47 l 1
 171 173 l 1
 98 208 60 276 60 345 c 0
EndSplineSet
EndChar

StartChar: gbreve
Encoding: 287 287 190
Width: 610
GlyphClass: 2
Flags: MW
HStem: -175 47<172 360 172 360> 0 47<72 171 222 493 72 171> 150 49<270.5 328.5 233.5 353> 375 245<500 514 500 500> 491 49<233.5 324.5 209 328.5> 585 40<265 301 265 312.5>
VStem: 60 51<310.5 386.5 303.5 394> 171 51<47 156 47 173 47 173> 184 39<667.5 686 667.5 686> 344 38<667.5 686> 451 51<303.5 350 296 386.5> 451 63<375 386.5> 467 47<454 620 375 620> 493 47<-6 0 0 0>
AnchorPoint: "Anchor-7" 283 687 basechar 0
AnchorPoint: "Anchor-5" 280 -175 basechar 0
LayerCount: 2
Fore
SplineSet
111 345 m 0xef48
 111 262 186 199 281 199 c 0
 376 199 451 262 451 345 c 0xef50
 451 428 376 491 281 491 c 0
 186 491 111 428 111 345 c 0xef48
60 345 m 0
 60 443 137 540 281 540 c 0
 368 540 431 504 467 454 c 1xef48
 467 620 l 1
 514 620 l 1
 514 375 l 1xf348
 500 375 l 1
 501 365 502 355 502 345 c 0xf360
 502 247 425 150 281 150 c 0
 260 150 240 152 222 156 c 1
 222 47 l 1
 540 47 l 1
 540 -6 l 2
 540 -104 473 -176 360 -175 c 2
 172 -175 l 1
 172 -128 l 1
 360 -128 l 2
 446 -128 493 -77 493 -6 c 2
 493 0 l 1xef44
 72 0 l 1
 72 47 l 1
 171 47 l 1
 171 173 l 1
 98 208 60 276 60 345 c 0
184 686 m 1xeec8
 223 686 l 1
 223 649 247 625 283 625 c 0
 319 625 344 649 344 686 c 1
 382 686 l 1
 382 625 342 585 283 585 c 0
 224 585 184 625 184 686 c 1xeec8
EndSplineSet
EndChar

StartChar: uni0123
Encoding: 291 291 191
Width: 610
GlyphClass: 2
Flags: MW
HStem: -175 47<172 360 172 360> 0 47<72 171 222 493 72 171> 150 49<270.5 328.5 233.5 353> 375 245<500 514 500 500> 491 49<233.5 324.5 209 328.5>
VStem: 60 51<310.5 386.5 303.5 394> 171 51<47 156 47 173 47 173> 258 46<603 707 603 707> 451 51<303.5 350 296 386.5> 451 63<375 386.5> 467 47<454 620 375 620> 493 47<-6 0 0 0>
AnchorPoint: "Anchor-7" 309 817 basechar 0
AnchorPoint: "Anchor-5" 280 -175 basechar 0
LayerCount: 2
Fore
SplineSet
111 345 m 0xef20
 111 262 186 199 281 199 c 0
 376 199 451 262 451 345 c 0xef40
 451 428 376 491 281 491 c 0
 186 491 111 428 111 345 c 0xef20
60 345 m 0
 60 443 137 540 281 540 c 0
 368 540 431 504 467 454 c 1xef20
 467 620 l 1
 514 620 l 1
 514 375 l 1xf720
 500 375 l 1
 501 365 502 355 502 345 c 0xf780
 502 247 425 150 281 150 c 0
 260 150 240 152 222 156 c 1
 222 47 l 1
 540 47 l 1
 540 -6 l 2
 540 -104 473 -176 360 -175 c 2
 172 -175 l 1
 172 -128 l 1
 360 -128 l 2
 446 -128 493 -77 493 -6 c 2
 493 0 l 1xef10
 72 0 l 1
 72 47 l 1
 171 47 l 1
 171 173 l 1
 98 208 60 276 60 345 c 0
258 603 m 1
 258 707 l 1
 313 817 l 1
 359 817 l 1
 304 707 l 1
 304 603 l 1
 258 603 l 1
EndSplineSet
EndChar

StartChar: gdotaccent
Encoding: 289 289 192
Width: 610
GlyphClass: 2
Flags: MW
HStem: -175 47<172 360 172 360> 0 47<72 171 222 493 72 171> 150 49<270.5 328.5 233.5 353> 375 245<500 514 500 500> 491 49<233.5 324.5 209 328.5> 620 72<271 291.5>
VStem: 60 51<310.5 386.5 303.5 394> 171 51<47 156 47 173 47 173> 245 73<645.5 666.5> 451 51<303.5 350 296 386.5> 451 63<375 386.5> 467 47<454 620 375 620> 493 47<-6 0 0 0>
AnchorPoint: "Anchor-7" 281 540 basechar 0
AnchorPoint: "Anchor-5" 280 -175 basechar 0
LayerCount: 2
Fore
SplineSet
111 345 m 0xeb10
 111 262 186 199 281 199 c 0
 376 199 451 262 451 345 c 0xeb20
 451 428 376 491 281 491 c 0
 186 491 111 428 111 345 c 0xeb10
60 345 m 0
 60 443 137 540 281 540 c 0
 368 540 431 504 467 454 c 1xeb10
 467 620 l 1
 514 620 l 1
 514 375 l 1xf310
 500 375 l 1
 501 365 502 355 502 345 c 0xf340
 502 247 425 150 281 150 c 0
 260 150 240 152 222 156 c 1
 222 47 l 1
 540 47 l 1
 540 -6 l 2
 540 -104 473 -176 360 -175 c 2
 172 -175 l 1
 172 -128 l 1
 360 -128 l 2
 446 -128 493 -77 493 -6 c 2
 493 0 l 1xeb08
 72 0 l 1
 72 47 l 1
 171 47 l 1
 171 173 l 1
 98 208 60 276 60 345 c 0
245 656 m 0xef90
 245 677 261 692 281 692 c 0
 302 692 318 677 318 656 c 0
 318 635 302 620 281 620 c 0
 261 620 245 635 245 656 c 0xef90
EndSplineSet
EndChar

StartChar: h
Encoding: 104 104 193
Width: 540
GlyphClass: 1
Flags: MW
HStem: 469 51<143 295 143 295>
VStem: 90 53<0 469 520 710> 401 53<0 357 0 390>
LayerCount: 2
Fore
SplineSet
90 0 m 1
 90 710 l 1
 143 710 l 1
 143 520 l 1
 295 520 l 2
 387 520 454 452 454 357 c 2
 454 0 l 1
 401 0 l 1
 401 357 l 2
 401 423 357 469 295 469 c 2
 143 469 l 1
 143 0 l 1
 90 0 l 1
EndSplineSet
EndChar

StartChar: hbar
Encoding: 295 295 194
Width: 540
GlyphClass: 1
Flags: MW
HStem: 469 51<149 301 149 301> 598 34<46 96 46 96 149 406>
VStem: 96 53<0 469 520 598 632 710> 407 53<0 357 0 390>
LayerCount: 2
Fore
SplineSet
406 632 m 1
 406 598 l 1
 149 598 l 1
 149 520 l 1
 301 520 l 2
 393 520 460 452 460 357 c 2
 460 0 l 1
 407 0 l 1
 407 357 l 2
 407 423 363 469 301 469 c 2
 149 469 l 1
 149 0 l 1
 96 0 l 1
 96 598 l 1
 46 598 l 1
 46 632 l 1
 96 632 l 1
 96 710 l 1
 149 710 l 1
 149 632 l 1
 406 632 l 1
EndSplineSet
EndChar

StartChar: i
Encoding: 105 105 195
Width: 295
GlyphClass: 2
Flags: MW
HStem: 600 72<137 157.5>
VStem: 111 73<625.5 646.5> 121 53<0 520 0 520>
AnchorPoint: "Anchor-7" 147 520 basechar 0
AnchorPoint: "Anchor-6" 153 0 basechar 0
AnchorPoint: "Anchor-5" 147 0 basechar 0
LayerCount: 2
Fore
SplineSet
121 0 m 1xa0
 121 520 l 1
 174 520 l 1
 174 0 l 1
 121 0 l 1xa0
111 636 m 0xc0
 111 657 127 672 147 672 c 0
 168 672 184 657 184 636 c 0
 184 615 168 600 147 600 c 0
 127 600 111 615 111 636 c 0xc0
EndSplineSet
Substitution2: "Single Substitution lookup 14 subtable" dotlessi
Substitution2: "'locl' Localized Forms in Latin lookup 3 subtable" i.loclTRK
Substitution2: "'aalt' Access All Alternates in Latin lookup 0 subtable" i.loclTRK
EndChar

StartChar: dotlessi
Encoding: 305 305 196
Width: 295
GlyphClass: 2
Flags: MW
HStem: 0 520<121 174 121 174>
VStem: 121 53<0 520 0 520>
AnchorPoint: "Anchor-7" 147 520 basechar 0
AnchorPoint: "Anchor-6" 153 0 basechar 0
AnchorPoint: "Anchor-5" 147 0 basechar 0
LayerCount: 2
Fore
SplineSet
121 0 m 1
 121 520 l 1
 174 520 l 1
 174 0 l 1
 121 0 l 1
EndSplineSet
EndChar

StartChar: iacute
Encoding: 237 237 197
Width: 295
GlyphClass: 2
Flags: MW
HStem: 575 100<122 232 122 232>
VStem: 121 53<0 520 0 520>
AnchorPoint: "Anchor-7" 147 675 basechar 0
AnchorPoint: "Anchor-6" 153 0 basechar 0
AnchorPoint: "Anchor-5" 147 0 basechar 0
LayerCount: 2
Fore
SplineSet
121 0 m 1
 121 520 l 1
 174 520 l 1
 174 0 l 1
 121 0 l 1
122 575 m 1
 178 675 l 1
 232 675 l 1
 176 575 l 1
 122 575 l 1
EndSplineSet
EndChar

StartChar: icircumflex
Encoding: 238 238 198
Width: 295
GlyphClass: 2
Flags: MW
HStem: 658 13<147 147>
VStem: 121 53<0 520 0 520>
AnchorPoint: "Anchor-7" 147 671 basechar 0
AnchorPoint: "Anchor-6" 153 0 basechar 0
AnchorPoint: "Anchor-5" 147 0 basechar 0
LayerCount: 2
Fore
SplineSet
121 0 m 1
 121 520 l 1
 174 520 l 1
 174 0 l 1
 121 0 l 1
22 572 m 1
 138 671 l 1
 156 671 l 1
 272 572 l 1
 208 572 l 1
 147 658 l 1
 86 572 l 1
 22 572 l 1
EndSplineSet
EndChar

StartChar: idieresis
Encoding: 239 239 199
Width: 295
GlyphClass: 2
Flags: MW
HStem: 600 72<56.5 77.5 216.5 237.5>
VStem: 31 72<625.5 646.5> 121 53<0 520 0 520> 191 72<625.5 646.5>
AnchorPoint: "Anchor-7" 147 696 basechar 0
AnchorPoint: "Anchor-6" 153 0 basechar 0
AnchorPoint: "Anchor-5" 147 0 basechar 0
LayerCount: 2
Fore
SplineSet
121 0 m 1
 121 520 l 1
 174 520 l 1
 174 0 l 1
 121 0 l 1
31 636 m 0xf0
 31 657 46 672 67 672 c 0
 88 672 103 657 103 636 c 0
 103 615 88 600 67 600 c 0
 46 600 31 615 31 636 c 0xf0
191 636 m 0
 191 657 206 672 227 672 c 0
 248 672 263 657 263 636 c 0
 263 615 248 600 227 600 c 0
 206 600 191 615 191 636 c 0
EndSplineSet
EndChar

StartChar: i.loclTRK
Encoding: 65573 -1 200
Width: 295
GlyphClass: 2
Flags: MW
HStem: 600 72<137 157.5>
VStem: 111 73<625.5 646.5> 121 53<0 520 0 520>
AnchorPoint: "Anchor-7" 147 520 basechar 0
AnchorPoint: "Anchor-6" 153 0 basechar 0
AnchorPoint: "Anchor-5" 147 0 basechar 0
LayerCount: 2
Fore
SplineSet
121 0 m 1xa0
 121 520 l 1
 174 520 l 1
 174 0 l 1
 121 0 l 1xa0
111 636 m 0xc0
 111 657 127 672 147 672 c 0
 168 672 184 657 184 636 c 0
 184 615 168 600 147 600 c 0
 127 600 111 615 111 636 c 0xc0
EndSplineSet
EndChar

StartChar: igrave
Encoding: 236 236 201
Width: 295
GlyphClass: 2
Flags: MW
HStem: 575 100<62 172 62 118>
VStem: 121 53<0 520 0 520>
AnchorPoint: "Anchor-7" 147 675 basechar 0
AnchorPoint: "Anchor-6" 153 0 basechar 0
AnchorPoint: "Anchor-5" 147 0 basechar 0
LayerCount: 2
Fore
SplineSet
121 0 m 1
 121 520 l 1
 174 520 l 1
 174 0 l 1
 121 0 l 1
62 675 m 1
 116 675 l 1
 172 575 l 1
 118 575 l 1
 62 675 l 1
EndSplineSet
EndChar

StartChar: imacron
Encoding: 299 299 202
Width: 295
GlyphClass: 2
Flags: MW
HStem: 612 38<12 282 12 282>
VStem: 121 53<0 520 0 520>
AnchorPoint: "Anchor-7" 147 671 basechar 0
AnchorPoint: "Anchor-6" 153 0 basechar 0
AnchorPoint: "Anchor-5" 147 0 basechar 0
LayerCount: 2
Fore
SplineSet
121 0 m 1
 121 520 l 1
 174 520 l 1
 174 0 l 1
 121 0 l 1
12 612 m 1
 12 650 l 1
 282 650 l 1
 282 612 l 1
 12 612 l 1
EndSplineSet
EndChar

StartChar: iogonek
Encoding: 303 303 203
Width: 295
GlyphClass: 2
Flags: MW
HStem: -200 39<98 257 98 257> 600 72<137 157.5>
VStem: 111 73<625.5 646.5> 121 53<0 520 0 520>
AnchorPoint: "Anchor-7" 147 520 basechar 0
AnchorPoint: "Anchor-6" 153 0 basechar 0
AnchorPoint: "Anchor-5" 147 0 basechar 0
LayerCount: 2
Fore
SplineSet
121 0 m 1x90
 121 520 l 1
 174 520 l 1
 174 0 l 1
 98 -161 l 1
 257 -161 l 1
 257 -200 l 1
 39 -200 l 1
 133 0 l 1
 121 0 l 1x90
111 636 m 0xe0
 111 657 127 672 147 672 c 0
 168 672 184 657 184 636 c 0
 184 615 168 600 147 600 c 0
 127 600 111 615 111 636 c 0xe0
EndSplineSet
EndChar

StartChar: itilde
Encoding: 297 297 204
Width: 295
GlyphClass: 2
Flags: MW
HStem: 571 35<191.5 227 191.5 236.5> 644 35<70.5 105.5>
VStem: 5 35<575 595.5 575 606> 121 53<0 520 0 520> 259 35<652 674>
AnchorPoint: "Anchor-7" 147 676 basechar 0
AnchorPoint: "Anchor-6" 153 0 basechar 0
AnchorPoint: "Anchor-5" 147 0 basechar 0
LayerCount: 2
Fore
SplineSet
121 0 m 1
 121 520 l 1
 174 520 l 1
 174 0 l 1
 121 0 l 1
5 575 m 1
 5 637 39 679 84 679 c 0
 140 679 168 606 215 606 c 0
 239 606 259 630 259 674 c 1
 294 674 l 1
 294 610 258 571 215 571 c 0
 160 571 127 644 84 644 c 0
 57 644 40 616 40 575 c 1
 5 575 l 1
EndSplineSet
EndChar

StartChar: j
Encoding: 106 106 205
Width: 290
GlyphClass: 2
Flags: MW
HStem: -200 51<-16 117 -16 117 -16 170> 594 72<134 154.5>
VStem: -16 186<-200 -149 -149 -149> 108 73<619.5 640.5> 117 53<-149 514 -200 514>
AnchorPoint: "Anchor-7" 144 514 basechar 0
AnchorPoint: "Anchor-5" 144 -200 basechar 0
LayerCount: 2
Fore
SplineSet
-16 -200 m 1xa0
 -16 -149 l 1xa0
 117 -149 l 1
 117 514 l 1
 170 514 l 1
 170 -200 l 1x88
 -16 -200 l 1xa0
108 630 m 0xd0
 108 651 124 666 144 666 c 0
 165 666 181 651 181 630 c 0
 181 609 165 594 144 594 c 0
 124 594 108 609 108 630 c 0xd0
EndSplineSet
Substitution2: "Single Substitution lookup 16 subtable" uni006A0301
Substitution2: "Single Substitution lookup 14 subtable" uni0237
Substitution2: "'aalt' Access All Alternates in Latin lookup 0 subtable" uni006A0301
EndChar

StartChar: uni0237
Encoding: 567 567 206
Width: 290
GlyphClass: 2
Flags: MW
HStem: -200 51<-16 117 -16 117 -16 170>
VStem: -16 186<-200 -149 -149 -149> 117 53<-149 514 -200 514>
AnchorPoint: "Anchor-7" 144 514 basechar 0
AnchorPoint: "Anchor-5" 144 -200 basechar 0
LayerCount: 2
Fore
SplineSet
-16 -200 m 1xc0
 -16 -149 l 1xc0
 117 -149 l 1
 117 514 l 1
 170 514 l 1
 170 -200 l 1xa0
 -16 -200 l 1xc0
EndSplineSet
EndChar

StartChar: uni006A0301
Encoding: 65574 -1 207
Width: 290
GlyphClass: 2
Flags: MW
HStem: -200 51<-16 117 -16 117 -16 170> 569 100<119 229 119 229>
VStem: -16 186<-200 -149 -149 -149> 117 53<-149 514 -200 514>
AnchorPoint: "Anchor-7" 144 669 basechar 0
AnchorPoint: "Anchor-5" 144 -200 basechar 0
LayerCount: 2
Fore
SplineSet
-16 -200 m 1xa0
 -16 -149 l 1xe0
 117 -149 l 1
 117 514 l 1
 170 514 l 1
 170 -200 l 1x90
 -16 -200 l 1xa0
119 569 m 1
 175 669 l 1
 229 669 l 1
 173 569 l 1
 119 569 l 1
EndSplineSet
EndChar

StartChar: k
Encoding: 107 107 208
Width: 565
GlyphClass: 2
Flags: MW
HStem: 230 50<155 322 155 341 155 322>
VStem: 102 53<0 230 0 280 280 710>
AnchorPoint: "Anchor-7" 283 710 basechar 0
AnchorPoint: "Anchor-5" 283 0 basechar 0
LayerCount: 2
Fore
SplineSet
437 520 m 1
 491 520 l 1
 374 275 l 1
 505 0 l 1
 451 0 l 1
 341 230 l 1
 155 230 l 1
 155 0 l 1
 102 0 l 1
 102 710 l 1
 155 710 l 1
 155 280 l 1
 322 280 l 1
 437 520 l 1
EndSplineSet
Substitution2: "'ss02' Style Set 2 in Latin lookup 10 subtable" k.ss02
Substitution2: "'aalt' Access All Alternates in Latin lookup 0 subtable" k.ss02
EndChar

StartChar: uni0137
Encoding: 311 311 209
Width: 565
GlyphClass: 2
Flags: MW
HStem: 230 50<155 322 155 341 155 322>
VStem: 102 53<0 230 0 280 280 710>
AnchorPoint: "Anchor-7" 283 710 basechar 0
AnchorPoint: "Anchor-5" 243 -204 basechar 0
LayerCount: 2
Fore
SplineSet
437 520 m 1
 491 520 l 1
 374 275 l 1
 505 0 l 1
 451 0 l 1
 341 230 l 1
 155 230 l 1
 155 0 l 1
 102 0 l 1
 102 710 l 1
 155 710 l 1
 155 280 l 1
 322 280 l 1
 437 520 l 1
189 -204 m 1
 261 -50 l 1
 302 -50 l 1
 230 -204 l 1
 189 -204 l 1
EndSplineSet
EndChar

StartChar: l
Encoding: 108 108 210
Width: 390
GlyphClass: 2
Flags: MW
HStem: 0 51<143 320 143 320>
VStem: 90 53<51 710 51 710 51 710> 90 230<0 51 0 710>
AnchorPoint: "Anchor-7" 117 710 basechar 0
AnchorPoint: "Anchor-5" 202 0 basechar 0
LayerCount: 2
Fore
SplineSet
320 0 m 1xa0
 90 0 l 1
 90 710 l 1
 143 710 l 1
 143 51 l 1xc0
 320 51 l 1
 320 0 l 1xa0
EndSplineSet
EndChar

StartChar: lacute
Encoding: 314 314 211
Width: 390
GlyphClass: 2
Flags: MW
HStem: 0 51<143 320 143 320> 765 100<92 202 92 202>
VStem: 90 53<51 710 51 710 51 710> 90 230<0 51 0 710>
AnchorPoint: "Anchor-7" 117 865 basechar 0
AnchorPoint: "Anchor-5" 202 0 basechar 0
LayerCount: 2
Fore
SplineSet
320 0 m 1x90
 90 0 l 1
 90 710 l 1
 143 710 l 1
 143 51 l 1xe0
 320 51 l 1
 320 0 l 1x90
92 765 m 1
 148 865 l 1
 202 865 l 1
 146 765 l 1
 92 765 l 1
EndSplineSet
EndChar

StartChar: lcaron
Encoding: 318 318 212
Width: 390
GlyphClass: 2
Flags: MW
HStem: 0 51<143 320 143 320> 769 95<-8 126 -8 108>
VStem: 90 53<51 710 51 710 51 710> 90 230<0 51 0 710>
AnchorPoint: "Anchor-7" 117 860 basechar 0
AnchorPoint: "Anchor-5" 202 0 basechar 0
LayerCount: 2
Fore
SplineSet
320 0 m 1x90
 90 0 l 1
 90 710 l 1
 143 710 l 1
 143 51 l 1xe0
 320 51 l 1
 320 0 l 1x90
-8 864 m 1
 48 864 l 1
 117 805 l 1
 186 864 l 1
 242 864 l 1
 126 769 l 1
 108 769 l 1
 -8 864 l 1
EndSplineSet
EndChar

StartChar: uni013C
Encoding: 316 316 213
Width: 390
GlyphClass: 2
Flags: MW
HStem: 0 51<143 320 143 320>
VStem: 90 53<51 710 51 710 51 710> 90 230<0 51 0 710>
AnchorPoint: "Anchor-7" 117 710 basechar 0
AnchorPoint: "Anchor-5" 162 -204 basechar 0
LayerCount: 2
Fore
SplineSet
320 0 m 1xa0
 90 0 l 1
 90 710 l 1
 143 710 l 1
 143 51 l 1xc0
 320 51 l 1
 320 0 l 1xa0
108 -204 m 1
 180 -50 l 1
 221 -50 l 1
 149 -204 l 1
 108 -204 l 1
EndSplineSet
EndChar

StartChar: ldot
Encoding: 320 320 214
Width: 410
GlyphClass: 2
Flags: MW
HStem: 0 51<143 320 143 320> 266 128<323.5 359>
VStem: 90 53<51 710 51 710 51 710> 90 230<0 51 0 710> 277 128<312.5 348>
AnchorPoint: "Anchor-7" 117 710 basechar 0
AnchorPoint: "Anchor-5" 202 0 basechar 0
LayerCount: 2
Fore
SplineSet
320 0 m 1x90
 90 0 l 1
 90 710 l 1
 143 710 l 1
 143 51 l 1xe8
 320 51 l 1
 320 0 l 1x90
277 330 m 0
 277 366 306 394 341 394 c 0
 377 394 405 366 405 330 c 0
 405 295 377 266 341 266 c 0
 306 266 277 295 277 330 c 0
EndSplineSet
Ligature2: "Ligature Substitution lookup 15 subtable" l periodcentered
EndChar

StartChar: lslash
Encoding: 322 322 215
Width: 386
GlyphClass: 2
Flags: MW
HStem: 0 51<143 320 143 320>
VStem: 90 53<51 213 213 213 298 710> 90 195<0 406 213 406 362 406 362 710>
AnchorPoint: "Anchor-7" 117 710 basechar 0
AnchorPoint: "Anchor-5" 202 0 basechar 0
LayerCount: 2
Fore
SplineSet
50 183 m 1xc0
 50 228 l 1
 90 258 l 1
 90 710 l 1
 143 710 l 1
 143 298 l 1xc0
 285 406 l 1
 285 362 l 1xa0
 143 254 l 1
 143 51 l 1
 320 51 l 1
 320 0 l 1
 90 0 l 1
 90 213 l 1
 50 183 l 1xc0
EndSplineSet
EndChar

StartChar: m
Encoding: 109 109 216
Width: 765
GlyphClass: 1
Flags: MW
HStem: 469 51<139 356 139 139 409 409 409 520>
VStem: 86 53<0 469 0 520 0 520> 356 53<0 469 0 469> 626 53<0 357 0 390>
LayerCount: 2
Fore
SplineSet
356 0 m 1
 356 469 l 1
 139 469 l 1
 139 0 l 1
 86 0 l 1
 86 520 l 1
 520 520 l 2
 612 520 679 452 679 357 c 2
 679 0 l 1
 626 0 l 1
 626 357 l 2
 626 423 582 469 520 469 c 2
 409 469 l 1
 409 0 l 1
 356 0 l 1
EndSplineSet
EndChar

StartChar: n
Encoding: 110 110 217
Width: 540
GlyphClass: 2
Flags: MW
HStem: 469 51<139 295 139 139>
VStem: 86 53<0 469 0 520 0 520> 401 53<0 357 0 390>
AnchorPoint: "Anchor-7" 266 520 basechar 0
AnchorPoint: "Anchor-5" 276 0 basechar 0
LayerCount: 2
Fore
SplineSet
86 0 m 1
 86 520 l 1
 295 520 l 2
 387 520 454 452 454 357 c 2
 454 0 l 1
 401 0 l 1
 401 357 l 2
 401 423 357 469 295 469 c 2
 139 469 l 1
 139 0 l 1
 86 0 l 1
EndSplineSet
EndChar

StartChar: nacute
Encoding: 324 324 218
Width: 540
GlyphClass: 2
Flags: MW
HStem: 469 51<139 295 139 139> 575 100<241 351 241 351>
VStem: 86 53<0 469 0 520 0 520> 401 53<0 357 0 390>
AnchorPoint: "Anchor-7" 266 675 basechar 0
AnchorPoint: "Anchor-5" 276 0 basechar 0
LayerCount: 2
Fore
SplineSet
86 0 m 1
 86 520 l 1
 295 520 l 2
 387 520 454 452 454 357 c 2
 454 0 l 1
 401 0 l 1
 401 357 l 2
 401 423 357 469 295 469 c 2
 139 469 l 1
 139 0 l 1
 86 0 l 1
241 575 m 1
 297 675 l 1
 351 675 l 1
 295 575 l 1
 241 575 l 1
EndSplineSet
EndChar

StartChar: ncaron
Encoding: 328 328 219
Width: 540
GlyphClass: 2
Flags: MW
HStem: 469 51<139 295 139 139> 469 205<141 197 141 295 139 197> 579 95<141 275 141 257>
VStem: 86 53<0 469 0 520 0 520> 401 53<0 357 0 390>
AnchorPoint: "Anchor-7" 266 670 basechar 0
AnchorPoint: "Anchor-5" 276 0 basechar 0
LayerCount: 2
Fore
SplineSet
86 0 m 1x98
 86 520 l 1
 295 520 l 2
 387 520 454 452 454 357 c 2
 454 0 l 1
 401 0 l 1
 401 357 l 2
 401 423 357 469 295 469 c 2
 139 469 l 1
 139 0 l 1
 86 0 l 1x98
141 674 m 1x58
 197 674 l 1
 266 615 l 1
 335 674 l 1
 391 674 l 1x58
 275 579 l 1
 257 579 l 1xb8
 141 674 l 1x58
EndSplineSet
EndChar

StartChar: uni0146
Encoding: 326 326 220
Width: 540
GlyphClass: 2
Flags: MW
HStem: 469 51<139 295 139 139>
VStem: 86 53<0 469 0 520 0 520> 401 53<0 357 0 390>
AnchorPoint: "Anchor-7" 266 520 basechar 0
AnchorPoint: "Anchor-5" 236 -204 basechar 0
LayerCount: 2
Fore
SplineSet
86 0 m 1
 86 520 l 1
 295 520 l 2
 387 520 454 452 454 357 c 2
 454 0 l 1
 401 0 l 1
 401 357 l 2
 401 423 357 469 295 469 c 2
 139 469 l 1
 139 0 l 1
 86 0 l 1
182 -204 m 1
 254 -50 l 1
 295 -50 l 1
 223 -204 l 1
 182 -204 l 1
EndSplineSet
EndChar

StartChar: ntilde
Encoding: 241 241 221
Width: 540
GlyphClass: 2
Flags: MW
HStem: 469 51<139 295 139 139> 571 35<310.5 346 310.5 355.5> 644 35<189.5 224.5>
VStem: 86 53<0 469 0 520 0 520> 124 35<575 595.5 575 606> 378 35<652 674> 401 53<0 357 0 390>
AnchorPoint: "Anchor-7" 266 676 basechar 0
AnchorPoint: "Anchor-5" 276 0 basechar 0
LayerCount: 2
Fore
SplineSet
86 0 m 1xf2
 86 520 l 1
 295 520 l 2
 387 520 454 452 454 357 c 2
 454 0 l 1
 401 0 l 1
 401 357 l 2
 401 423 357 469 295 469 c 2
 139 469 l 1
 139 0 l 1
 86 0 l 1xf2
124 575 m 1xec
 124 637 158 679 203 679 c 0
 259 679 287 606 334 606 c 0
 358 606 378 630 378 674 c 1
 413 674 l 1
 413 610 377 571 334 571 c 0
 279 571 246 644 203 644 c 0
 176 644 159 616 159 575 c 1
 124 575 l 1xec
EndSplineSet
EndChar

StartChar: eng
Encoding: 331 331 222
Width: 540
GlyphClass: 2
Flags: MW
HStem: -200 51<269 401 269 401 269 454> 469 51<139 295 139 139>
VStem: 86 53<0 469 0 520 0 520> 269 185<-200 -149 -149 -149> 401 53<-149 357 -200 390>
AnchorPoint: "Anchor-7" 266 520 basechar 0
AnchorPoint: "Anchor-5" 276 0 basechar 0
LayerCount: 2
Fore
SplineSet
269 -200 m 1xf0
 269 -149 l 1xf0
 401 -149 l 1
 401 357 l 2
 401 423 357 469 295 469 c 2
 139 469 l 1
 139 0 l 1
 86 0 l 1
 86 520 l 1
 295 520 l 2
 387 520 454 452 454 357 c 2
 454 -200 l 1xe8
 269 -200 l 1xf0
EndSplineSet
EndChar

StartChar: o
Encoding: 111 111 223
Width: 650
GlyphClass: 2
Flags: MW
HStem: -5 53<266.5 383.5 266.5 398> 472 53<266.5 383.5>
VStem: 60 53<201.5 318.5 201.5 333> 537 53<201.5 318.5>
AnchorPoint: "Anchor-7" 325 520 basechar 0
AnchorPoint: "Anchor-6" 355 0 basechar 0
AnchorPoint: "Anchor-5" 325 0 basechar 0
LayerCount: 2
Fore
SplineSet
325 48 m 0
 442 48 537 143 537 260 c 0
 537 377 442 472 325 472 c 0
 208 472 113 377 113 260 c 0
 113 143 208 48 325 48 c 0
60 260 m 0
 60 406 179 525 325 525 c 0
 471 525 590 406 590 260 c 0
 590 114 471 -5 325 -5 c 0
 179 -5 60 114 60 260 c 0
EndSplineSet
EndChar

StartChar: oacute
Encoding: 243 243 224
Width: 650
GlyphClass: 2
Flags: MW
HStem: -5 53<266.5 383.5 266.5 398> 472 53<266.5 383.5> 575 100<300 410 300 410>
VStem: 60 53<201.5 318.5 201.5 333> 537 53<201.5 318.5>
AnchorPoint: "Anchor-7" 325 675 basechar 0
AnchorPoint: "Anchor-6" 355 0 basechar 0
AnchorPoint: "Anchor-5" 325 0 basechar 0
LayerCount: 2
Fore
SplineSet
325 48 m 0
 442 48 537 143 537 260 c 0
 537 377 442 472 325 472 c 0
 208 472 113 377 113 260 c 0
 113 143 208 48 325 48 c 0
60 260 m 0
 60 406 179 525 325 525 c 0
 471 525 590 406 590 260 c 0
 590 114 471 -5 325 -5 c 0
 179 -5 60 114 60 260 c 0
300 575 m 1
 356 675 l 1
 410 675 l 1
 354 575 l 1
 300 575 l 1
EndSplineSet
EndChar

StartChar: ocircumflex
Encoding: 244 244 225
Width: 650
GlyphClass: 2
Flags: MW
HStem: -5 53<266.5 383.5 266.5 398> 472 53<266.5 383.5> 576 95<200 334 316 394 316 450>
VStem: 60 53<201.5 318.5 201.5 333> 537 53<201.5 318.5>
AnchorPoint: "Anchor-7" 325 671 basechar 0
AnchorPoint: "Anchor-6" 355 0 basechar 0
AnchorPoint: "Anchor-5" 325 0 basechar 0
LayerCount: 2
Fore
SplineSet
325 48 m 0
 442 48 537 143 537 260 c 0
 537 377 442 472 325 472 c 0
 208 472 113 377 113 260 c 0
 113 143 208 48 325 48 c 0
60 260 m 0
 60 406 179 525 325 525 c 0
 471 525 590 406 590 260 c 0
 590 114 471 -5 325 -5 c 0
 179 -5 60 114 60 260 c 0
200 576 m 1
 316 671 l 1
 334 671 l 1
 450 576 l 1
 394 576 l 1
 325 635 l 1
 256 576 l 1
 200 576 l 1
EndSplineSet
EndChar

StartChar: odieresis
Encoding: 246 246 226
Width: 650
GlyphClass: 2
Flags: MW
HStem: -5 53<266.5 383.5 266.5 398> 472 53<266.5 383.5> 600 72<234.5 255.5 394.5 415.5>
VStem: 60 53<201.5 318.5 201.5 333> 209 72<625.5 646.5> 369 72<625.5 646.5> 537 53<201.5 318.5>
AnchorPoint: "Anchor-7" 325 696 basechar 0
AnchorPoint: "Anchor-6" 355 0 basechar 0
AnchorPoint: "Anchor-5" 325 0 basechar 0
LayerCount: 2
Fore
SplineSet
325 48 m 0
 442 48 537 143 537 260 c 0
 537 377 442 472 325 472 c 0
 208 472 113 377 113 260 c 0
 113 143 208 48 325 48 c 0
60 260 m 0
 60 406 179 525 325 525 c 0
 471 525 590 406 590 260 c 0
 590 114 471 -5 325 -5 c 0
 179 -5 60 114 60 260 c 0
209 636 m 0
 209 657 224 672 245 672 c 0
 266 672 281 657 281 636 c 0
 281 615 266 600 245 600 c 0
 224 600 209 615 209 636 c 0
369 636 m 0
 369 657 384 672 405 672 c 0
 426 672 441 657 441 636 c 0
 441 615 426 600 405 600 c 0
 384 600 369 615 369 636 c 0
EndSplineSet
EndChar

StartChar: ograve
Encoding: 242 242 227
Width: 650
GlyphClass: 2
Flags: MW
HStem: -5 53<266.5 383.5 266.5 398> 472 53<266.5 383.5> 575 100<240 350 240 296>
VStem: 60 53<201.5 318.5 201.5 333> 537 53<201.5 318.5>
AnchorPoint: "Anchor-7" 325 675 basechar 0
AnchorPoint: "Anchor-6" 355 0 basechar 0
AnchorPoint: "Anchor-5" 325 0 basechar 0
LayerCount: 2
Fore
SplineSet
325 48 m 0
 442 48 537 143 537 260 c 0
 537 377 442 472 325 472 c 0
 208 472 113 377 113 260 c 0
 113 143 208 48 325 48 c 0
60 260 m 0
 60 406 179 525 325 525 c 0
 471 525 590 406 590 260 c 0
 590 114 471 -5 325 -5 c 0
 179 -5 60 114 60 260 c 0
240 675 m 1
 294 675 l 1
 350 575 l 1
 296 575 l 1
 240 675 l 1
EndSplineSet
EndChar

StartChar: ohungarumlaut
Encoding: 337 337 228
Width: 650
GlyphClass: 2
Flags: MW
HStem: -5 53<266.5 383.5 266.5 398> 472 53<266.5 383.5> 575 180<214 315 214 315 270 440 270 395>
VStem: 60 53<201.5 318.5 201.5 333> 537 53<201.5 318.5>
AnchorPoint: "Anchor-7" 325 755 basechar 0
AnchorPoint: "Anchor-6" 355 0 basechar 0
AnchorPoint: "Anchor-5" 325 0 basechar 0
LayerCount: 2
Fore
SplineSet
325 48 m 0
 442 48 537 143 537 260 c 0
 537 377 442 472 325 472 c 0
 208 472 113 377 113 260 c 0
 113 143 208 48 325 48 c 0
60 260 m 0
 60 406 179 525 325 525 c 0
 471 525 590 406 590 260 c 0
 590 114 471 -5 325 -5 c 0
 179 -5 60 114 60 260 c 0
214 575 m 1
 270 755 l 1
 315 755 l 1
 259 575 l 1
 214 575 l 1
395 575 m 1
 451 755 l 1
 496 755 l 1
 440 575 l 1
 395 575 l 1
EndSplineSet
EndChar

StartChar: omacron
Encoding: 333 333 229
Width: 650
GlyphClass: 2
Flags: MW
HStem: -5 53<266.5 383.5 266.5 398> 472 53<266.5 383.5> 615 38<160 490 160 490>
VStem: 60 53<201.5 318.5 201.5 333> 160 330<615 653 615 653> 537 53<201.5 318.5>
AnchorPoint: "Anchor-7" 325 653 basechar 0
AnchorPoint: "Anchor-6" 355 0 basechar 0
AnchorPoint: "Anchor-5" 325 0 basechar 0
LayerCount: 2
Fore
SplineSet
325 48 m 0
 442 48 537 143 537 260 c 0
 537 377 442 472 325 472 c 0
 208 472 113 377 113 260 c 0
 113 143 208 48 325 48 c 0
60 260 m 0
 60 406 179 525 325 525 c 0
 471 525 590 406 590 260 c 0
 590 114 471 -5 325 -5 c 0
 179 -5 60 114 60 260 c 0
160 615 m 1
 160 653 l 1
 490 653 l 1
 490 615 l 1
 160 615 l 1
EndSplineSet
EndChar

StartChar: oslash
Encoding: 248 248 230
Width: 650
GlyphClass: 1
Flags: MW
HStem: -5 49<303.5 384.5 303.5 398> 476 49<265.5 346.5>
VStem: 60 49<228.5 319.5 228.5 333> 541 49<200.5 291.5>
LayerCount: 2
Fore
SplineSet
325 -5 m 0
 271 -5 221 11 179 39 c 1
 149 0 l 1
 104 0 l 1
 151 61 l 1
 95 109 60 181 60 260 c 0
 60 406 179 525 325 525 c 0
 379 525 430 509 472 480 c 1
 502 520 l 1
 547 520 l 1
 500 459 l 1
 555 410 590 339 590 260 c 0
 590 114 471 -5 325 -5 c 0
109 260 m 0
 109 197 137 139 180 100 c 1
 442 441 l 1
 408 463 368 476 325 476 c 0
 206 476 109 379 109 260 c 0
209 78 m 1
 242 57 282 44 325 44 c 0
 444 44 541 141 541 260 c 0
 541 323 514 380 470 420 c 1
 209 78 l 1
EndSplineSet
EndChar

StartChar: otilde
Encoding: 245 245 231
Width: 650
GlyphClass: 2
Flags: MW
HStem: -5 53<266.5 383.5 266.5 398> 472 53<266.5 383.5> 571 35<369.5 405 369.5 414.5> 644 35<248.5 283.5>
VStem: 60 53<201.5 318.5 201.5 333> 183 35<575 595.5 575 606> 437 35<652 674> 537 53<201.5 318.5>
AnchorPoint: "Anchor-7" 325 676 basechar 0
AnchorPoint: "Anchor-6" 355 0 basechar 0
AnchorPoint: "Anchor-5" 325 0 basechar 0
LayerCount: 2
Fore
SplineSet
325 48 m 0
 442 48 537 143 537 260 c 0
 537 377 442 472 325 472 c 0
 208 472 113 377 113 260 c 0
 113 143 208 48 325 48 c 0
60 260 m 0
 60 406 179 525 325 525 c 0
 471 525 590 406 590 260 c 0
 590 114 471 -5 325 -5 c 0
 179 -5 60 114 60 260 c 0
183 575 m 1
 183 637 217 679 262 679 c 0
 318 679 346 606 393 606 c 0
 417 606 437 630 437 674 c 1
 472 674 l 1
 472 610 436 571 393 571 c 0
 338 571 305 644 262 644 c 0
 235 644 218 616 218 575 c 1
 183 575 l 1
EndSplineSet
EndChar

StartChar: oe
Encoding: 339 339 232
Width: 881
GlyphClass: 1
Flags: MW
HStem: -5 53<235 328.5> 0 53<630.5 750 675 750> 204 47<610 752 610 801 610 752> 467 53<625 801 675 752> 472 53<235 329 220 334>
VStem: 60 53<200.5 319.5 200.5 333.5> 454 50<200.5 319.5> 610 191<204 251 251 251> 752 49<251 467 467 467>
LayerCount: 2
Fore
SplineSet
285 48 m 0xae80
 383 48 454 141 454 260 c 0
 454 379 383 472 285 472 c 0
 185 472 113 379 113 260 c 0
 113 141 185 48 285 48 c 0xae80
60 260 m 0
 60 407 155 525 285 525 c 0x6e80
 373 525 442 471 478 390 c 1
 513 474 586 520 675 520 c 2
 801 520 l 1
 801 204 l 1x7680
 610 204 l 1
 610 251 l 1x77
 752 251 l 1
 752 467 l 1
 675 467 l 2
 575 467 504 391 504 260 c 0
 504 127 575 53 675 53 c 2
 750 53 l 1
 750 0 l 1
 675 0 l 2x7680
 586 0 513 45 478 130 c 1
 442 49 372 -5 285 -5 c 0
 155 -5 60 113 60 260 c 0
EndSplineSet
EndChar

StartChar: p
Encoding: 112 112 233
Width: 560
GlyphClass: 1
Flags: MW
HStem: 0 51<143 279 143 279> 469 51<143 279 143 143>
VStem: 90 53<-200 0 51 469> 449 51<260 260>
LayerCount: 2
Fore
SplineSet
279 51 m 2
 378 51 449 127 449 260 c 0
 449 391 379 469 279 469 c 2
 143 469 l 1
 143 51 l 1
 279 51 l 2
90 -200 m 1
 90 520 l 1
 279 520 l 2
 406 520 499 427 500 260 c 0
 499 93 407 0 279 0 c 2
 143 0 l 1
 143 -200 l 1
 90 -200 l 1
EndSplineSet
EndChar

StartChar: thorn
Encoding: 254 254 234
Width: 560
GlyphClass: 1
Flags: MW
HStem: 0 53<143 279 143 279> 467 53<143 279 143 279>
VStem: 90 53<-200 0 53 467 520 710> 449 51<260 260>
LayerCount: 2
Fore
SplineSet
279 53 m 2
 378 53 449 127 449 260 c 0
 449 391 379 467 279 467 c 2
 143 467 l 1
 143 53 l 1
 279 53 l 2
90 -200 m 1
 90 710 l 1
 143 710 l 1
 143 520 l 1
 279 520 l 2
 406 520 499 427 500 260 c 0
 499 93 407 0 279 0 c 2
 143 0 l 1
 143 -200 l 1
 90 -200 l 1
EndSplineSet
EndChar

StartChar: q
Encoding: 113 113 235
Width: 570
GlyphClass: 1
Flags: MW
HStem: 0 51<229.5 427 293 427> 469 51<243.5 480 293 427>
VStem: 70 53<194.5 260> 427 53<-200 0 0 0 51 469 469 469>
LayerCount: 2
Fore
SplineSet
293 469 m 2
 194 469 123 393 123 260 c 0
 123 129 193 51 293 51 c 2
 427 51 l 1
 427 469 l 1
 293 469 l 2
70 260 m 0
 71 427 165 520 293 520 c 2
 480 520 l 1
 480 -200 l 1
 427 -200 l 1
 427 0 l 1
 293 0 l 2
 166 0 70 93 70 260 c 0
EndSplineSet
EndChar

StartChar: r
Encoding: 114 114 236
Width: 380
GlyphClass: 2
Flags: MW
HStem: 469 51<143 320 143 143>
VStem: 90 53<0 469 0 520 0 520> 90 230<469 469 469 520 469 520>
AnchorPoint: "Anchor-7" 197 520 basechar 0
AnchorPoint: "Anchor-5" 115 0 basechar 0
LayerCount: 2
Fore
SplineSet
320 469 m 1xa0
 143 469 l 1
 143 0 l 1
 90 0 l 1
 90 520 l 1xc0
 320 520 l 1
 320 469 l 1xa0
EndSplineSet
EndChar

StartChar: racute
Encoding: 341 341 237
Width: 380
GlyphClass: 2
Flags: MW
HStem: 469 51<143 320 143 143> 575 100<172 282 172 282>
VStem: 90 53<0 469 0 520 0 520> 90 230<469 469 469 520 469 520>
AnchorPoint: "Anchor-7" 197 675 basechar 0
AnchorPoint: "Anchor-5" 115 0 basechar 0
LayerCount: 2
Fore
SplineSet
320 469 m 1x90
 143 469 l 1
 143 0 l 1
 90 0 l 1
 90 520 l 1xe0
 320 520 l 1
 320 469 l 1x90
172 575 m 1
 228 675 l 1
 282 675 l 1
 226 575 l 1
 172 575 l 1
EndSplineSet
EndChar

StartChar: rcaron
Encoding: 345 345 238
Width: 380
GlyphClass: 2
Flags: MW
HStem: 469 51<143 320 143 143> 469 205<266 320 72 143> 579 95<72 206 72 188>
VStem: 90 53<0 469 0 520 0 520> 90 230<469 469 469 520 469 520>
AnchorPoint: "Anchor-7" 197 670 basechar 0
AnchorPoint: "Anchor-5" 115 0 basechar 0
LayerCount: 2
Fore
SplineSet
320 469 m 1x88
 143 469 l 1
 143 0 l 1
 90 0 l 1
 90 520 l 1x90
 320 520 l 1
 320 469 l 1x88
72 674 m 1x50
 128 674 l 1
 197 615 l 1
 266 674 l 1
 322 674 l 1x50
 206 579 l 1
 188 579 l 1xb0
 72 674 l 1x50
EndSplineSet
EndChar

StartChar: uni0157
Encoding: 343 343 239
Width: 380
GlyphClass: 2
Flags: MW
HStem: 469 51<143 320 143 143>
VStem: 90 53<0 469 0 520 0 520> 90 230<469 469 469 520 469 520>
AnchorPoint: "Anchor-7" 197 520 basechar 0
AnchorPoint: "Anchor-5" 75 -204 basechar 0
LayerCount: 2
Fore
SplineSet
320 469 m 1xa0
 143 469 l 1
 143 0 l 1
 90 0 l 1
 90 520 l 1xc0
 320 520 l 1
 320 469 l 1xa0
21 -204 m 1
 93 -50 l 1
 134 -50 l 1
 62 -204 l 1
 21 -204 l 1
EndSplineSet
EndChar

StartChar: s
Encoding: 115 115 240
Width: 525
GlyphClass: 2
Flags: MW
HStem: 0 49<85 293 85 293 293 297> 180 49<183 265 232 265 232 265> 291 49<260 293 260 297> 471 49<228 232 232 390>
VStem: 60 51<314.5 385.5 314.5 400> 414 51<134.5 205.5>
AnchorPoint: "Anchor-7" 259 520 basechar 0
AnchorPoint: "Anchor-5" 259 0 basechar 0
LayerCount: 2
Fore
SplineSet
111 350 m 0
 111 279 166 229 232 229 c 2
 265 229 l 1
 265 180 l 1
 228 180 l 2
 138 180 60 250 60 350 c 0
 60 450 138 520 228 520 c 2
 390 520 l 1
 390 471 l 1
 232 471 l 2
 166 471 111 421 111 350 c 0
85 0 m 1
 85 49 l 1
 293 49 l 2
 359 49 414 99 414 170 c 0
 414 241 359 291 293 291 c 2
 260 291 l 1
 260 340 l 1
 297 340 l 2
 387 340 465 270 465 170 c 0
 465 70 387 0 297 0 c 2
 85 0 l 1
EndSplineSet
EndChar

StartChar: sacute
Encoding: 347 347 241
Width: 525
GlyphClass: 2
Flags: MW
HStem: 0 49<85 293 85 293 293 297> 180 49<183 265 232 265 232 265> 291 49<260 293 260 297> 471 49<228 232 232 390> 575 100<234 344 234 344>
VStem: 60 51<314.5 385.5 314.5 400> 414 51<134.5 205.5>
AnchorPoint: "Anchor-7" 259 675 basechar 0
AnchorPoint: "Anchor-5" 259 0 basechar 0
LayerCount: 2
Fore
SplineSet
111 350 m 0
 111 279 166 229 232 229 c 2
 265 229 l 1
 265 180 l 1
 228 180 l 2
 138 180 60 250 60 350 c 0
 60 450 138 520 228 520 c 2
 390 520 l 1
 390 471 l 1
 232 471 l 2
 166 471 111 421 111 350 c 0
85 0 m 1
 85 49 l 1
 293 49 l 2
 359 49 414 99 414 170 c 0
 414 241 359 291 293 291 c 2
 260 291 l 1
 260 340 l 1
 297 340 l 2
 387 340 465 270 465 170 c 0
 465 70 387 0 297 0 c 2
 85 0 l 1
234 575 m 1
 290 675 l 1
 344 675 l 1
 288 575 l 1
 234 575 l 1
EndSplineSet
EndChar

StartChar: scaron
Encoding: 353 353 242
Width: 525
GlyphClass: 2
Flags: MW
HStem: 0 49<85 293 85 293 293 297> 180 49<183 265 232 265 232 265> 291 49<260 293 260 297> 471 49<228 232 232 390> 471 203<134 232 328 384 134 390> 579 95<134 268 134 250>
VStem: 60 51<314.5 385.5 314.5 400> 414 51<134.5 205.5>
AnchorPoint: "Anchor-7" 259 670 basechar 0
AnchorPoint: "Anchor-5" 259 0 basechar 0
LayerCount: 2
Fore
SplineSet
111 350 m 0xf3
 111 279 166 229 232 229 c 2
 265 229 l 1
 265 180 l 1
 228 180 l 2
 138 180 60 250 60 350 c 0
 60 450 138 520 228 520 c 2
 390 520 l 1
 390 471 l 1
 232 471 l 2
 166 471 111 421 111 350 c 0xf3
85 0 m 1
 85 49 l 1
 293 49 l 2
 359 49 414 99 414 170 c 0
 414 241 359 291 293 291 c 2
 260 291 l 1
 260 340 l 1
 297 340 l 2
 387 340 465 270 465 170 c 0
 465 70 387 0 297 0 c 2
 85 0 l 1
134 674 m 1xeb
 190 674 l 1
 259 615 l 1
 328 674 l 1
 384 674 l 1xeb
 268 579 l 1
 250 579 l 1xf7
 134 674 l 1xeb
EndSplineSet
EndChar

StartChar: scedilla
Encoding: 351 351 243
Width: 525
GlyphClass: 2
Flags: MW
HStem: -235 39<238 256.5 238 268.5> -75 38<238 256.5> 0 49<85 293 85 293 293 297> 180 49<183 265 232 265 232 265> 291 49<260 293 260 297> 471 49<228 232 232 390>
VStem: 60 51<314.5 385.5 314.5 400> 300 39<-154 -118> 414 51<134.5 205.5>
AnchorPoint: "Anchor-7" 259 520 basechar 0
AnchorPoint: "Anchor-5" 238 -235 basechar 0
LayerCount: 2
Fore
SplineSet
111 350 m 0
 111 279 166 229 232 229 c 2
 265 229 l 1
 265 180 l 1
 228 180 l 2
 138 180 60 250 60 350 c 0
 60 450 138 520 228 520 c 2
 390 520 l 1
 390 471 l 1
 232 471 l 2
 166 471 111 421 111 350 c 0
85 0 m 1
 85 49 l 1
 293 49 l 2
 359 49 414 99 414 170 c 0
 414 241 359 291 293 291 c 2
 260 291 l 1
 260 340 l 1
 297 340 l 2
 387 340 465 270 465 170 c 0
 465 70 387 0 297 0 c 2
 85 0 l 1
238 -235 m 1
 238 -196 l 1
 275 -196 300 -172 300 -136 c 0
 300 -100 275 -75 238 -75 c 1
 238 -37 l 1
 299 -37 339 -77 339 -136 c 0
 339 -195 299 -235 238 -235 c 1
EndSplineSet
Substitution2: "'locl' Localized Forms in Latin lookup 4 subtable" uni0219
Substitution2: "'aalt' Access All Alternates in Latin lookup 0 subtable" uni0219
EndChar

StartChar: uni0219
Encoding: 537 537 244
Width: 525
GlyphClass: 2
Flags: MW
HStem: 0 49<85 293 85 293 293 297> 180 49<183 265 232 265 232 265> 291 49<260 293 260 297> 471 49<228 232 232 390>
VStem: 60 51<314.5 385.5 314.5 400> 414 51<134.5 205.5>
AnchorPoint: "Anchor-7" 259 520 basechar 0
AnchorPoint: "Anchor-5" 219 -204 basechar 0
LayerCount: 2
Fore
SplineSet
111 350 m 0
 111 279 166 229 232 229 c 2
 265 229 l 1
 265 180 l 1
 228 180 l 2
 138 180 60 250 60 350 c 0
 60 450 138 520 228 520 c 2
 390 520 l 1
 390 471 l 1
 232 471 l 2
 166 471 111 421 111 350 c 0
85 0 m 1
 85 49 l 1
 293 49 l 2
 359 49 414 99 414 170 c 0
 414 241 359 291 293 291 c 2
 260 291 l 1
 260 340 l 1
 297 340 l 2
 387 340 465 270 465 170 c 0
 465 70 387 0 297 0 c 2
 85 0 l 1
165 -204 m 1
 237 -50 l 1
 278 -50 l 1
 206 -204 l 1
 165 -204 l 1
EndSplineSet
EndChar

StartChar: germandbls
Encoding: 223 223 245
Width: 690
GlyphClass: 1
Flags: MW
HStem: 0 51<338 398 338 398> 340 50<60 160 60 160> 598 51<213 437 213 213>
VStem: 160 53<0 340 340 340 390 598 0 649 0 649> 557 53<169.5 259>
LayerCount: 2
Fore
SplineSet
338 0 m 1
 338 51 l 1
 398 51 l 2
 489 51 557 124 557 215 c 0
 557 303 498 366 416 376 c 1
 391 302 l 1
 338 302 l 1
 437 598 l 1
 213 598 l 1
 213 0 l 1
 160 0 l 1
 160 340 l 1
 60 340 l 1
 60 390 l 1
 160 390 l 1
 160 649 l 1
 507 649 l 1
 432 425 l 1
 539 410 610 326 610 215 c 0
 610 91 521 0 398 0 c 2
 338 0 l 1
EndSplineSet
EndChar

StartChar: t
Encoding: 116 116 246
Width: 490
GlyphClass: 2
Flags: MW
HStem: 0 51<250.5 410 299 410> 469 51<70 140 70 140 193 410>
VStem: 140 53<163 469 520 650>
AnchorPoint: "Anchor-7" 165 650 basechar 0
AnchorPoint: "Anchor-5" 299 0 basechar 0
LayerCount: 2
Fore
SplineSet
70 520 m 1
 140 520 l 1
 140 650 l 1
 193 650 l 1
 193 520 l 1
 410 520 l 1
 410 469 l 1
 193 469 l 1
 193 163 l 2
 193 97 237 51 299 51 c 2
 410 51 l 1
 410 0 l 1
 299 0 l 2
 202 0 140 68 140 163 c 2
 140 469 l 1
 70 469 l 1
 70 520 l 1
EndSplineSet
EndChar

StartChar: tbar
Encoding: 359 359 247
Width: 500
GlyphClass: 2
Flags: MW
HStem: 0 51<250.5 410 299 410> 278 34<90 140 90 140 193 400> 469 51<70 140 70 140 193 410>
VStem: 140 53<163 278 312 469 520 650>
AnchorPoint: "Anchor-7" 165 650 basechar 0
AnchorPoint: "Anchor-5" 299 0 basechar 0
LayerCount: 2
Fore
SplineSet
400 312 m 1
 400 278 l 1
 193 278 l 1
 193 163 l 2
 193 97 237 51 299 51 c 2
 410 51 l 1
 410 0 l 1
 299 0 l 2
 202 0 140 68 140 163 c 2
 140 278 l 1
 90 278 l 1
 90 312 l 1
 140 312 l 1
 140 469 l 1
 70 469 l 1
 70 520 l 1
 140 520 l 1
 140 650 l 1
 193 650 l 1
 193 520 l 1
 410 520 l 1
 410 469 l 1
 193 469 l 1
 193 312 l 1
 400 312 l 1
EndSplineSet
EndChar

StartChar: tcaron
Encoding: 357 357 248
Width: 490
GlyphClass: 2
Flags: MW
HStem: 0 51<250.5 410 299 410> 469 51<70 140 70 140 193 410> 709 95<40 174 40 156>
VStem: 140 53<163 469 520 650>
AnchorPoint: "Anchor-7" 165 800 basechar 0
AnchorPoint: "Anchor-5" 299 0 basechar 0
LayerCount: 2
Fore
SplineSet
70 520 m 1
 140 520 l 1
 140 650 l 1
 193 650 l 1
 193 520 l 1
 410 520 l 1
 410 469 l 1
 193 469 l 1
 193 163 l 2
 193 97 237 51 299 51 c 2
 410 51 l 1
 410 0 l 1
 299 0 l 2
 202 0 140 68 140 163 c 2
 140 469 l 1
 70 469 l 1
 70 520 l 1
40 804 m 1
 96 804 l 1
 165 745 l 1
 234 804 l 1
 290 804 l 1
 174 709 l 1
 156 709 l 1
 40 804 l 1
EndSplineSet
EndChar

StartChar: uni0163
Encoding: 355 355 249
Width: 490
GlyphClass: 2
Flags: MW
HStem: -235 39<277 295.5 277 307.5> -75 38<277 295.5> 0 51<250.5 410 299 410> 469 51<70 140 70 140 193 410>
VStem: 140 53<163 469 520 650> 339 39<-154 -118>
AnchorPoint: "Anchor-7" 165 650 basechar 0
AnchorPoint: "Anchor-5" 278 -235 basechar 0
LayerCount: 2
Fore
SplineSet
70 520 m 1
 140 520 l 1
 140 650 l 1
 193 650 l 1
 193 520 l 1
 410 520 l 1
 410 469 l 1
 193 469 l 1
 193 163 l 2
 193 97 237 51 299 51 c 2
 410 51 l 1
 410 0 l 1
 299 0 l 2
 202 0 140 68 140 163 c 2
 140 469 l 1
 70 469 l 1
 70 520 l 1
277 -235 m 1
 277 -196 l 1
 314 -196 339 -172 339 -136 c 0
 339 -100 314 -75 277 -75 c 1
 277 -37 l 1
 338 -37 378 -77 378 -136 c 0
 378 -195 338 -235 277 -235 c 1
EndSplineSet
Substitution2: "'locl' Localized Forms in Latin lookup 4 subtable" uni021B
Substitution2: "'aalt' Access All Alternates in Latin lookup 0 subtable" uni021B
EndChar

StartChar: uni021B
Encoding: 539 539 250
Width: 490
GlyphClass: 2
Flags: MW
HStem: 0 51<250.5 410 299 410> 469 51<70 140 70 140 193 410>
VStem: 140 53<163 469 520 650>
AnchorPoint: "Anchor-7" 165 650 basechar 0
AnchorPoint: "Anchor-5" 259 -204 basechar 0
LayerCount: 2
Fore
SplineSet
70 520 m 1
 140 520 l 1
 140 650 l 1
 193 650 l 1
 193 520 l 1
 410 520 l 1
 410 469 l 1
 193 469 l 1
 193 163 l 2
 193 97 237 51 299 51 c 2
 410 51 l 1
 410 0 l 1
 299 0 l 2
 202 0 140 68 140 163 c 2
 140 469 l 1
 70 469 l 1
 70 520 l 1
204 -204 m 1
 276 -50 l 1
 317 -50 l 1
 245 -204 l 1
 204 -204 l 1
EndSplineSet
EndChar

StartChar: u
Encoding: 117 117 251
Width: 540
GlyphClass: 2
Flags: MW
HStem: 0 51<199 401 245 401 245 454>
VStem: 86 53<163 520> 401 53<51 520 0 520>
AnchorPoint: "Anchor-7" 265 510 basechar 0
AnchorPoint: "Anchor-6" 427 0 basechar 0
AnchorPoint: "Anchor-5" 265 0 basechar 0
LayerCount: 2
Fore
SplineSet
454 520 m 1
 454 0 l 1
 245 0 l 2
 153 0 86 68 86 163 c 2
 86 520 l 1
 139 520 l 1
 139 163 l 2
 139 97 183 51 245 51 c 2
 401 51 l 1
 401 520 l 1
 454 520 l 1
EndSplineSet
EndChar

StartChar: uacute
Encoding: 250 250 252
Width: 540
GlyphClass: 2
Flags: MW
HStem: 0 51<199 401 245 401 245 454> 565 100<240 350 240 350>
VStem: 86 53<163 520> 401 53<51 520 0 520>
AnchorPoint: "Anchor-7" 265 665 basechar 0
AnchorPoint: "Anchor-6" 427 0 basechar 0
AnchorPoint: "Anchor-5" 265 0 basechar 0
LayerCount: 2
Fore
SplineSet
454 520 m 1
 454 0 l 1
 245 0 l 2
 153 0 86 68 86 163 c 2
 86 520 l 1
 139 520 l 1
 139 163 l 2
 139 97 183 51 245 51 c 2
 401 51 l 1
 401 520 l 1
 454 520 l 1
240 565 m 1
 296 665 l 1
 350 665 l 1
 294 565 l 1
 240 565 l 1
EndSplineSet
EndChar

StartChar: ucircumflex
Encoding: 251 251 253
Width: 540
GlyphClass: 2
Flags: MW
HStem: 0 51<199 401 245 401 245 454> 566 95<140 274 256 334 256 390>
VStem: 86 53<163 520> 401 53<51 520 0 520>
AnchorPoint: "Anchor-7" 265 661 basechar 0
AnchorPoint: "Anchor-6" 427 0 basechar 0
AnchorPoint: "Anchor-5" 265 0 basechar 0
LayerCount: 2
Fore
SplineSet
454 520 m 1
 454 0 l 1
 245 0 l 2
 153 0 86 68 86 163 c 2
 86 520 l 1
 139 520 l 1
 139 163 l 2
 139 97 183 51 245 51 c 2
 401 51 l 1
 401 520 l 1
 454 520 l 1
140 566 m 1
 256 661 l 1
 274 661 l 1
 390 566 l 1
 334 566 l 1
 265 625 l 1
 196 566 l 1
 140 566 l 1
EndSplineSet
EndChar

StartChar: udieresis
Encoding: 252 252 254
Width: 540
GlyphClass: 2
Flags: MW
HStem: 0 51<199 401 245 401 245 454> 590 72<174.5 195.5 334.5 355.5>
VStem: 86 53<163 520> 149 72<615.5 636.5> 309 72<615.5 636.5> 401 53<51 520 0 520>
AnchorPoint: "Anchor-7" 265 686 basechar 0
AnchorPoint: "Anchor-6" 427 0 basechar 0
AnchorPoint: "Anchor-5" 265 0 basechar 0
LayerCount: 2
Fore
SplineSet
454 520 m 1
 454 0 l 1
 245 0 l 2
 153 0 86 68 86 163 c 2
 86 520 l 1
 139 520 l 1
 139 163 l 2
 139 97 183 51 245 51 c 2
 401 51 l 1
 401 520 l 1
 454 520 l 1
149 626 m 0xfc
 149 647 164 662 185 662 c 0
 206 662 221 647 221 626 c 0
 221 605 206 590 185 590 c 0
 164 590 149 605 149 626 c 0xfc
309 626 m 0
 309 647 324 662 345 662 c 0
 366 662 381 647 381 626 c 0
 381 605 366 590 345 590 c 0
 324 590 309 605 309 626 c 0
EndSplineSet
EndChar

StartChar: ugrave
Encoding: 249 249 255
Width: 540
GlyphClass: 2
Flags: MW
HStem: 0 51<199 401 245 401 245 454> 565 100<180 290 180 236>
VStem: 86 53<163 520> 401 53<51 520 0 520>
AnchorPoint: "Anchor-7" 265 665 basechar 0
AnchorPoint: "Anchor-6" 427 0 basechar 0
AnchorPoint: "Anchor-5" 265 0 basechar 0
LayerCount: 2
Fore
SplineSet
454 520 m 1
 454 0 l 1
 245 0 l 2
 153 0 86 68 86 163 c 2
 86 520 l 1
 139 520 l 1
 139 163 l 2
 139 97 183 51 245 51 c 2
 401 51 l 1
 401 520 l 1
 454 520 l 1
180 665 m 1
 234 665 l 1
 290 565 l 1
 236 565 l 1
 180 665 l 1
EndSplineSet
EndChar

StartChar: uhungarumlaut
Encoding: 369 369 256
Width: 540
GlyphClass: 2
Flags: MW
HStem: 0 51<199 401 245 401 245 454> 565 180<154 255 154 255 210 380 210 335>
VStem: 86 53<163 520> 401 53<51 520 0 520>
AnchorPoint: "Anchor-7" 265 745 basechar 0
AnchorPoint: "Anchor-6" 427 0 basechar 0
AnchorPoint: "Anchor-5" 265 0 basechar 0
LayerCount: 2
Fore
SplineSet
454 520 m 1
 454 0 l 1
 245 0 l 2
 153 0 86 68 86 163 c 2
 86 520 l 1
 139 520 l 1
 139 163 l 2
 139 97 183 51 245 51 c 2
 401 51 l 1
 401 520 l 1
 454 520 l 1
154 565 m 1
 210 745 l 1
 255 745 l 1
 199 565 l 1
 154 565 l 1
335 565 m 1
 391 745 l 1
 436 745 l 1
 380 565 l 1
 335 565 l 1
EndSplineSet
EndChar

StartChar: umacron
Encoding: 363 363 257
Width: 540
GlyphClass: 2
Flags: MW
HStem: 0 51<199 401 245 401 245 454> 605 38<100 430 100 430>
VStem: 86 53<163 520> 100 39 401 29 401 53<51 520 0 520>
AnchorPoint: "Anchor-7" 265 643 basechar 0
AnchorPoint: "Anchor-6" 427 0 basechar 0
AnchorPoint: "Anchor-5" 265 0 basechar 0
LayerCount: 2
Fore
SplineSet
454 520 m 1xe4
 454 0 l 1
 245 0 l 2
 153 0 86 68 86 163 c 2
 86 520 l 1
 139 520 l 1
 139 163 l 2
 139 97 183 51 245 51 c 2
 401 51 l 1
 401 520 l 1
 454 520 l 1xe4
100 605 m 1xd8
 100 643 l 1
 430 643 l 1
 430 605 l 1
 100 605 l 1xd8
EndSplineSet
EndChar

StartChar: uogonek
Encoding: 371 371 258
Width: 540
GlyphClass: 2
Flags: MW
HStem: -200 39<372 531 372 531> 0 51<199 401 245 401 245 407 245 454 245 448>
VStem: 86 53<163 520> 401 53<51 520 0 520>
AnchorPoint: "Anchor-7" 265 510 basechar 0
AnchorPoint: "Anchor-6" 427 0 basechar 0
AnchorPoint: "Anchor-5" 265 0 basechar 0
LayerCount: 2
Fore
SplineSet
454 520 m 1
 454 0 l 1
 448 0 l 1
 372 -161 l 1
 531 -161 l 1
 531 -200 l 1
 313 -200 l 1
 407 0 l 1
 245 0 l 2
 153 0 86 68 86 163 c 2
 86 520 l 1
 139 520 l 1
 139 163 l 2
 139 97 183 51 245 51 c 2
 401 51 l 1
 401 520 l 1
 454 520 l 1
EndSplineSet
EndChar

StartChar: uring
Encoding: 367 367 259
Width: 540
GlyphClass: 2
Flags: MW
HStem: 0 51<199 401 245 401 245 454> 559 26<251 280 251 287> 690 27<251 280>
VStem: 86 53<163 520> 186 27<623.5 652.5 623.5 660> 317 28<638 638> 401 53<51 520 0 520>
AnchorPoint: "Anchor-7" 265 717 basechar 0
AnchorPoint: "Anchor-6" 427 0 basechar 0
AnchorPoint: "Anchor-5" 265 0 basechar 0
LayerCount: 2
Fore
SplineSet
454 520 m 1
 454 0 l 1
 245 0 l 2
 153 0 86 68 86 163 c 2
 86 520 l 1
 139 520 l 1
 139 163 l 2
 139 97 183 51 245 51 c 2
 401 51 l 1
 401 520 l 1
 454 520 l 1
186 638 m 0
 186 682 220 717 265 717 c 0
 309 717 345 682 345 638 c 0
 345 594 309 559 265 559 c 0
 220 559 186 594 186 638 c 0
213 638 m 0
 213 609 237 585 265 585 c 0
 295 585 318 609 317 638 c 0
 318 667 295 690 265 690 c 0
 237 690 213 667 213 638 c 0
EndSplineSet
EndChar

StartChar: utilde
Encoding: 361 361 260
Width: 540
GlyphClass: 2
Flags: MW
HStem: 0 51<199 401 245 401 245 454> 561 35<309.5 345 309.5 354.5> 634 35<188.5 223.5>
VStem: 86 53<163 520> 123 16 123 35<565 585.5 565 596> 377 35<642 664> 401 53<51 520 0 520>
AnchorPoint: "Anchor-7" 265 666 basechar 0
AnchorPoint: "Anchor-6" 427 0 basechar 0
AnchorPoint: "Anchor-5" 265 0 basechar 0
LayerCount: 2
Fore
SplineSet
454 520 m 1xf1
 454 0 l 1
 245 0 l 2
 153 0 86 68 86 163 c 2
 86 520 l 1
 139 520 l 1
 139 163 l 2
 139 97 183 51 245 51 c 2
 401 51 l 1
 401 520 l 1
 454 520 l 1xf1
123 565 m 1xe9
 123 627 157 669 202 669 c 0xe9
 258 669 286 596 333 596 c 0
 357 596 377 620 377 664 c 1
 412 664 l 1
 412 600 376 561 333 561 c 0
 278 561 245 634 202 634 c 0
 175 634 158 606 158 565 c 1xe6
 123 565 l 1xe9
EndSplineSet
EndChar

StartChar: v
Encoding: 118 118 261
Width: 558
GlyphClass: 1
Flags: MW
HStem: 0 52<254 300 254 338 216 300>
VStem: 50 458<520 520>
LayerCount: 2
Fore
SplineSet
453 520 m 1
 508 520 l 1
 338 0 l 1
 216 0 l 1
 50 520 l 1
 103 520 l 1
 254 52 l 1
 300 52 l 1
 453 520 l 1
EndSplineSet
EndChar

StartChar: w
Encoding: 119 119 262
Width: 820
GlyphClass: 2
Flags: MW
HStem: 0 34<238 253 238 293 562 578> 467 53<402 417 402 402>
VStem: 62 696<520 520>
AnchorPoint: "Anchor-7" 410 520 basechar 0
AnchorPoint: "Anchor-5" 410 0 basechar 0
LayerCount: 2
Fore
SplineSet
62 520 m 1
 115 520 l 1
 238 34 l 1
 253 34 l 1
 368 520 l 1
 450 520 l 1
 562 34 l 1
 578 34 l 1
 703 520 l 1
 758 520 l 1
 621 0 l 1
 524 0 l 1
 417 467 l 1
 402 467 l 1
 293 0 l 1
 196 0 l 1
 62 520 l 1
EndSplineSet
EndChar

StartChar: wacute
Encoding: 7811 7811 263
Width: 820
GlyphClass: 2
Flags: MW
HStem: 0 34<238 253 238 293 562 578> 467 53<402 417 402 402> 575 100<385 495 385 495>
VStem: 62 696<520 520>
AnchorPoint: "Anchor-7" 410 675 basechar 0
AnchorPoint: "Anchor-5" 410 0 basechar 0
LayerCount: 2
Fore
SplineSet
62 520 m 1
 115 520 l 1
 238 34 l 1
 253 34 l 1
 368 520 l 1
 450 520 l 1
 562 34 l 1
 578 34 l 1
 703 520 l 1
 758 520 l 1
 621 0 l 1
 524 0 l 1
 417 467 l 1
 402 467 l 1
 293 0 l 1
 196 0 l 1
 62 520 l 1
385 575 m 1
 441 675 l 1
 495 675 l 1
 439 575 l 1
 385 575 l 1
EndSplineSet
EndChar

StartChar: wcircumflex
Encoding: 373 373 264
Width: 820
GlyphClass: 2
Flags: MW
HStem: 0 34<238 253 238 293 562 578> 467 53<402 417 402 402> 576 95<285 419 401 479 401 535>
VStem: 62 696<520 520>
AnchorPoint: "Anchor-7" 410 671 basechar 0
AnchorPoint: "Anchor-5" 410 0 basechar 0
LayerCount: 2
Fore
SplineSet
62 520 m 1
 115 520 l 1
 238 34 l 1
 253 34 l 1
 368 520 l 1
 450 520 l 1
 562 34 l 1
 578 34 l 1
 703 520 l 1
 758 520 l 1
 621 0 l 1
 524 0 l 1
 417 467 l 1
 402 467 l 1
 293 0 l 1
 196 0 l 1
 62 520 l 1
285 576 m 1
 401 671 l 1
 419 671 l 1
 535 576 l 1
 479 576 l 1
 410 635 l 1
 341 576 l 1
 285 576 l 1
EndSplineSet
EndChar

StartChar: wdieresis
Encoding: 7813 7813 265
Width: 820
GlyphClass: 2
Flags: MW
HStem: 0 34<238 253 238 293 562 578> 467 53<402 417 402 402> 600 72<319.5 340.5 479.5 500.5>
VStem: 294 72<625.5 646.5> 454 72<625.5 646.5>
AnchorPoint: "Anchor-7" 410 696 basechar 0
AnchorPoint: "Anchor-5" 410 0 basechar 0
LayerCount: 2
Fore
SplineSet
62 520 m 1
 115 520 l 1
 238 34 l 1
 253 34 l 1
 368 520 l 1
 450 520 l 1
 562 34 l 1
 578 34 l 1
 703 520 l 1
 758 520 l 1
 621 0 l 1
 524 0 l 1
 417 467 l 1
 402 467 l 1
 293 0 l 1
 196 0 l 1
 62 520 l 1
294 636 m 0
 294 657 309 672 330 672 c 0
 351 672 366 657 366 636 c 0
 366 615 351 600 330 600 c 0
 309 600 294 615 294 636 c 0
454 636 m 0
 454 657 469 672 490 672 c 0
 511 672 526 657 526 636 c 0
 526 615 511 600 490 600 c 0
 469 600 454 615 454 636 c 0
EndSplineSet
EndChar

StartChar: wgrave
Encoding: 7809 7809 266
Width: 820
GlyphClass: 2
Flags: MW
HStem: 0 34<238 253 238 293 562 578> 467 53<402 417 402 402> 575 100<325 435 325 381>
VStem: 62 696<520 520>
AnchorPoint: "Anchor-7" 410 675 basechar 0
AnchorPoint: "Anchor-5" 410 0 basechar 0
LayerCount: 2
Fore
SplineSet
62 520 m 1
 115 520 l 1
 238 34 l 1
 253 34 l 1
 368 520 l 1
 450 520 l 1
 562 34 l 1
 578 34 l 1
 703 520 l 1
 758 520 l 1
 621 0 l 1
 524 0 l 1
 417 467 l 1
 402 467 l 1
 293 0 l 1
 196 0 l 1
 62 520 l 1
325 675 m 1
 379 675 l 1
 435 575 l 1
 381 575 l 1
 325 675 l 1
EndSplineSet
EndChar

StartChar: x
Encoding: 120 120 267
Width: 514
GlyphClass: 1
Flags: MW
HStem: 0 520<58 113 58 113 401 456 58 401>
VStem: 58 398<0 0>
LayerCount: 2
Fore
SplineSet
401 520 m 1
 456 520 l 1
 291 260 l 1
 456 0 l 1
 401 0 l 1
 257 226 l 1
 113 0 l 1
 58 0 l 1
 223 260 l 1
 58 520 l 1
 113 520 l 1
 257 294 l 1
 401 520 l 1
EndSplineSet
EndChar

StartChar: y
Encoding: 121 121 268
Width: 558
GlyphClass: 2
Flags: MW
HStem: -200 51<114 250 114 300 114 250>
VStem: 250 50<-149 -5 -200 -5>
AnchorPoint: "Anchor-7" 279 520 basechar 0
AnchorPoint: "Anchor-5" 280 -200 basechar 0
LayerCount: 2
Fore
SplineSet
453 520 m 1
 508 520 l 1
 300 -5 l 1
 300 -200 l 1
 114 -200 l 1
 114 -149 l 1
 250 -149 l 1
 250 -5 l 1
 50 520 l 1
 104 520 l 1
 275 71 l 1
 453 520 l 1
EndSplineSet
EndChar

StartChar: yacute
Encoding: 253 253 269
Width: 558
GlyphClass: 2
Flags: MW
HStem: -200 51<114 250 114 300 114 250> 575 100<254 364 254 364>
VStem: 250 50<-149 -5 -200 -5>
AnchorPoint: "Anchor-7" 279 675 basechar 0
AnchorPoint: "Anchor-5" 280 -200 basechar 0
LayerCount: 2
Fore
SplineSet
453 520 m 1
 508 520 l 1
 300 -5 l 1
 300 -200 l 1
 114 -200 l 1
 114 -149 l 1
 250 -149 l 1
 250 -5 l 1
 50 520 l 1
 104 520 l 1
 275 71 l 1
 453 520 l 1
254 575 m 1
 310 675 l 1
 364 675 l 1
 308 575 l 1
 254 575 l 1
EndSplineSet
EndChar

StartChar: ycircumflex
Encoding: 375 375 270
Width: 558
GlyphClass: 2
Flags: MW
HStem: -200 51<114 250 114 300 114 250> 576 95<154 288 270 348 270 404>
VStem: 250 50<-149 -5 -200 -5>
AnchorPoint: "Anchor-7" 279 671 basechar 0
AnchorPoint: "Anchor-5" 280 -200 basechar 0
LayerCount: 2
Fore
SplineSet
453 520 m 1
 508 520 l 1
 300 -5 l 1
 300 -200 l 1
 114 -200 l 1
 114 -149 l 1
 250 -149 l 1
 250 -5 l 1
 50 520 l 1
 104 520 l 1
 275 71 l 1
 453 520 l 1
154 576 m 1
 270 671 l 1
 288 671 l 1
 404 576 l 1
 348 576 l 1
 279 635 l 1
 210 576 l 1
 154 576 l 1
EndSplineSet
EndChar

StartChar: ydieresis
Encoding: 255 255 271
Width: 558
GlyphClass: 2
Flags: MW
HStem: -200 51<114 250 114 300 114 250> 600 72<188.5 209.5 348.5 369.5>
VStem: 163 72<625.5 646.5> 250 50<-149 -5 -200 -5> 323 72<625.5 646.5>
AnchorPoint: "Anchor-7" 279 696 basechar 0
AnchorPoint: "Anchor-5" 280 -200 basechar 0
LayerCount: 2
Fore
SplineSet
453 520 m 1
 508 520 l 1
 300 -5 l 1
 300 -200 l 1
 114 -200 l 1
 114 -149 l 1
 250 -149 l 1
 250 -5 l 1
 50 520 l 1
 104 520 l 1
 275 71 l 1
 453 520 l 1
163 636 m 0xf8
 163 657 178 672 199 672 c 0
 220 672 235 657 235 636 c 0
 235 615 220 600 199 600 c 0
 178 600 163 615 163 636 c 0xf8
323 636 m 0
 323 657 338 672 359 672 c 0
 380 672 395 657 395 636 c 0
 395 615 380 600 359 600 c 0
 338 600 323 615 323 636 c 0
EndSplineSet
EndChar

StartChar: ygrave
Encoding: 7923 7923 272
Width: 558
GlyphClass: 2
Flags: MW
HStem: -200 51<114 250 114 300 114 250> 575 100<194 304 194 250>
VStem: 250 50<-149 -5 -200 -5>
AnchorPoint: "Anchor-7" 279 675 basechar 0
AnchorPoint: "Anchor-5" 280 -200 basechar 0
LayerCount: 2
Fore
SplineSet
453 520 m 1
 508 520 l 1
 300 -5 l 1
 300 -200 l 1
 114 -200 l 1
 114 -149 l 1
 250 -149 l 1
 250 -5 l 1
 50 520 l 1
 104 520 l 1
 275 71 l 1
 453 520 l 1
194 675 m 1
 248 675 l 1
 304 575 l 1
 250 575 l 1
 194 675 l 1
EndSplineSet
EndChar

StartChar: uni1EF9
Encoding: 7929 7929 273
Width: 558
GlyphClass: 2
Flags: MW
HStem: -200 51<114 250 114 300 114 250> 571 35<323.5 359 323.5 368.5> 644 35<202.5 237.5>
VStem: 137 35<575 595.5 575 606> 250 50<-149 -5 -200 -5> 391 35<652 674>
AnchorPoint: "Anchor-7" 279 676 basechar 0
AnchorPoint: "Anchor-5" 280 -200 basechar 0
LayerCount: 2
Fore
SplineSet
453 520 m 1
 508 520 l 1
 300 -5 l 1
 300 -200 l 1
 114 -200 l 1
 114 -149 l 1
 250 -149 l 1
 250 -5 l 1
 50 520 l 1
 104 520 l 1
 275 71 l 1
 453 520 l 1
137 575 m 1
 137 637 171 679 216 679 c 0
 272 679 300 606 347 606 c 0
 371 606 391 630 391 674 c 1
 426 674 l 1
 426 610 390 571 347 571 c 0
 292 571 259 644 216 644 c 0
 189 644 172 616 172 575 c 1
 137 575 l 1
EndSplineSet
EndChar

StartChar: z
Encoding: 122 122 274
Width: 495
GlyphClass: 2
Flags: MW
HStem: 0 51<148 427 148 427> 469 51<68 347 68 435>
VStem: 60 375
AnchorPoint: "Anchor-7" 248 520 basechar 0
AnchorPoint: "Anchor-5" 248 0 basechar 0
LayerCount: 2
Fore
SplineSet
435 520 m 1
 148 51 l 1
 427 51 l 1
 427 0 l 1
 60 0 l 1
 347 469 l 1
 68 469 l 1
 68 520 l 1
 435 520 l 1
EndSplineSet
EndChar

StartChar: zacute
Encoding: 378 378 275
Width: 495
GlyphClass: 2
Flags: MW
HStem: 0 51<148 427 148 427> 469 51<68 347 68 435> 469 206<279 333 279 347> 575 100<223 333 223 333>
VStem: 60 375
AnchorPoint: "Anchor-7" 248 675 basechar 0
AnchorPoint: "Anchor-5" 248 0 basechar 0
LayerCount: 2
Fore
SplineSet
435 520 m 1xd8
 148 51 l 1
 427 51 l 1
 427 0 l 1
 60 0 l 1
 347 469 l 1
 68 469 l 1
 68 520 l 1
 435 520 l 1xd8
223 575 m 1
 279 675 l 1
 333 675 l 1xa8
 277 575 l 1
 223 575 l 1
EndSplineSet
EndChar

StartChar: zcaron
Encoding: 382 382 276
Width: 495
GlyphClass: 2
Flags: MW
HStem: 0 51<148 427 148 427> 469 51<68 347 68 435> 469 205<123 179 317 347 68 179> 579 95<123 257 123 239>
VStem: 60 375
AnchorPoint: "Anchor-7" 248 670 basechar 0
AnchorPoint: "Anchor-5" 248 0 basechar 0
LayerCount: 2
Fore
SplineSet
435 520 m 1xc8
 148 51 l 1
 427 51 l 1
 427 0 l 1
 60 0 l 1
 347 469 l 1
 68 469 l 1
 68 520 l 1
 435 520 l 1xc8
123 674 m 1xa8
 179 674 l 1
 248 615 l 1
 317 674 l 1
 373 674 l 1xa8
 257 579 l 1
 239 579 l 1xd8
 123 674 l 1xa8
EndSplineSet
EndChar

StartChar: zdotaccent
Encoding: 380 380 277
Width: 495
GlyphClass: 2
Flags: MW
HStem: 0 51<148 427 148 427> 469 51<68 347 68 435> 600 72<238 258.5>
VStem: 212 73<625.5 646.5>
AnchorPoint: "Anchor-7" 248 520 basechar 0
AnchorPoint: "Anchor-5" 248 0 basechar 0
LayerCount: 2
Fore
SplineSet
435 520 m 1
 148 51 l 1
 427 51 l 1
 427 0 l 1
 60 0 l 1
 347 469 l 1
 68 469 l 1
 68 520 l 1
 435 520 l 1
212 636 m 0
 212 657 228 672 248 672 c 0
 269 672 285 657 285 636 c 0
 285 615 269 600 248 600 c 0
 228 600 212 615 212 636 c 0
EndSplineSet
EndChar

StartChar: k.ss02
Encoding: 65575 -1 278
Width: 585
GlyphClass: 1
Flags: MW
HStem: 230 51<155 316 368 380 155 316> 469 51<429 514 429 429>
VStem: 102 53<0 230 281 710>
LayerCount: 2
Fore
SplineSet
102 0 m 1
 102 710 l 1
 155 710 l 1
 155 281 l 1
 316 281 l 1
 393 520 l 1
 514 520 l 1
 514 469 l 1
 429 469 l 1
 368 281 l 1
 414 281 l 1
 512 0 l 1
 458 0 l 1
 380 230 l 1
 155 230 l 1
 155 0 l 1
 102 0 l 1
EndSplineSet
EndChar

StartChar: a_o_n.dlig
Encoding: 65576 -1 279
Width: 1396
GlyphClass: 3
Flags: MW
HStem: -5 53<546.5 640 541 655> 0 53<129 200 129 200 80 200> 269 47<129 264 129 129> 467 53<107 200 107 200> 469 51<995 1151 995 995> 472 53<546.5 640>
VStem: 80 49<53 269 53 316 53 316> 80 184<269 316 269 316 269 316> 370 51<200.5 319.5 200.5 325.5> 762 53<200.5 319.5> 942 53<0 469 0 520 0 520> 1257 53<0 357 0 390>
LayerCount: 2
Fore
SplineSet
590 -5 m 0xa6f0
 503 -5 433 49 397 129 c 1
 361 45 289 0 200 0 c 2
 80 0 l 1
 80 316 l 1x6af0
 264 316 l 1
 264 269 l 1x69f0
 129 269 l 1
 129 53 l 1
 200 53 l 2
 299 53 370 127 370 260 c 0
 370 391 300 467 200 467 c 2
 107 467 l 1
 107 520 l 1
 200 520 l 2x72f0
 289 520 361 475 397 391 c 1
 433 471 503 525 590 525 c 0
 720 525 815 407 815 260 c 0
 815 113 720 -5 590 -5 c 0xa6f0
421 260 m 0
 421 141 492 48 590 48 c 0
 690 48 762 141 762 260 c 0
 762 379 690 472 590 472 c 0
 492 472 421 379 421 260 c 0
942 0 m 1
 942 520 l 1
 1151 520 l 2
 1243 520 1310 452 1310 357 c 2
 1310 0 l 1
 1257 0 l 1
 1257 357 l 2
 1257 423 1213 469 1151 469 c 2
 995 469 l 1x6af0
 995 0 l 1
 942 0 l 1
EndSplineSet
Ligature2: "'dlig' Discretionary Ligatures in Latin lookup 7 subtable" a o n
EndChar

